<svg width="314" height="700" viewBox="0 0 314 700" fill="none" xmlns="http://www.w3.org/2000/svg">
<path d="M151.195 195.637C151.195 195.637 122.127 234.042 118.717 228.701C118.717 228.701 111.977 223.826 124.761 209.779C137.541 195.732 142.517 190.138 142.517 190.138C142.517 190.138 153.11 183.155 151.195 195.637ZM163.315 245.052C157.85 247.301 153.928 256.598 153.816 256.9C142.051 260.803 147.296 250.961 147.296 250.961C148.719 247.646 151.458 245.197 154.644 241.494C157.83 237.791 168.781 242.804 163.315 245.052ZM305.54 34.294C305.54 34.294 274.626 70.362 267.692 77.4988C260.755 84.6323 252.084 72.6042 252.084 72.6042C252.084 72.6042 237.865 62.4243 241.846 74.9021C245.83 87.38 244.595 92.7671 244.595 92.7671L163.364 181.422C163.364 181.422 162.517 194.865 158.047 190.397C153.576 185.929 150.913 183.52 145.986 184.56C141.059 185.601 106.128 217.447 103.651 224.358C101.175 231.268 105.408 231.11 105.888 234.987C106.367 238.864 109.455 241.76 109.455 241.76C109.455 241.76 101.697 244.98 105.014 247.866C108.328 250.751 108.387 253.604 108.387 253.604C108.387 253.604 51.7419 318.042 42.4466 330.47C33.148 342.899 79.7165 362.678 79.7165 362.678C101.822 351.136 117.499 275.392 124.777 266.147C132.059 256.903 138.53 269.634 138.53 269.634C138.53 269.634 145.601 299.809 147.26 302.383C148.919 304.957 157.166 296.907 161.131 294.783C165.095 292.659 166.82 288.727 164.327 288.628C161.831 288.53 154.624 278.038 157.81 273.918C160.996 269.798 157.288 270.326 157.288 270.326C144.603 266.729 167.411 240.072 169.326 243.312C171.244 246.553 189.312 257.057 200.454 262.602C211.595 268.143 217.172 250.902 219.064 246.904C220.953 242.905 213.549 237.4 201.735 234.265C189.923 231.133 183.295 218.688 183.295 218.688C183.295 218.688 170.715 210.448 175.353 202.58C179.988 194.711 182.704 198.023 182.704 198.023C182.704 198.023 252.153 115.015 256.094 111.252C260.032 107.49 261.826 110.511 262.184 110.832C262.538 111.154 266.457 112.539 265.311 106.66C264.164 100.78 260.262 97.4713 260.262 97.4713C260.262 97.4713 265.202 88.9098 269.272 92.1532C273.341 95.3966 272.448 92.3304 274.199 87.7772C275.67 83.9462 271.683 84.78 270.379 85.1411C272.287 83.0631 276.166 78.7397 283.609 70.3391C304.637 46.6045 313.085 46.9098 313.262 38.1382C313.436 29.3699 305.54 34.294 305.54 34.294Z" fill="#1C1D1C"/>
<path d="M48.8714 170.316C48.8714 170.316 16.7746 170.11 4.26703 210.938C-8.23729 251.769 39.5137 291.852 68.9039 292.623C98.2909 293.395 84.5023 276.492 66.6868 273.504C48.8714 270.517 10.2121 229.663 32.1891 210.081C54.1661 190.499 56.3733 188.122 56.3733 188.122L48.8714 170.316Z" fill="#F8B67A"/>
<path d="M70.1299 216.241L84.802 355.017L223.952 360.444L255.931 220.029C270.189 233.157 279.471 207.955 279.471 207.955C296.843 207.814 287.394 191.15 287.394 191.15C302.657 185.314 290.869 176.844 290.869 176.844C298.791 166.861 286.674 161.605 286.674 161.605C290.984 145.635 271.51 150.949 271.51 150.949C260.95 141.459 254.187 156.566 254.187 156.566L110.734 156.034L68.0803 156.566C68.0803 156.566 59.3795 141.456 48.8196 150.949C48.8196 150.949 29.8776 145.04 34.1836 161.011C34.1836 161.011 16.2598 163.926 29.4604 176.844C29.4604 176.844 17.6492 181.151 32.9355 191.15C32.9355 191.15 18.5196 221.286 53.1323 210.955C54.226 228.925 70.1299 216.241 70.1299 216.241Z" fill="#E5E3D9"/>
<path d="M86.6094 623.408C86.6094 623.408 100.375 636.598 85.082 642.192L86.6094 623.408Z" fill="#F8B67A"/>
<path d="M79.0983 156.408C79.0983 156.408 75.7152 191.941 74.9401 200.716C74.2011 216.877 65.543 219.07 65.543 219.07L80.9935 331.598L230.336 332.418C230.336 332.418 256.084 219.359 255.933 220.025C255.781 220.692 247.823 234.112 249.334 201.556C249.951 188.232 241.224 156.52 241.224 156.52L219.057 156.408L209.121 188.317C207.131 194.791 201.156 199.213 194.38 199.229L133.642 199.38C127.112 199.396 121.193 195.546 118.559 189.574L103.867 156.162L79.0983 156.408Z" fill="#2E3322"/>
<path d="M86.1834 156.41C86.1834 156.41 91.823 197.156 86.1834 228.02C85.0798 234.07 84.1602 253.163 84.1602 253.163L93.3898 254.02C93.3898 254.02 98.7633 165.641 94.1419 156.242L86.1834 156.41Z" fill="#354024"/>
<path d="M83.4994 156.362C83.4994 156.362 80.3364 176.748 95.2483 180.878C110.157 185.005 103.696 164.067 103.696 164.067L100.678 156.162L83.4994 156.362Z" fill="#0A0D0B"/>
<path d="M95.2457 180.875C95.515 180.951 95.7647 181 96.0176 181.059C96.0044 168.969 95.4658 159.078 94.1519 156.104L86.1836 156.327C86.1836 156.327 86.7584 164.094 88.0657 176.483C89.3105 178.495 92.6969 180.17 95.2457 180.875Z" fill="#1C2116"/>
<path d="M95.377 274.09C95.377 274.09 95.8664 276.782 104.656 275.012L102.071 292.575C102.071 292.575 92.9629 295.356 93.4063 291.459C93.8464 287.562 95.377 274.09 95.377 274.09Z" fill="#354024"/>
<path d="M127.453 180.872C127.453 180.872 127.972 171.013 110.843 167.478C110.843 167.478 106.389 165.351 110.051 158.326C113.582 151.55 113.98 140.09 106.941 131.147C106.185 130.185 105.666 129.02 105.722 127.796C105.808 125.869 107.075 123.515 112.866 123.784C122.519 124.234 125.886 109.314 125.886 109.314C125.886 109.314 126.336 93.0473 123.639 88.5597C120.946 84.0722 120.161 67.3562 121.787 64.6643C121.787 64.6643 129.519 50.7355 111.671 59.4841C111.671 59.4841 103.827 68.7514 92.7153 67.4022C81.8829 66.0891 69.4245 78.8164 77.0808 93.4905C77.5899 94.4688 78.0826 95.4503 78.4735 96.4811C80.1125 100.785 83.3116 111.273 76.6637 113.798C68.2454 116.995 68.0778 127.933 68.0778 127.933C68.0778 127.933 67.4045 139.377 84.4087 152.164C84.4087 152.164 94.7649 159.527 99.268 160.617C99.268 160.617 102.086 161.543 98.2137 164.697C94.3412 167.852 92.4066 180.429 97.8787 184.972C97.8787 184.972 110.084 196.419 124.257 198.779C124.26 198.789 128.261 190.277 127.453 180.872Z" fill="#E7303E"/>
<path d="M221.262 618.895C221.262 618.895 237.659 638.43 220.914 642.504C204.173 646.581 221.262 618.895 221.262 618.895Z" fill="#F8B67A"/>
<path d="M147.399 278.354C147.399 278.354 160.544 283.796 172.674 279.44C184.804 275.084 176.251 294.124 176.251 294.124L171.324 295.897C171.324 295.897 155.979 300.243 146.102 295.424C136.222 290.605 135.68 285.267 147.399 278.354Z" fill="#354024"/>
<path d="M230.443 331.953C234.319 348.498 223.956 360.441 223.956 360.441C96.0257 354.827 84.8056 355.014 84.8056 355.014C75.8059 350.484 76.6698 336.969 81.1007 331.129L230.443 331.953Z" fill="#354024"/>
<path d="M113.326 52.2035L112.37 80.0514C112.37 80.0514 102.543 69.9174 102.543 84.0334C102.543 98.1494 110.725 100.864 110.725 100.864L110.735 156.035L209.873 156.406L209.853 100.497C209.853 100.497 219.956 95.254 218.994 83.8496C218.031 72.4484 210.444 79.142 210.47 82.2213C210.493 85.2973 209.81 51.1432 209.81 51.1432L166.865 26.043L113.326 52.2035Z" fill="#F8B67A"/>
<path d="M145.129 315.688C145.129 315.688 160.212 323.596 170.378 314.936C180.544 306.276 171.261 304.142 171.261 304.142C171.261 304.142 153.137 308.298 145.129 301.401C137.118 294.501 140.81 313.948 145.129 315.688Z" fill="#354024"/>
<path d="M111.672 59.4879C111.672 59.4879 118.701 71.6243 135.377 56.599C152.052 41.577 152.663 49.4918 160.799 54.0746C167.493 57.8432 192.025 55.4106 200.516 54.4291C202.063 54.2485 203.61 54.1369 205.167 54.1402C207.548 54.1435 211.575 53.8086 211.953 51.514C212.495 48.241 195.537 42.1777 195.537 42.1777L117.242 45.7954L113.321 52.2034L111.672 59.4879Z" fill="#E7303E"/>
<path d="M58.5352 680.786L61.2088 558.443H88.7301L86.0565 680.786H58.5352Z" fill="#F8B67A"/>
<path d="M194.707 679.882L197.381 557.539H224.905L222.228 679.882H194.707Z" fill="#F8B67A"/>
<path d="M86.9527 623.806C86.9527 623.806 100.091 636.885 85.6914 641.448M223.154 621.574C223.154 621.574 235.651 636.961 221.951 642.325L223.154 621.574Z" stroke="#1C1D1C" stroke-miterlimit="10"/>
<path d="M211.952 51.5161C211.952 51.5161 215.834 12.5889 190.356 4.26371C178.512 0.393305 176.397 -3.0963 141.748 4.50664C106.462 12.2474 114.295 51.5194 114.295 51.5194L160.312 35.6307L211.952 51.5161Z" fill="#1C1D1C"/>
<path d="M130.591 329.869L145.125 315.681L149.72 255.281L135.117 260.442L128.988 302.596L130.591 329.869Z" fill="#1C2116"/>
<path d="M114.297 51.5197C108.316 53.7356 106.47 46.31 113.857 41.2413C120.022 37.0131 140.616 32.9622 161.141 32.9786C184.816 33.0015 208.567 39.1863 212.364 40.703C216.749 42.4494 219.849 49.3892 211.953 51.5165C206.218 49.8948 183.312 46.7203 160.852 46.8615C138.849 47.0026 117.256 50.4233 114.297 51.5197Z" fill="#141414"/>
<path d="M107.445 148.375C107.862 148.516 117.358 137.627 120.646 155.597C120.646 155.597 137.46 134.069 145.379 156.014C146.906 156.014 155.383 147.124 160.803 154.209C160.803 154.209 175.672 139.347 188.735 155.459C189.845 155.322 197.258 142.128 208.639 146.156C220.02 150.184 210.879 157.301 210.879 157.301L206.449 158.706L110.917 160.597L107.445 148.375Z" fill="#D6D1C9"/>
<path d="M120.371 38.3535C120.371 38.3535 117.339 44.9486 119.385 50.4079C119.382 50.4079 121.796 43.8292 120.371 38.3535Z" fill="#1C1D1C"/>
<path d="M126.678 36.6348C126.678 36.6348 123.167 43.9488 125.535 49.3227C125.535 49.3195 128.357 40.7514 126.678 36.6348Z" fill="#1C1D1C"/>
<path d="M134.111 35.207C134.111 35.207 129.743 41.3721 132.745 48.4235C132.745 48.4235 135.524 38.8542 134.111 35.207Z" fill="#1C1D1C"/>
<path d="M141.243 34.1602C141.243 34.1602 137.003 41.6285 139.732 47.8822C139.729 47.8789 142.964 38.779 141.243 34.1602Z" fill="#1C1D1C"/>
<path d="M147.573 33.5293C147.573 33.5293 143.888 38.5421 147.301 47.3236C147.301 47.3236 149.183 38.6472 147.573 33.5293Z" fill="#1C1D1C"/>
<path d="M155.742 33.084C155.742 33.084 152.661 39.5905 155.749 46.9669C155.749 46.9669 157.785 37.6471 155.742 33.084Z" fill="#1C1D1C"/>
<path d="M164.365 33.0215C164.365 33.0215 160.95 39.3441 164.237 46.8683C164.237 46.865 166.251 36.5866 164.365 33.0215Z" fill="#1C1D1C"/>
<path d="M173.038 33.4668C173.038 33.4668 170.486 39.7172 173.934 47.0838C173.934 47.0871 175.084 38.3384 173.038 33.4668Z" fill="#1C1D1C"/>
<path d="M182.142 34.3984C182.142 34.3984 179.774 40.8491 183.059 47.6675C183.059 47.6675 184.11 39.6345 182.142 34.3984Z" fill="#1C1D1C"/>
<path d="M189.979 35.541C189.979 35.541 187.995 41.0003 191.04 48.3603C191.04 48.3636 192.268 41.7094 189.979 35.541Z" fill="#1C1D1C"/>
<path d="M197.028 36.8242C197.028 36.8242 195.33 42.4476 197.852 49.1248C197.852 49.1248 198.595 41.3019 197.028 36.8242Z" fill="#1C1D1C"/>
<path d="M203.771 38.293C203.771 38.293 202.467 44.8192 204.927 50.1209C204.93 50.1209 205.624 42.1371 203.771 38.293Z" fill="#1C1D1C"/>
<path d="M209.323 39.7266C209.323 39.7266 207.224 44.4603 209.112 50.8618C209.112 50.8618 210.449 42.9141 209.323 39.7266Z" fill="#1C1D1C"/>
<path d="M212.739 40.8672C212.739 40.8672 214.565 45.4959 213.761 50.8633C213.862 50.5251 212.049 46.2214 212.739 40.8672Z" fill="#1C1D1C"/>
<path d="M115.634 40.2188C115.634 40.2188 116.622 47.0108 114.724 51.3802C114.724 51.3802 113.462 45.0871 115.634 40.2188Z" fill="#1C1D1C"/>
<path d="M211.215 84.0223C211.215 84.0223 218.477 76.682 213.918 89.5867" stroke="#1C1D1C" stroke-width="0.5" stroke-miterlimit="10"/>
<path d="M112.62 42.1797C112.62 42.1797 109.529 48.1117 111.221 51.7786C111.122 51.5455 112.748 45.1966 112.62 42.1797Z" fill="#1C1D1C"/>
<path d="M108.971 81.2182C108.971 81.2182 102.51 76.5928 105.128 89.2381" stroke="#1C1D1C" stroke-width="0.5" stroke-miterlimit="10"/>
<path d="M110.195 158.048C110.195 158.048 116.068 143.863 109.673 135.676C109.673 135.676 99.9935 145.636 99.3202 150.53C98.66 155.294 103.308 161.567 110.195 158.048Z" fill="#E7303E"/>
<path d="M177.243 126.19C174.268 126.049 173.184 124.696 173.184 124.696C170.313 121.614 168.911 123.219 167.955 124.283C167.386 124.913 166.726 125.471 165.954 125.826C164.601 126.446 162.588 126.876 161.014 125.13C158.39 122.224 154.35 123.711 153.217 126.266C152.084 128.816 148.398 128.389 148.398 128.389C148.398 128.389 164.21 134.834 177.243 126.19Z" fill="#E7303E"/>
<path d="M129.461 80.7914C129.461 80.7914 138.48 67.2499 150.742 78.8119C150.742 78.8152 142.606 87.3537 129.461 80.7914Z" fill="#FFF5E1"/>
<path d="M174.258 81.4692C174.258 81.4692 183.277 67.9277 195.538 79.4896C195.538 79.4929 187.403 88.0314 174.258 81.4692Z" fill="#FFF5E1"/>
<path d="M129.461 80.7901C129.461 80.7901 137.948 66.5297 150.742 78.8106" stroke="#1C1D1C" stroke-miterlimit="10"/>
<path d="M195.414 79.469C183.064 67.6016 174.422 81.3631 174.422 81.3631" stroke="#141414" stroke-miterlimit="10"/>
<path d="M140.306 79.2318C140.338 78.8411 142.296 75.1381 143.797 77.2752C145.298 79.4123 139.875 84.1363 140.306 79.2318Z" fill="#694A2F"/>
<path d="M184.923 79.6146C184.956 79.2239 186.914 75.5209 188.415 77.658C189.912 79.7951 184.49 84.5223 184.923 79.6146Z" fill="#694A2F"/>
<path d="M103.764 278.408L97.6289 329.869H130.596L137.122 284.064L103.764 278.408Z" fill="#29311B"/>
<path d="M97.6316 254.307C97.6316 254.307 108.848 256.907 117.46 254.53L113.611 267.464L91.8672 266.105L97.6316 254.307Z" fill="#354024"/>
<path d="M163.445 89.6225C163.862 90.1904 163.462 108.436 169.574 112.172M194.245 68.6783C193.621 68.6783 177.71 63.2158 172.429 71.5146M131.973 68.6783C132.597 68.6783 148.507 63.2158 153.789 71.5146" stroke="#1C1D1C" stroke-miterlimit="10"/>
<path d="M213.179 292.578C213.179 292.578 226.212 293.759 226.327 286.833C226.439 279.909 227.233 278.357 227.233 278.357L224.908 274.342C224.908 274.342 219.554 279.049 211.366 279.433C203.171 279.817 213.179 292.578 213.179 292.578Z" fill="#354024"/>
<path d="M227.562 297.693C227.562 297.693 216.128 305.562 207.559 300.802C198.99 296.042 213.182 316.386 213.182 316.386C213.182 316.386 225.916 319.425 229.178 311.898C232.433 304.374 227.562 297.693 227.562 297.693Z" fill="#354024"/>
<path d="M209.974 254.53C209.974 254.53 217.719 257.127 222.636 254.32L226.604 263.249C226.604 263.249 220.337 271.923 209.784 267.429C199.227 262.934 209.974 254.53 209.974 254.53Z" fill="#354024"/>
<path d="M148.504 271.276C148.504 271.276 164.785 276.289 173.953 271.276C183.117 266.263 175.316 254.527 175.316 254.527L149.722 255.279L148.504 271.276Z" fill="#354024"/>
<path d="M117.46 254.531L101.412 259.616C101.412 259.616 91.4068 280.909 108.894 282.924C116.704 283.827 126.213 284.874 127.773 285.189C131.899 286.017 140.11 286.857 139.841 280.295C139.48 271.546 138.911 260.851 143.779 259.032C148.647 257.217 149.727 255.283 149.727 255.283L117.46 254.531Z" fill="#303A21"/>
<path d="M124.488 276.845C124.488 279.353 122.439 281.385 119.906 281.385C117.377 281.385 115.324 279.353 115.324 276.845C115.324 274.337 117.377 272.305 119.906 272.305C122.439 272.305 124.488 274.337 124.488 276.845Z" fill="#1C1D1C"/>
<path d="M213.18 286.83H179.379V329.119H213.18V286.83Z" fill="#29311B"/>
<path d="M109.636 319.84L116.267 321.071L118.225 309.631L128.896 312.152L129.612 306.673L119.903 304.142L122.281 292.577L115.321 291.273L112.917 303.167L103.904 301.338L102.922 306.84L112.168 308.695L109.636 319.84Z" fill="#E7303E"/>
<path d="M175.324 254.531L170.371 314.935L179.377 329.123L185.283 266.261L181.128 256.429L175.324 254.531Z" fill="#1C2116"/>
<path d="M175.312 254.531L179.208 255.805C180.41 256.199 181.267 257.253 181.389 258.513C181.731 262.036 181.977 269.543 179.195 277.228C175.845 286.483 183.862 286.965 183.862 286.965L206.91 287.917C206.91 287.917 215.44 289.644 217.496 279.513C219.556 269.36 213.729 257.972 213.729 257.972L209.971 254.538H175.312V254.531Z" fill="#303A21"/>
<path d="M203.259 280.638C203.259 283.146 201.051 285.178 198.329 285.178C195.606 285.178 193.398 283.146 193.398 280.638C193.398 278.13 195.606 276.098 198.329 276.098C201.051 276.094 203.259 278.13 203.259 280.638Z" fill="#1C1D1C"/>
<path d="M184.463 317.169C183.714 318.289 183.448 319.704 183.917 320.968C184.496 322.52 186.154 323.948 190.674 322.635C197.01 320.797 206.029 310.558 209.823 305.972C211.317 304.166 211.557 301.524 210.148 299.652C208.841 297.913 206.377 296.793 201.756 299.272C194.142 303.365 186.801 313.676 184.463 317.169Z" fill="#FBC592"/>
<path d="M194.294 306.053C192.212 307.872 191.112 310.596 191.187 313.357C191.26 316.128 192.396 318.935 197.237 317.152C205.784 314.004 200.778 307.497 200.778 307.497C200.778 307.497 198.587 302.304 194.294 306.053Z" fill="#FDE3CA"/>
<path d="M79.8633 324.791L90.3903 318.026L97.6262 254.307L86.4127 254.471L82.6026 259.759L79.8633 324.791Z" fill="#1C2116"/>
<path d="M79.8669 324.795L53.1602 320.278L60.961 274.342L84.1631 278.678L79.8669 324.795Z" fill="#29311B"/>
<path d="M97.6311 254.324C97.6311 254.324 82.1444 254.708 84.5881 263.827C87.0285 272.943 85.6063 284.4 81.8981 284.213C78.1898 284.026 58.1441 284.519 58.8667 276.712C59.5926 268.906 57.3722 253.867 64.0103 253.598C70.6484 253.329 81.2181 253.168 81.2181 253.168L97.6311 254.324Z" fill="#303A21"/>
<path d="M74.4741 276.315C74.3263 278.367 72.9205 279.939 71.3373 279.824C69.7542 279.709 68.5914 277.95 68.7392 275.898C68.887 273.846 70.2928 272.274 71.876 272.389C73.4591 272.504 74.6219 274.263 74.4741 276.315Z" fill="#1C1D1C"/>
<path d="M240.396 324.791L229.869 318.026L222.637 254.307L233.85 254.471L237.657 259.759L240.396 324.791Z" fill="#1C2116"/>
<path d="M240.398 324.795L267.105 320.278L259.304 274.342L236.102 278.678L240.398 324.795Z" fill="#29311B"/>
<path d="M222.637 254.324C222.637 254.324 238.123 254.708 235.68 263.827C233.239 272.943 234.661 284.4 238.37 284.213C242.078 284.026 262.127 284.519 261.401 276.712C260.675 268.906 262.896 253.867 256.257 253.598C249.619 253.329 239.05 253.168 239.05 253.168L222.637 254.324Z" fill="#303A21"/>
<path d="M245.79 276.315C245.938 278.367 247.344 279.939 248.927 279.824C250.51 279.709 251.673 277.95 251.525 275.898C251.377 273.846 249.971 272.274 248.388 272.389C246.805 272.504 245.642 274.263 245.79 276.315Z" fill="#1C1D1C"/>
<path d="M90.4688 317.324C94.154 321.276 99.0218 318.131 99.0218 318.131L100.95 301.957C97.0247 304.977 92.3607 300.65 92.3607 300.65L90.4688 317.324Z" fill="#354024"/>
<path d="M68.3457 309.57C67.4326 309.57 66.6903 308.585 66.6903 307.374C66.6903 306.159 67.4326 305.174 68.3457 305.174C69.2588 305.174 70.0011 306.159 70.0011 307.374C70.0011 308.588 69.2588 309.57 68.3457 309.57ZM70.7172 304.679C67.2487 301.475 65.6983 304.895 65.6983 304.895C64.6703 306.497 64.4601 310.01 67.2421 310.913C70.0208 311.815 74.1857 307.883 70.7172 304.679Z" fill="#4A6680"/>
<path d="M69.1642 299.481C69.1642 299.481 54.1636 303.23 62.3915 305.177C70.616 307.12 75.6841 306.01 75.8647 303.926C76.0454 301.841 78.0555 298.926 69.1642 299.481Z" fill="#FDE3CA"/>
<path d="M66.3306 302.477C65.3223 301.41 68.8696 302.198 67.9631 297.547C67.0565 292.895 70.0192 291.713 70.9881 294.146C71.9571 296.575 69.5955 301.716 70.9881 302.477C72.3775 303.242 67.6543 303.879 66.3306 302.477Z" fill="#C1DFF7"/>
<path d="M226.604 156.449C226.604 156.449 219.992 231.005 222.643 254.322L231.524 253.695C231.524 253.695 232.835 158.087 232.47 156.479L226.604 156.449Z" fill="#354024"/>
<path d="M242.5 303.324V310.665L248.038 312.421L248.09 303.324H242.5Z" fill="#225BA7"/>
<path d="M248.092 303.325L260.704 298.611V304.858L248.039 312.422L248.092 303.325Z" fill="#12448B"/>
<path d="M242.5 303.325L254.669 298.611H260.703L248.09 303.325H242.5Z" fill="#1E325B"/>
<path d="M247.152 299.709V301.967C247.152 301.967 249.987 302.834 250.237 300.963V299.492L247.152 299.709Z" fill="#679BD3"/>
<path d="M247.795 299.959C247.795 299.959 251.149 300.067 249.999 299.184C248.856 298.301 245.861 299.693 247.795 299.959Z" fill="#1E325B"/>
<path d="M252.355 297.788V300.046C252.355 300.046 255.193 300.913 255.44 299.042V297.574L252.355 297.788Z" fill="#679BD3"/>
<path d="M252.995 298.034C252.995 298.034 256.348 298.142 255.199 297.263C254.053 296.379 251.06 297.771 252.995 298.034Z" fill="#1E325B"/>
<path d="M122.423 292.039C120.127 291.389 117.841 290.565 115.443 290.45C115.256 290.44 115.059 290.558 114.971 290.722C114.107 292.291 114.021 293.634 113.933 295.377C113.834 297.376 113.818 302.166 111.032 302.317C109.15 302.419 104.867 299.592 103.179 301.329C102.621 301.9 102.933 305.029 102.824 305.715C102.713 306.43 102.263 307.202 102.903 307.793C103.031 307.911 103.143 307.904 103.291 307.954C104.233 308.279 105.669 307.95 106.746 308.229C108.5 308.686 110.093 309.326 111.939 309.329C111.761 309.096 111.584 308.866 111.407 308.633C110.796 310.255 110.471 311.89 110.251 313.6C110.044 315.205 109.213 318.058 109.564 319.66C109.673 320.169 109.663 320.346 110.05 320.658C110.553 321.062 111.673 320.973 112.32 321.068C113.604 321.255 114.888 321.443 116.173 321.626C116.452 321.666 116.784 321.561 116.849 321.242C117.303 319.063 117.703 316.876 118.025 314.673C118.157 313.784 118.226 312.868 118.386 311.982C118.607 310.8 118.442 310.547 119.746 310.38C123.008 309.966 126.102 313.341 129.39 312.694C129.58 312.655 129.718 312.484 129.774 312.31C130.135 311.194 130.621 307.924 130.139 306.847C129.551 305.531 128.194 305.741 126.884 305.492C125.603 305.245 123.996 305.068 122.811 304.51C120.807 303.565 120.751 302.708 121.047 300.679C121.366 298.466 121.188 294.76 122.607 292.945C122.302 292.767 121.993 292.59 121.687 292.41C121.145 293.847 120.62 295.216 120.406 296.743C120.311 297.436 121.369 297.734 121.467 297.035C121.681 295.509 122.21 294.136 122.748 292.702C122.936 292.203 122.164 291.737 121.829 292.167C120.039 294.458 120.246 298.578 119.842 301.368C119.401 304.405 119.47 304.677 122.515 305.57C123.52 305.862 124.538 306.122 125.56 306.342C126.26 306.493 128.237 306.476 128.651 306.893C129.324 307.57 129.104 308.86 128.92 309.7C128.634 311.023 128.9 311.387 127.363 311.391C125.934 311.397 124.161 310.304 122.788 309.887C121.185 309.398 119.733 309.178 118.058 309.388C117.739 309.431 117.542 309.608 117.506 309.94C117.109 313.639 116.531 317.306 115.779 320.95C116.005 320.822 116.228 320.694 116.455 320.566C115.171 320.379 113.887 320.192 112.602 320.008C112.261 319.959 110.894 319.965 110.674 319.729C110.418 319.453 110.878 317.648 110.914 317.306C111.233 314.467 111.443 311.62 112.458 308.925C112.586 308.584 112.257 308.233 111.926 308.229C109.728 308.223 107.899 307.235 105.774 306.883C105.274 306.801 104.309 306.985 103.954 306.798C103.323 306.992 103.294 306.729 103.875 306.007C103.934 305.689 103.987 305.367 104.03 305.045C104.125 304.434 103.859 302.484 104.25 302.038C104.611 301.624 106.963 302.406 107.478 302.534C108.897 302.888 110.251 303.538 111.748 303.417C114.251 303.213 114.369 300.663 114.734 298.489C115.007 296.871 114.425 293.972 115.266 292.672C116.514 290.735 120.466 292.633 122.121 293.099C122.811 293.289 123.103 292.229 122.423 292.039Z" fill="#E7303E"/>
<path d="M272.4 264.686C272.4 264.686 287.489 264.266 277.636 250.816C267.785 237.367 272.4 264.686 272.4 264.686Z" fill="#F8B67A"/>
<path d="M253.833 193.543C253.833 193.543 294.197 229.207 225.74 296.816C206.424 315.896 208.453 314.878 218.563 312.908C235.443 309.619 261.782 286.718 270.44 271.87C282.882 250.542 295.75 217.08 274.184 192.322C246.604 160.662 253.833 193.543 253.833 193.543Z" fill="#F8B67A"/>
<path d="M265.402 223.711C265.402 223.711 272.523 222.811 273.722 207.812C273.722 207.812 281.486 208.318 283.129 207.622C284.771 206.923 280.442 191.671 280.442 191.671L266.581 170.736L247.301 177.922C247.304 177.919 255.029 205.232 265.402 223.711Z" fill="#E5E3D9"/>
<path d="M277.803 251.756C280.096 254.024 280.878 256.493 280.014 259.592C279.186 262.556 276.286 264.227 273.257 264.086C272.548 264.053 272.551 265.153 273.257 265.186C276.388 265.334 279.721 263.643 280.845 260.629C282.244 256.874 281.334 253.706 278.585 250.981C278.076 250.479 277.297 251.254 277.803 251.756Z" fill="#1C1D1C"/>
<path d="M7.87612 241.373C7.87612 241.373 -4.1815 250.45 11.6435 255.712C27.4718 260.975 7.87612 241.373 7.87612 241.373Z" fill="#F8B67A"/>
<path d="M10.9629 255.039C7.7802 254.517 5.71093 252.958 4.62045 249.931C3.57596 247.036 4.9719 243.996 7.52729 242.358C8.12508 241.977 7.48459 241.081 6.89008 241.461C4.25258 243.152 2.51505 246.461 3.34604 249.567C4.38068 253.44 6.95906 255.495 10.779 256.122C11.4786 256.237 11.6625 255.154 10.9629 255.039Z" fill="#1C1D1C"/>
<path d="M84.8041 355.018C84.8041 355.018 -8.99639 519.876 1.56347 562.651C12.1233 605.425 285.415 600.426 288.555 570.428C291.695 540.429 231.795 365.444 223.951 360.444C216.108 355.441 84.8041 355.018 84.8041 355.018Z" fill="#E5E3D9"/>
<path d="M58.1158 680.491C39.0095 680.491 41.266 700.001 41.266 700.001H113.158C118.414 700.001 123.222 697.053 125.6 692.372L128.287 687.093C124.848 665.594 100.565 680.491 100.565 680.491H85.6371H58.1158Z" fill="#2E3322"/>
<path d="M194.381 680.491C175.275 680.491 177.532 700.001 177.532 700.001H249.424C254.679 700.001 259.488 697.053 261.866 692.372L264.553 687.093C261.114 665.594 236.831 680.491 236.831 680.491H221.903H194.381Z" fill="#2E3322"/>
<path d="M57.2109 680.506C57.2109 680.506 66.7329 696.605 87.7869 680.493C87.7869 680.493 58.4656 680.431 57.2109 680.506Z" fill="#3B1013"/>
<path d="M58.5352 680.484L58.9622 661.182L72.327 665.173L86.4868 661.182L86.0565 680.786L58.5352 680.484Z" fill="#D9D9ED"/>
<path d="M58.5352 680.484V682.241C58.5352 682.241 67.3739 694.965 86.1189 681.715L86.0565 680.79L58.5352 680.484Z" fill="#D9D9ED"/>
<path d="M194.707 680.484V682.241C194.707 682.241 203.467 695.021 222.209 681.771L222.228 680.786L194.707 680.484Z" fill="#D9D9ED"/>
<path d="M58.9023 663.769C58.9023 663.769 69.945 669.395 86.427 663.769L86.4828 661.182C86.4828 661.182 69.4097 664.533 58.9582 661.182L58.9023 663.769Z" fill="#E8E8F5"/>
<path d="M194.707 680.484L195.134 661.182L208.499 665.173L222.659 661.182L222.228 680.786L194.707 680.484Z" fill="#D9D9ED"/>
<path d="M195.074 663.769C195.074 663.769 206.117 669.395 222.599 663.769L222.655 661.182C222.655 661.182 205.582 664.533 195.13 661.182L195.074 663.769Z" fill="#E8E8F5"/>
<path d="M209.873 156.407C209.873 156.407 147.676 324.791 58.8452 338.635C58.8452 338.635 55.7577 345.434 63.8837 344.117C63.8837 344.117 134.988 356.194 222.009 156.447C222.613 155.061 219.128 154.205 217.427 154.067C216.153 153.962 211.613 153.279 209.873 156.407Z" fill="#354024"/>
<path d="M26.4549 242.369C26.4549 242.369 40.3781 272.748 88.7499 278.404C110.678 280.968 113.134 283.847 115.322 287.455C117.963 291.811 117.02 296.735 107.449 296.965C89.9422 297.385 61.7738 296.627 45.5579 285.741C29.3387 274.852 15.4023 254.811 15.4023 254.811L26.4549 242.369Z" fill="#F8B67A"/>
<path d="M213.656 154.052C213.298 158.723 206.453 158.703 206.453 158.703L206.732 150.91L210.868 151.189" fill="#D6D1C9"/>
<path d="M147.048 120.457C147.757 120.457 147.757 119.357 147.048 119.357C146.338 119.357 146.338 120.457 147.048 120.457Z" fill="#1C1D1C"/>
<path d="M93.9981 279.083C93.0554 278.131 108.608 275.98 116.478 268.837C124.321 261.72 126.384 267.041 124.949 270.436C123.513 273.83 104.003 279.329 115.778 281.919C127.553 284.506 134.191 274.713 136.1 278.702C138.005 282.69 118.803 287.927 118.632 289.062C118.366 290.851 137.118 286.577 137.118 290.257C137.118 292.746 124.673 294.249 118.902 294.962C118.33 295.034 118.711 296.426 119.273 296.56C123.694 297.63 131.35 299.538 129.599 301.809C126.417 305.942 88.7461 296.38 88.7461 296.38C88.7461 296.38 102.295 287.454 93.9981 279.083Z" fill="#F8B67A"/>
<path d="M228.211 294.345C228.211 294.345 214.452 289.273 209.345 286.299C199.737 280.708 198.837 286.319 206.113 291.712C208.721 293.646 217.605 291.013 217.957 299.988C218.085 303.294 203.432 297.92 198.676 296.088C197.405 295.599 195.986 295.534 194.722 296.032C193.365 296.568 192.4 297.638 194.817 299.749C197.412 302.01 208.878 304.233 212.281 305.405C214.278 306.094 212.659 307.027 212.248 306.977C207.693 306.4 194.173 304.857 194.2 307.424C194.229 310.473 205.679 310.162 210.383 310.119C210.98 310.116 214.938 310.595 212.541 311.209L205.14 312.184C204.195 312.506 201.948 313.461 201.544 314.373C200.903 315.818 202.23 317.239 207.016 316.612C211.266 316.524 220.644 312.423 220.644 312.423" fill="#F8B67A"/>
</svg>
