<svg width="235" height="330" viewBox="0 0 235 330" fill="none" xmlns="http://www.w3.org/2000/svg">
<path d="M0.046875 251.178V282.566L199.413 166.584L0.046875 251.178Z" fill="#005C83"/>
<path d="M0.046875 140.936V166.224L199.413 166.582L0.046875 140.936Z" fill="#005C83"/>
<path d="M0.046875 13.2246V49.6558L199.413 166.586L0.046875 13.2246Z" fill="#005C83"/>
<path d="M111.346 0.291016L199.415 155.244L135.175 0.291016H111.346Z" fill="#005C83"/>
<path d="M40.1809 0.291016V12.0949H14.5309V158.696H0V0.291016H40.1809Z" fill="#C6202B"/>
<path d="M107.247 1.79333V8.33913C109.262 2.97372 113.823 0.291016 118.384 0.291016C126.339 0.291016 133.551 4.90527 133.551 16.7092V106.347C133.551 117.615 126.339 122.873 118.384 122.873C113.399 122.873 109.474 120.19 107.247 114.932V158.696H94.2188V1.79333H107.247ZM107.247 18.1936V105.381C107.247 110.21 110.429 112.464 113.717 112.464C117.111 112.464 119.975 110.21 119.975 105.596V17.979C119.975 13.3647 117.111 11.1113 113.717 11.1113C110.429 11.1291 107.247 13.3826 107.247 18.1936Z" fill="#C6202B"/>
<path d="M40.1809 170.697V182.501H14.5309V329.102H0V170.697H40.1809Z" fill="#C6202B"/>
<path d="M83.8614 189.78V309.876C83.8614 320.07 78.5582 328.977 63.3909 328.977C47.9055 328.977 42.832 320.07 42.832 309.876V189.78C42.832 179.586 47.9231 170.697 63.3909 170.697C78.5582 170.697 83.8614 179.604 83.8614 189.78ZM56.4083 188.063V311.593C56.4083 316.851 59.3781 318.568 63.4086 318.568C67.6512 318.568 70.3028 317.066 70.3028 311.593V188.063C70.3028 182.591 67.6512 181.088 63.4086 181.088C59.3781 181.106 56.4083 182.716 56.4083 188.063Z" fill="#C6202B"/>
<path d="M107.298 329.102L199.415 166.584L73.1094 328.941L107.298 329.102Z" fill="#005C83"/>
<path d="M85.4884 19.374V139.613C85.4884 149.807 80.1851 158.714 65.0179 158.714C49.5324 158.714 44.459 149.807 44.459 139.613V19.374C44.459 9.1976 49.5501 0.291016 65.0179 0.291016C80.1851 0.291016 85.4884 9.1976 85.4884 19.374Z" fill="#C6202B"/>
<path d="M58.0195 17.6586V141.313C58.0195 146.572 60.9894 148.289 65.0199 148.289C69.2625 148.289 71.9141 146.786 71.9141 141.313V17.6586C71.9141 12.1859 69.2625 10.6836 65.0199 10.6836C60.9894 10.7015 58.0195 12.3111 58.0195 17.6586Z" fill="#C6202B"/>
<path d="M107.304 172.2V178.745C109.319 173.38 113.88 170.697 118.441 170.697C126.395 170.697 133.608 175.312 133.608 187.115V276.771C133.608 288.039 126.395 293.297 118.441 293.297C113.456 293.297 109.531 290.614 107.304 285.356V329.12H94.2578V172.2H107.304Z" fill="#C6202B"/>
<path d="M107.301 188.602V275.789C107.301 280.618 110.483 282.872 113.771 282.872C117.165 282.872 120.029 280.618 120.029 276.004V188.387C120.029 183.773 117.165 181.52 113.771 181.52C110.483 181.537 107.301 183.773 107.301 188.602Z" fill="#C6202B"/>
<path d="M161.659 0.291016C146.173 0.291016 141.1 9.1976 141.1 19.374V310C141.1 320.195 146.191 329.101 161.659 329.101C176.826 329.101 182.129 320.195 182.129 310V19.374C182.111 9.1976 176.808 0.291016 161.659 0.291016ZM168.553 311.717C168.553 317.19 165.901 318.692 161.659 318.692C157.628 318.692 154.658 316.976 154.658 311.717V18.9448C154.658 13.5794 157.628 11.9697 161.659 11.9697C165.901 11.9697 168.553 13.472 168.553 18.9448V311.717Z" fill="#C6202B"/>
<path d="M202.355 232.076C165.585 232.076 135.781 201.923 135.781 164.723C135.781 127.523 165.585 97.3691 202.355 97.3691V232.076Z" fill="#C6202B"/>
<path d="M230.228 304.546V0.363281H194.184V22.5045C194.184 38.2789 192.699 297.679 189.199 304.546H185.486V329.102H197.79V314.937H222.697V329.102H235.001V304.546H230.228V304.546ZM217.182 304.546H202.333C205.091 298.322 206.682 40.7469 206.682 27.0115V10.7543H217.182V304.546V304.546Z" fill="#C6202B"/>
<path d="M42.0922 233.649L37.4961 244.255L42.4988 257.883L59.0803 248.225L62.5097 236.547L57.7014 226.71L42.0922 233.649Z" fill="#005C83"/>
<path d="M94.2181 85.6035L107.246 95.619L136.485 118.172L127.116 124.11L94.2181 104.83L90.8594 93.598L94.2181 85.6035Z" fill="#005C83"/>
<path d="M94.252 164.705L90.0801 161.199L93.8984 153.008L107.369 154.743L113.874 164.275L107.298 164.705H94.252Z" fill="#005C83"/>
<path d="M193.555 113.09C174.339 113.09 158.766 128.846 158.766 148.287C158.766 167.728 174.339 183.485 193.555 183.485V113.09V113.09Z" fill="white"/>
<path d="M93.9381 227.946L133.748 204.785L136.081 197.578L134.614 194.072L93.4432 211.546L89.3066 222.241L93.9381 227.946Z" fill="#005C83"/>
<path d="M134.503 41.0502L111.346 0.291016H135.175L135.758 9.12605L138.41 35.8279L134.503 41.0502Z" fill="#005C83"/>
<path d="M16.4339 59.2598L0.046875 49.6558V13.2246L29.4269 35.8309L16.4339 59.2598Z" fill="#005C83"/>
</svg>
