<svg width="318" height="236" viewBox="0 0 318 236" fill="none" xmlns="http://www.w3.org/2000/svg">
<path d="M293.135 75.7581C255.603 9.50076 199.77 -45.2712 34.8547 55.4422C-33.7467 97.337 17.012 137.479 34.8547 196.365C42.9303 223.026 88.0423 247.781 189.493 228.913C362.819 196.674 319.445 122.21 293.135 75.7581Z" fill="#A19172"/>
<path d="M175.99 74.5834C172.804 100.013 173.598 121.118 172.468 137.021C170.514 164.616 173.675 176.56 141.863 177.57C118.285 178.318 114.253 177.22 92.7746 177.446C59.8792 177.792 58.8684 160.471 56.5324 136.675C54.877 119.829 56.1147 98.9872 53.2836 76.9289C51.1847 60.5875 78.3716 62.531 77.3918 75.8927C76.2985 90.8062 75.7107 122.906 76.9174 141.248C78.1395 159.863 106.91 159.213 106.641 140.547C106.28 115.591 103.46 87.775 102.815 77.1454C102.036 64.3249 129.589 60.4844 126.856 78.13C123.081 102.529 122.215 128.355 124.035 140.861C126.593 158.424 153.192 162.615 153.285 141.769C153.388 117.715 152.718 91.1619 150.418 76.3928C148.525 64.2888 177.806 60.1029 175.99 74.5834Z" fill="#673D12"/>
<path d="M265.374 167.054C264.564 179.436 245.68 182.915 246.391 168.048C246.732 160.94 245.174 152.949 242.802 147.686C240.306 142.139 226.759 132.933 215.497 146.629C210.361 152.872 211.779 163.491 211.181 168.868C209.443 184.55 190.419 176.915 190.837 165.95C191.234 155.64 196.473 144.011 196.221 132.587C195.994 122.303 190.301 109.503 190.868 100.291C192.018 81.7794 213.883 92.5637 212.805 106.379C212.222 113.838 212.274 120.535 217.065 124.453C221.463 128.046 234.861 128.2 239.636 123.355C244.37 118.545 244.525 110.333 245.056 102.436C246.211 85.2642 266.704 87.5633 266.524 102.745C266.441 109.415 259.227 124.442 259.32 135.051C259.454 150.161 265.724 161.656 265.374 167.054Z" fill="#673D12"/>
</svg>
