<svg width="330" height="172" viewBox="0 0 330 172" fill="none" xmlns="http://www.w3.org/2000/svg">
<path d="M214.436 153.735C213.79 170.468 242.827 182.126 245.503 158.195C246.426 149.982 244.242 133.771 252.085 124.235C269.28 103.318 289.95 117.376 293.764 125.866C297.393 133.894 299.762 146.106 299.239 156.964C298.162 179.666 326.983 174.344 328.214 155.457C328.737 147.213 319.171 129.649 318.986 106.579C318.863 90.368 329.875 67.4206 329.998 57.2389C330.275 34.0455 298.993 30.5388 297.239 56.7775C296.44 68.8356 296.194 81.3859 288.965 88.7377C281.675 96.1509 261.221 95.9048 254.515 90.4295C247.195 84.4312 247.133 74.2187 248.025 62.8373C249.655 41.7356 216.282 25.2788 214.529 53.5477C213.667 67.6052 222.341 87.1689 222.711 102.857C223.049 120.236 215.052 137.985 214.436 153.735Z" fill="#B77813"/>
<path d="M0.175971 17.8027C-3.02296 -7.14401 38.4709 -4.19101 36.9944 16.2339C35.3334 38.9967 34.4414 88.0289 36.2562 116.052C38.1325 144.474 82.0255 143.49 81.6256 114.975C81.072 76.8628 76.7657 34.3826 75.7814 18.1411C74.5818 -1.45332 116.66 -7.29782 112.477 19.6484C106.725 56.8993 105.402 96.3342 108.171 115.436C112.077 142.26 152.679 148.658 152.833 116.821C152.986 80.0927 151.971 39.5504 148.465 16.9722C145.573 -1.51485 190.297 -7.91302 187.498 14.2038C182.638 53.0542 183.838 85.2605 182.115 109.561C179.131 151.703 183.961 169.944 135.392 171.482C99.4043 172.62 93.2525 170.959 60.4635 171.297C10.2341 171.82 8.6962 145.366 5.12816 109.038C2.60593 83.3225 4.48222 51.4855 0.175971 17.8027Z" fill="#B77813"/>
</svg>
