<svg width="678" height="88" viewBox="0 0 678 88" fill="none" xmlns="http://www.w3.org/2000/svg">
<g clip-path="url(#clip0)">
<path d="M382.541 75.8968C382.188 86.5326 398.125 93.9198 399.582 78.7226C400.09 73.516 398.898 63.2139 403.202 57.1618C412.628 43.8781 423.974 52.8006 426.071 58.1853C428.057 63.2807 429.36 71.0239 429.073 77.9216C428.477 92.34 444.304 88.9579 444.966 76.9648C445.253 71.7359 441.191 60.5884 441.081 45.9474C441.015 35.6676 445.871 21.0935 445.937 14.6185C446.092 -0.0891466 428.918 -2.33646 427.969 14.307C427.528 21.9612 427.395 29.927 423.422 34.5774C419.426 39.2722 408.213 39.1387 404.527 35.6454C400.509 31.8405 400.465 25.3433 400.951 18.1119C401.856 4.71699 383.534 -5.74081 382.585 12.2155C382.099 21.138 386.867 33.5538 387.066 43.5221C387.243 54.6252 382.872 65.9063 382.541 75.8968Z" fill="#B77813"/>
<path d="M360.484 41.2086C361.014 20.2262 354.193 1.09067 329.294 0.423151C304.417 -0.222117 296.779 17.6896 292.784 40.3185C288.545 64.327 298.302 86.8446 325.299 87.3787C355.783 88.0239 359.91 63.5037 360.484 41.2086ZM325.1 71.9145C307.22 71.1357 304.946 55.6047 307.507 41.4978C310.068 27.3909 313.312 17.0889 325.652 17.1556C340.596 16.2656 346.357 28.7037 346.357 42.4101C346.357 57.7853 343.002 72.6932 325.1 71.9145Z" fill="#B77813"/>
<path d="M112.223 77.4102C112.201 89.7816 130.721 91.7841 130.941 77.0987C131.206 59.4317 121.472 30.5281 142.817 21.5388C162.088 13.4174 157.364 69.8672 157.695 77.0764C158.357 90.9831 173.743 90.5158 174.427 76.6982C174.979 65.1501 172.992 49.7527 172.131 36.9363C171.204 22.5846 169.791 -3.71564 143.634 4.11659C117.3 11.9711 114.165 23.4301 114.342 33.6209C114.651 52.3782 112.245 62.0573 112.223 77.4102Z" fill="#B77813"/>
<path d="M522.09 24.7647C521.56 5.56243 516.726 3.78238 495.778 2.75885C485.889 2.26934 469.046 9.10028 470.238 25.2542C471.011 35.9123 473.24 40.9187 482.092 46.6816C493.107 53.8686 470.393 72.8706 468.362 79.4346C465.36 89.1358 479.289 89.0023 482.909 82.9947C486.86 76.4307 493.46 66.9964 496.065 60.6328C500.943 48.6619 506.175 47.6384 507.874 59.3422C508.934 66.7294 509.044 73.1821 508.934 77.3207C508.492 94.4315 525.798 86.132 524.673 78.9228C521.45 57.8959 522.62 43.9893 522.09 24.7647ZM492.268 35.6453C476.551 30.6167 482.6 17.1328 497.632 16.1315C502.709 15.7977 505.203 13.8842 508.603 20.4926C513.967 30.9504 507.985 40.6962 492.268 35.6453Z" fill="#B77813"/>
<path d="M539.728 75.8968C539.375 86.5326 555.313 93.9198 556.77 78.7226C557.277 73.516 556.085 63.2139 560.39 57.1618C569.815 43.8781 581.161 52.8006 583.258 58.1853C585.245 63.2807 586.547 71.0239 586.26 77.9216C585.664 92.34 601.491 88.9579 602.153 76.9648C602.44 71.7359 598.268 60.5884 598.158 45.9474C598.092 35.6676 603.059 21.0935 603.125 14.6185C603.279 -0.0891466 586.106 -2.33646 585.157 14.307C584.715 21.9612 584.583 29.927 580.609 34.5774C576.614 39.2722 565.4 39.1387 561.714 35.6454C557.697 31.8405 557.652 25.3433 558.138 18.1119C559.043 4.71699 540.722 -5.74081 539.773 12.2155C539.287 21.138 544.055 33.5538 544.254 43.5221C544.452 54.6252 540.06 65.9063 539.728 75.8968Z" fill="#B77813"/>
<path d="M675.348 24.7647C674.818 5.56243 669.984 3.78238 649.036 2.75885C639.147 2.26934 622.304 9.10028 623.496 25.2542C624.269 35.9123 626.498 40.9187 635.35 46.6816C646.365 53.8686 623.651 72.8706 621.62 79.4346C618.618 89.1358 632.546 89.0023 636.167 82.9947C640.118 76.4307 646.718 66.9964 649.323 60.6328C654.201 48.6619 659.432 47.6384 661.132 59.3422C662.192 66.7294 662.302 73.1821 662.192 77.3207C661.75 94.4315 679.056 86.132 677.93 78.9228C674.708 57.8959 675.9 43.9893 675.348 24.7647ZM645.526 35.6453C629.809 30.6167 635.857 17.1328 650.89 16.1315C655.967 15.7977 658.461 13.8842 661.861 20.4926C667.224 30.9504 661.242 40.6962 645.526 35.6453Z" fill="#B77813"/>
<path d="M0.0863877 11.4607C-1.48086 -0.843922 18.8051 0.624621 18.0766 10.6819C17.2599 21.8962 16.8184 46.0604 17.7234 59.8781C18.6285 73.896 40.1064 73.4065 39.9077 59.3441C39.6428 40.5645 39.4662 18.5586 37.612 11.0379C35.3163 1.6704 57.611 -1.48919 55.5802 11.7944C52.7547 30.1735 51.5407 50.1768 52.9092 59.5888C54.8076 72.8057 74.6741 75.9653 74.7403 60.2786C74.8286 42.1666 74.3209 22.1855 72.5992 11.0602C71.1864 1.95966 93.0617 -1.19993 91.6931 9.70288C89.3091 28.8384 89.9051 44.7254 89.0663 56.6962C87.6094 77.4783 89.9713 86.4676 66.2198 87.2241C48.6269 87.7804 45.6028 86.9571 29.5771 87.1351C5.00887 87.3799 4.25836 74.341 2.51452 56.4292C1.27838 43.7464 2.20548 28.0597 0.0863877 11.4607Z" fill="#B77813"/>
<path d="M198.594 15.7969C199.543 6.11785 217.025 -6.92102 217.666 13.7943C218.571 42.5867 213.118 75.6956 229.541 44.7227C244.287 16.9094 245.302 5.58384 254.926 3.35878C267.067 0.555195 269.385 13.6831 268.833 30.5491C268.281 47.6375 276.007 87.1769 261.085 87.4217C245.214 87.6664 254.154 48.9726 252.962 34.8879C252.233 26.2102 247.885 34.0424 244.993 42.2306C231.175 81.2583 205.017 104.043 200.934 72.714C196.828 40.8956 197.556 26.4772 198.594 15.7969Z" fill="#B77813"/>
</g>
<defs>
<clipPath id="clip0">
<rect width="678" height="87" fill="white" transform="translate(0 0.423828)"/>
</clipPath>
</defs>
</svg>
