<svg width="329" height="442" viewBox="0 0 329 442" fill="none" xmlns="http://www.w3.org/2000/svg">
<path d="M143.231 1.06348H85.1914L304.287 221.681L143.231 1.06348Z" fill="#005C83"/>
<path d="M0 38.2344V83.7706L304.291 221.682L0 38.2344Z" fill="#005C83"/>
<path d="M3.32812 137.785V176.555L304.289 221.682L3.32812 137.785Z" fill="#005C83"/>
<path d="M0 263.73V299.263L304.291 224.818L0 263.73Z" fill="#005C83"/>
<path d="M0 360.696V406.936L304.291 221.682L0 360.696Z" fill="#005C83"/>
<path d="M85.3008 441.775L143.92 441.954L304.292 221.682L85.3008 441.775Z" fill="#005C83"/>
<path d="M52.2259 0.833984V16.6097H18.8801V212.642H0V0.833984H52.2259Z" fill="#C5212C"/>
<path d="M52.2259 230.143V245.918H18.8801V441.951H0V230.143H52.2259Z" fill="#C5212C"/>
<path d="M114.199 255.529V416.238C114.199 429.874 106.999 441.789 86.4154 441.789C65.4013 441.789 58.4883 429.874 58.4883 416.238V255.529C58.4883 241.893 65.3983 229.98 86.4154 229.98C106.999 229.98 114.199 241.893 114.199 255.529ZM76.9141 253.232V418.535C76.9141 425.568 80.946 427.865 86.4154 427.865C92.1748 427.865 95.7733 425.856 95.7733 418.535V253.232C95.7733 245.914 92.1748 243.902 86.4154 243.902C80.946 243.902 76.9141 246.053 76.9141 253.232Z" fill="#C5212C"/>
<path d="M86.4154 0.833984C65.4013 0.833984 58.4883 12.7339 58.4883 26.3611V187.1C58.4883 200.724 65.3983 212.627 86.4154 212.627C106.999 212.627 114.199 200.724 114.199 187.1V26.3611C114.199 12.737 106.999 0.833984 86.4154 0.833984ZM97.0525 189.397C97.0525 196.709 92.7427 198.718 86.9833 198.718C81.5138 198.718 76.9141 196.424 76.9141 189.397V24.0642C76.9141 16.8945 80.8742 14.743 86.3437 14.743C92.1031 14.743 95.7942 16.7521 95.7942 24.0642L97.0525 189.397Z" fill="#C5212C"/>
<path d="M165.175 230.128C159.122 230.128 153.067 233.713 150.392 240.882V232.134H133.078V441.937H150.392V383.422C153.351 390.449 158.557 394.037 165.175 394.037C175.731 394.037 185.304 387.009 185.304 371.952V252.073C185.307 236.295 175.731 230.128 165.175 230.128ZM169.272 370.946C169.272 377.113 164.338 380.125 159.834 380.125C155.47 380.125 150.395 377.113 150.395 370.658V254.079C150.395 247.625 154.833 244.613 159.194 244.613C163.698 244.613 169.272 247.625 169.272 253.792V370.946Z" fill="#C5212C"/>
<path d="M321.707 409.496V0H274.15V28.5332C274.15 48.8453 272.192 400.65 267.577 409.493H262.682V441.135H278.905V422.896H311.775V441.135H328.001V409.493H321.707V409.496ZM304.501 409.496H284.918C288.556 401.48 290.654 52.0241 290.654 34.3393V13.406H304.501V409.496V409.496Z" fill="#C5212C"/>
<path d="M230.371 0C210.669 0 204.189 11.903 204.189 25.5272V415.595C204.189 429.22 210.669 441.126 230.371 441.126C249.67 441.126 256.418 429.22 256.418 415.595V25.5272C256.418 11.903 249.67 0 230.371 0ZM240.357 417.892C240.357 425.205 236.31 427.214 230.912 427.214C225.783 427.214 221.468 424.92 221.468 417.892V23.2302C221.468 16.0605 225.786 13.909 230.912 13.909C236.31 13.909 240.357 15.9181 240.357 23.2302V417.892Z" fill="#C5212C"/>
<path d="M150.389 0.819336V11.5738C153.064 4.40416 159.119 0.819336 165.172 0.819336C175.728 0.819336 185.304 6.98597 185.304 22.7616V142.64C185.304 157.697 175.731 164.725 165.175 164.725C158.557 164.725 153.351 161.137 150.392 154.109V212.627H133.078V0.819336H150.389ZM150.389 24.7707V141.349C150.389 147.803 155.467 150.815 159.828 150.815C164.332 150.815 169.266 147.803 169.266 141.637V24.4828C169.266 18.3162 164.332 15.3041 159.828 15.3041C155.467 15.3041 150.389 18.3162 150.389 24.7707Z" fill="#C5212C"/>
<path d="M304.484 328.296C249.093 328.296 204.189 282.769 204.189 226.608C204.189 170.448 249.093 124.921 304.484 124.921V328.296Z" fill="#C5212C"/>
<path d="M304.487 143.171C268.708 143.171 239.705 172.577 239.705 208.853C239.705 245.128 268.708 274.534 304.487 274.534V143.171Z" fill="white"/>
<path d="M78.5212 119.356L82.831 111.262L82.024 87.6831L56.6881 72.4072L54.7305 81.8285L56.9452 109.577L78.5212 119.356Z" fill="#005C83"/>
<path d="M130.967 195.691L129.744 183.864L131.4 173.376L154.258 179.855L152.142 186.218L152.889 199.039L130.967 195.691Z" fill="#005C83"/>
<path d="M52.2266 265.325L58.491 256.252L76.9138 253.895L82.195 263.088L76.9138 280.446L58.491 284.955L55.6039 274.51L52.2266 265.325Z" fill="#005C83"/>
<path d="M168.957 304.07L167.057 302.164L169.268 283.864L185.539 275.928L187.805 279.873L185.886 293.764L168.957 304.07Z" fill="#005C83"/>
<path d="M169.271 84.8179L168.145 66.7514L168.706 40.5L185.306 62.6787L188.426 81.3482L185.306 101.069L169.271 84.8179Z" fill="#005C83"/>
</svg>
