<svg width="318" height="199" viewBox="0 0 318 199" fill="none" xmlns="http://www.w3.org/2000/svg">
<g clip-path="url(#clip0)">
<path d="M74.8789 114.195H84.7715C82.9458 113.069 81.1124 112.181 79.2867 111.584C77.9345 111.14 76.4602 110.749 74.8865 110.412V114.195H74.8789Z" fill="#673C0E"/>
<path d="M56.0242 130.307V108.721C18.9899 108.859 -30.2135 125.72 24.1998 160.944C24.1998 160.944 31.1284 170.608 86.6188 189.46C128.366 203.649 120.177 157.988 100.743 130.307H56.0242V130.307Z" fill="#673C0E"/>
<path d="M151.033 96.1584C141.385 93.4171 131.653 88.1029 122.387 78.8145V114.192H151.033V96.1584Z" fill="#B77813"/>
<path d="M226.031 93.1133H205.054V130.313H186.201V96.9803C181.014 97.9374 175.529 98.5806 169.884 98.6189V130.313H110.566C128.488 147.626 153.07 168.5 175.468 176.41C204.214 186.564 230.202 112.264 226.031 93.1133Z" fill="#B77813"/>
<path d="M94.6092 114.194H103.524V65.6765C81.6075 59.1295 79.1247 97.7839 90.8431 110.212C91.9584 111.399 93.2341 112.746 94.6092 114.194Z" fill="#B77813"/>
<path d="M259.088 103.045V130.305H240.235V103.083C235.636 108.512 231.587 118.934 228.807 136.109C228.425 138.476 231.029 156.447 213.887 169.044C196.745 181.64 182.735 205.378 218.44 197.384C254.145 189.397 248.821 195.561 272.349 171.578C285.955 157.711 274.267 116.958 259.088 103.045Z" fill="#94763D"/>
<path d="M56.0252 44.037H74.8784V68.6172C86.276 55.0636 95.9318 52.4065 103.525 54.0682V44.037H122.378V68.3109C141.339 85.6549 160.902 89.2232 140.643 52.2763C120.331 15.2299 132.416 -8.07912 101.707 2.59527C71.0054 13.2697 39.8608 23.408 35.8045 39.8791C31.7481 56.3501 27.2334 74.5976 31.1752 91.0993C31.4578 92.2708 31.2516 118.658 56.0252 92.1407V44.037Z" fill="#94763D"/>
<path d="M317.291 70.484C308.384 36.7609 275.276 36.6461 207.112 21.8214C138.949 6.9967 158.833 57.8494 165.273 78.9914C170.307 95.493 181.521 90.8756 186.204 88.0577V44.0354H205.057V76.5027H211.772C221.863 73.3096 232.657 71.7169 238.501 76.5027H240.235V44.0354H259.089V94.0075C283.473 101.19 323.868 95.3858 317.291 70.484Z" fill="#A19172"/>
</g>
<defs>
<clipPath id="clip0">
<rect width="318" height="199" fill="white"/>
</clipPath>
</defs>
</svg>
