<svg width="341" height="239" viewBox="0 0 341 239" fill="none" xmlns="http://www.w3.org/2000/svg">
<path d="M0 43.7191L227.401 80.7794L0 13.4395V43.7191Z" fill="#005C83"/>
<path d="M2.88281 124.522L227.402 80.7793L2.88281 95.6182V124.522Z" fill="#005C83"/>
<path d="M5.7793 215.189L227.404 80.7793L5.7793 179.59V215.189Z" fill="#005C83"/>
<path d="M84.4844 0L227.399 80.7783L118.887 0H84.4844Z" fill="#005C83"/>
<path d="M158.486 0L227.401 80.7783L174.241 0H158.486Z" fill="#005C83"/>
<path d="M197.041 0L227.399 80.7783L207.952 0H197.041Z" fill="#005C83"/>
<path d="M101.051 238.34L227.4 80.7754L65.0137 238.34H101.051Z" fill="#005C83"/>
<path d="M173.537 238.34L227.399 80.7754L150.723 238.34H173.537Z" fill="#005C83"/>
<path d="M18.6937 20.0072V68.3317H12.082V13.2266H37.5359V20.0195H18.6937V20.0072Z" fill="#C5212C"/>
<path d="M45.7227 68.3317V13.2266H80.428V68.3317H45.7227V68.3317ZM73.8163 20.0072H52.3344V61.5387H73.8163V20.0072V20.0072Z" fill="#C5212C"/>
<path d="M97.1898 44.1694V68.3317H90.5781V13.2266H125.284V44.1817H97.1898V44.1694ZM118.672 20.0072H97.1898V37.4502H118.672V20.0072Z" fill="#C5212C"/>
<path d="M18.6937 85.8418V134.166H12.082V79.0488H37.5359V85.8418H18.6937Z" fill="#C5212C"/>
<path d="M45.7227 134.154V79.0488H80.428V134.154H45.7227ZM73.8163 85.8418H52.3344V127.373H73.8163V85.8418V85.8418Z" fill="#C5212C"/>
<path d="M97.2019 109.992V134.154H90.5781V79.0488H125.284V110.004H97.2019V109.992ZM118.684 85.8418H97.2019V103.285H118.684V85.8418V85.8418Z" fill="#C5212C"/>
<path d="M12.082 225.115V144.668H60.8342V225.115H12.082ZM51.5463 154.581H21.3699V215.202H51.5463V154.581Z" fill="#C5212C"/>
<path d="M130.188 224.918H121.699V214.6H79.3168V224.918H70.8281V205.977H77.7425L90.5905 144.656H110.438L123.286 205.977H130.2V224.918H130.188ZM103.33 150.884H97.5897L86.1343 205.989H114.979L103.33 150.884Z" fill="#C5212C"/>
<path d="M255.277 238.343H0V0H255.277V238.343ZM5.42498 232.84H249.864V5.50315H5.42498V232.84Z" fill="#C5212C"/>
<path d="M252.675 178.435C301.248 178.435 340.625 138.491 340.625 89.2175C340.625 39.944 301.248 0 252.675 0C204.101 0 164.725 39.944 164.725 89.2175C164.725 138.491 204.101 178.435 252.675 178.435Z" fill="#C5212C"/>
<path d="M223.032 113.462C245.082 113.462 262.956 95.3301 262.956 72.9627C262.956 50.5953 245.082 32.4629 223.032 32.4629C200.982 32.4629 183.107 50.5953 183.107 72.9627C183.107 95.3301 200.982 113.462 223.032 113.462Z" fill="white"/>
<path d="M12.0867 211.366L7.76367 197.546L12.0867 176.774L21.3746 172.635L32.612 187.498L21.3746 205.727L12.0867 211.366Z" fill="#005C83"/>
<path d="M52.3363 114.892L45.7246 116.182L36.4609 94.5627L45.7246 92.7815L52.3363 92.3516L63.0772 99.3656L52.3363 114.892Z" fill="#005C83"/>
<path d="M22.2054 20.009L12.082 17.0117V45.6822L18.6937 46.7632L22.2054 20.009Z" fill="#005C83"/>
<path d="M97.8804 59.6753L89.5371 57.845V39.9473L103.79 44.1729L97.8804 46.7648V59.6753Z" fill="#005C83"/>
</svg>
