<svg width="318" height="182" viewBox="0 0 318 182" fill="none" xmlns="http://www.w3.org/2000/svg">
<g clip-path="url(#clip0)">
<path d="M2.41256 93.3331C2.47514 89.6975 3.47632 83.3979 10.5159 91.2333C19.9019 101.67 10.9539 102.986 5.9167 110.289C-0.340682 119.347 2.38128 95.1823 2.41256 93.3331Z" fill="#94763D"/>
<path d="M5.28952 116.811C5.28952 116.811 21.8716 96.3139 27.5032 102.958C33.1349 109.571 25.5009 114.241 36.5764 113.019C47.652 111.797 40.1744 126.37 26.5959 125.806C13.0487 125.211 -3.12665 128.031 5.28952 116.811Z" fill="#B77813"/>
<path d="M40.3618 125.116C48.778 120.665 50.9055 125.649 44.742 129.817C38.5785 133.985 4.31935 137.746 1.81639 132.168C-0.686557 126.589 2.47342 126.683 9.38782 128.125C16.3022 129.535 32.7278 129.974 40.3618 125.116Z" fill="#A19172"/>
<path d="M42.4607 132.888C43.0551 132.669 49.2499 131.447 49.6567 126.526C50.0634 121.605 53.1295 124.551 54.5061 127.184C55.914 129.911 59.074 132.669 54.4748 134.518C49.8444 136.336 32.0734 136.837 42.4607 132.888Z" fill="#94763D"/>
<path d="M149.678 112.046C149.678 112.046 145.11 123.172 158.97 125.366C172.83 127.528 181.622 118.126 172.267 112.516C162.881 106.906 151.712 104.68 149.678 112.046Z" fill="#673C0E"/>
<path d="M156.029 66.1934C155.966 66.0367 149.114 50.648 160.002 57.6998C160.002 57.6998 169.638 61.6489 171.234 64.1875C172.83 66.7575 163.913 64.783 162.004 63.3727C160.096 61.9623 156.905 65.2531 159.501 69.1081C162.067 72.9631 158.97 72.8691 156.029 66.1934Z" fill="#A19172"/>
<path d="M222.197 58.4817C218.724 54.7834 220.445 41.4946 229.737 50.8657C239.029 60.2682 250.324 52.9969 253.922 53.3103C257.52 53.6238 250.48 77.2239 242.596 74.4345C234.712 71.6138 225.701 62.18 222.197 58.4817Z" fill="#B77813"/>
<path d="M318 26.077C317.406 23.7264 316.342 21.8459 314.621 20.5609C309.741 16.9567 305.204 8.52582 311.117 26.6725C317.03 44.7879 311.336 53.4068 311.336 53.4068C309.334 67.9806 316.28 55.8201 318.032 45.7282V26.077H318Z" fill="#673C0E"/>
<path d="M158.28 73.2453C156.153 71.8976 152.242 74.593 149.051 78.2599V90.201C149.458 90.107 149.864 90.013 150.302 89.8563C166.165 84.9983 169.168 95.2157 169.168 95.2157C171.89 101.703 174.612 99.008 170.107 87.8504C165.602 76.6928 163.912 76.8809 158.28 73.2453Z" fill="#94763D"/>
<path d="M313.119 123.017C310.96 127.686 309.865 130.1 292.783 124.552C290.999 123.957 289.498 123.612 288.277 123.487V135.867H309.052C312.806 134.488 315.716 132.325 316.436 129.41C318.532 120.603 315.309 118.347 313.119 123.017Z" fill="#94763D"/>
<path d="M150.74 46.2282C150.396 48.7041 149.739 50.4906 149.051 51.9637V68.7627C152.993 74.1221 156.81 70.9566 154.276 67.9165C153.4 66.8195 152.649 65.6286 152.179 64.3122C150.646 59.8931 149.176 51.8696 160.815 55.8187C176.521 61.1781 177.365 61.8362 173.173 52.9352C168.949 44.0343 152.273 35.4467 150.74 46.2282Z" fill="#673C0E"/>
<path d="M301.324 111.264C293.753 121.011 288.747 110.512 288.747 110.512C288.59 110.355 288.434 110.23 288.277 110.073V120.855C292.376 122.61 298.915 123.957 303.139 124.866C309.959 126.339 314.214 118.598 314.214 116.467C314.245 114.304 308.895 101.517 301.324 111.264Z" fill="#A19172"/>
<path d="M178.613 29.178C177.205 22.0008 174.076 16.7981 161.968 21.8127C155.805 24.3827 151.612 27.7049 149.016 30.8704V40.8057C150.33 40.6176 151.988 39.8341 153.99 38.2984C153.99 38.2984 155.523 32.3748 167.756 42.2474C172.387 45.977 176.047 48.6097 178.613 49.8634V29.178Z" fill="#A19172"/>
<path d="M294.781 98.6629C291.527 98.3495 289.556 95.9675 288.305 93.7109V107.752C290.463 109.726 293.248 111.199 295.939 110.855C301.195 110.197 303.385 99.4778 294.781 98.6629Z" fill="#673C0E"/>
<path d="M178.613 0.690917C178.331 0.534209 178.05 0.377502 177.768 0.189453H151.331C150.33 1.25506 149.548 2.50872 149.016 3.98177V21.345C149.86 26.0148 151.362 26.6417 154.022 24.6358C158.183 21.5017 156.055 16.8318 165.379 17.1139C174.452 17.3959 175.547 16.4243 178.582 19.9973V0.690917H178.613Z" fill="#94763D"/>
<path d="M304.734 72.3991C299.322 68.1053 300.198 74.7811 300.198 74.7811C304.922 88.2266 293.972 83.9955 293.972 83.9955C291.531 82.9925 289.654 82.3971 288.277 82.1463V90.2011C288.747 90.7966 289.153 91.298 289.435 91.6428C292.877 95.7172 313.213 103.741 313.244 94.9963C313.307 86.2834 310.147 76.6929 304.734 72.3991Z" fill="#B77813"/>
<path d="M74.5273 64.312C77.2806 71.0504 83.0374 72.8995 83.0374 72.8995C99.682 79.1051 98.3367 68.6371 91.9854 48.9233C88.669 38.6433 83.0061 20.7159 75.2469 44.3474C74.9654 45.1623 74.7464 45.9458 74.5273 46.7294V64.312V64.312Z" fill="#B77813"/>
<path d="M294.817 75.6607C291.031 77.2592 283.741 65.6315 283.741 65.6315C283.741 65.6315 279.768 62.654 279.142 65.6001C278.517 68.5776 268.254 76.7264 268.254 76.7264C268.098 76.9144 267.942 77.1025 267.785 77.2905H288.309V79.9545C289.936 80.2366 291.594 80.6127 293.19 81.1142C302.326 84.1229 298.603 74.0623 294.817 75.6607Z" fill="#94763D"/>
<path d="M74.5273 23.6928C75.9978 26.0434 78.1879 27.2657 81.1289 26.0747C92.5799 21.4675 103.593 37.2323 103.593 37.2323C103.781 37.4204 103.937 37.6084 104.093 37.7651V29.2402C103.124 26.921 102.154 24.4763 101.372 22.0944C97.2729 9.74583 90.4837 8.33546 79.94 3.63424C77.5935 2.59997 75.7788 3.35217 74.5273 5.10729V23.6928V23.6928Z" fill="#A19172"/>
<path d="M232.867 133.231V118.406C229.269 120.381 221.76 123.202 210.716 120.569C206.492 119.566 204.208 120.161 203.145 121.572V128.53C204.333 132.197 206.492 135.644 206.492 135.644C206.492 135.644 206.617 135.738 206.93 135.863H224.513C226.985 135.268 229.77 134.422 232.867 133.231Z" fill="#B77813"/>
<path d="M83.9405 2.2579C83.9405 2.2579 99.0208 4.76522 104.089 17.8033V0.220703H81.4062C81.5001 1.06692 82.3761 1.81912 83.9405 2.2579Z" fill="#94763D"/>
<path d="M232.869 110.731C232.306 109.571 231.523 108.161 230.491 106.406C222.763 93.3675 208.183 89.1364 206.901 102.425C206.838 103.209 204.804 121.543 218.664 118.19C225.829 116.466 230.804 116.842 232.9 115.839V110.731H232.869Z" fill="#94763D"/>
<path d="M101.436 114.805C98.62 116.685 98.7452 122.609 107.443 120.101C110.634 119.192 113.168 115.149 114.451 110.166H104.502C103.845 112.297 102.687 113.99 101.436 114.805Z" fill="#B77813"/>
<path d="M86.1669 93.8361C98.6191 91.4855 100.997 94.6823 104 101.076C104.032 101.17 104.063 101.264 104.126 101.358V86.0634C92.9561 81.3308 80.0972 74.7805 80.0659 81.1114C80.0034 88.1633 71.7749 96.5628 86.1669 93.8361Z" fill="#B77813"/>
<path d="M232.867 93.1155C232.116 92.4573 231.334 91.8305 230.489 91.2036C218.913 82.7101 210.403 79.6386 204.646 80.4849C204.146 80.5475 203.645 80.861 203.145 81.3311V97.2839C203.238 97.1585 203.332 97.0332 203.426 96.9078C213.594 82.146 232.054 100.355 232.867 101.17V93.1155V93.1155Z" fill="#A19172"/>
<path d="M117.045 131.762C127.245 122.39 109.192 122.735 104.217 123.487C101.308 123.926 99.1489 124.146 95.4571 117.25C91.7652 110.324 89.7629 116.185 88.5427 122.735C87.3225 129.286 81.7847 130.571 81.7847 130.571C78.1867 132.576 77.0291 134.206 77.5923 135.46H110.131C113.009 134.457 115.418 133.235 117.045 131.762Z" fill="#94763D"/>
<path d="M267.972 73.152C267.972 73.152 276.982 66.1629 279.579 56.8231C280.33 54.0651 279.923 52.2786 278.922 51.1816H271.476C270.975 51.6204 270.662 52.1846 270.6 52.7801C270.224 56.6664 266.751 58.5782 263.81 58.1708C260.869 57.7634 257.49 55.1307 257.271 59.8632C257.084 64.5958 250.952 73.4341 250.764 73.7475C249.888 75.1892 249.325 76.3802 249.012 77.3204H260.338C264.436 75.3146 267.972 73.152 267.972 73.152Z" fill="#A19172"/>
<path d="M76.2463 121.699C74.7758 110.917 58.5379 115.524 52.9063 112.986C47.2746 110.447 40.2664 121.824 47.9942 120.79C55.7221 119.724 57.7557 130.662 57.7557 130.662C58.225 132.856 59.0072 134.392 59.9771 135.458H69.1442C73.3679 132.637 76.9659 126.933 76.2463 121.699Z" fill="#673C0E"/>
<path d="M222.073 62.2447C217.568 60.7717 207.994 61.3358 203.145 64.0939V73.0889C204.114 73.9664 205.335 74.9067 206.836 75.8783C206.836 75.8783 208.745 78.5423 224.107 83.745C239.437 88.979 230.395 64.9714 222.073 62.2447Z" fill="#673C0E"/>
<path d="M70.0842 112.486C70.0842 112.486 77.4366 112.047 78.2501 121.199C79.1887 131.667 83.9756 126.37 85.227 122.703C86.4785 119.036 86.2282 103.553 94.2377 110.48C102.216 117.406 102.842 106.594 99.7442 100.263C96.6468 93.963 85.9154 97.724 76.0913 99.0716C75.5594 99.1343 75.0588 99.2284 74.5269 99.291V110.167H58.3203C60.1975 111.702 64.2023 112.674 70.0842 112.486Z" fill="#A19172"/>
<path d="M255.677 52.122C256.834 55.6636 269.099 56.1024 269.286 51.1504H254.988C255.27 51.3698 255.52 51.6832 255.677 52.122Z" fill="#673C0E"/>
<path d="M246.04 52.9995C246.04 52.9995 248.136 51.8399 250.358 51.1504H241.754C241.816 51.3071 241.848 51.4951 241.91 51.6205C243.068 55.4128 246.04 52.9995 246.04 52.9995Z" fill="#673C0E"/>
<path d="M23.7775 94.4309C26.0928 97.5024 27.97 98.2546 29.5969 97.377V70.9248C28.2516 70.3607 26.7185 69.5771 24.9664 68.3548C18.3649 63.6849 17.6453 71.1442 16.7067 77.0991C16.2061 80.2959 12.5455 83.6181 12.0762 86.9717C11.2941 92.4878 18.2398 87.097 23.7775 94.4309Z" fill="#A19172"/>
<path d="M219.699 24.1003C216.633 22.5018 212.159 18.2394 210.814 17.2678C207.091 14.5724 204.682 15.4813 203.117 17.8946V39.0188C206.715 37.9845 212.597 32.0923 215.444 31.5595C219.981 30.682 229.68 29.3029 219.699 24.1003Z" fill="#94763D"/>
<path d="M0 79.5455C2.81582 89.1673 11.5762 84.8108 9.51122 79.044C7.13341 72.4936 11.2633 79.2947 16.363 62.5584C20.8996 47.6398 3.78571 55.7886 0 57.7318V79.5455Z" fill="#94763D"/>
<path d="M232.874 35.3543C231.654 30.9351 231.184 28.9293 225.772 30.7784C217.512 33.6618 209.127 36.3885 208.032 40.8077C206.937 45.2268 205.717 50.1474 206.781 54.5979C206.875 54.974 206.781 64.5959 217.45 49.9594C225.271 39.2093 230.308 47.5148 231.31 48.4237C231.841 48.8938 232.373 49.3639 232.874 49.74V35.3543Z" fill="#94763D"/>
<path d="M238.442 51.1504H234.969C236.658 52.0593 238.035 52.1847 238.442 51.1504Z" fill="#94763D"/>
<path d="M0 51.9626C2.90968 52.8715 7.13341 52.5894 12.1393 50.6149C25.624 45.3495 11.0756 64.0917 28.9404 66.0349C29.1594 66.0662 29.3784 66.0662 29.5974 66.0976V45.5062C25.2172 45.757 21.4941 44.1272 20.3678 37.4201C17.6458 21.0599 4.09858 33.5651 0.0312869 37.7335V51.9626H0Z" fill="#A19172"/>
<path d="M232.865 0H215.345C214.375 0.438781 213.436 0.877562 212.56 1.285C204.645 4.88927 208.243 8.36818 211.121 10.5621C214 12.756 214.281 13.5082 215.188 16.611C218.004 23.7568 218.004 19.2123 225.67 25.6687C229.643 29.0222 231.802 25.5747 232.897 19.9018V0H232.865Z" fill="#A19172"/>
<path d="M0 0.220703V26.6416C4.66175 27.7072 13.0466 26.1401 20.2113 24.7297C29.222 22.9746 16.3318 36.1067 29.5661 37.8305V2.66534C27.9705 1.78778 26.2497 0.972899 24.4664 0.220703H0Z" fill="#94763D"/>
<path d="M210.904 0H203.145V12.0978C204.552 12.8814 206.179 13.5082 208.088 13.9783C215.472 14.4484 206.461 12.0665 205.647 5.95488C205.116 2.13122 207.681 1.41037 210.904 0Z" fill="#B77813"/>
<path d="M147.268 119.883C145.328 110.982 143.795 111.232 128.59 112.361C113.353 113.489 128.183 117.971 128.183 117.971C145.704 122.296 141.981 127.091 142.982 132.576C143.201 133.798 143.795 134.738 144.64 135.459H160.784C160.847 133.359 159.188 130.225 158.688 128.188C157.906 124.897 149.239 128.783 147.268 119.883Z" fill="#A19172"/>
<path d="M138.408 135.457C139.535 133.452 139.691 130.631 138.784 126.933C136.5 117.718 108.748 116.684 116.883 120.821C116.883 120.821 122.984 122.419 122.859 127.904C122.765 131.164 121.607 133.671 121.545 135.489H138.408V135.457Z" fill="#94763D"/>
<path d="M178.426 135.456C178.489 135.393 178.551 135.331 178.582 135.268V123.107C177.206 123.985 175.203 125.489 171.95 126.492C166.224 128.31 156.588 127.934 164.503 130.097C164.691 130.159 168.758 131.1 166.819 135.456H178.426V135.456Z" fill="#B77813"/>
<path d="M178.62 66.6295C177.931 65.6893 177.18 64.9057 176.336 64.3416C169.234 59.6717 180.497 73.9007 167.325 67.225C154.153 60.5806 162.601 72.9292 169.077 78.79C169.421 79.1034 173.676 85.309 174.396 92.6743C174.74 96.1219 176.617 96.686 178.62 96.0905V66.6295V66.6295Z" fill="#94763D"/>
<path d="M92.9817 76.848C84.5029 78.0703 98.0501 82.4895 104.089 81.2985V44.4409C102.712 41.5261 100.178 38.0786 95.422 33.0639C82.1877 19.0856 94.2331 47.6064 96.2355 53.8433C98.3004 60.2683 103.588 75.3123 92.9817 76.848Z" fill="#94763D"/>
<path d="M178.617 99.1C175.05 101.294 170.858 103.55 168.167 100.197C162.723 93.3645 170.576 90.7632 152.868 92.1422C151.303 92.2676 150.052 92.4556 149.051 92.7063V99.4448C151.929 101.576 155.621 103.331 155.621 103.331C162.41 106.747 167.228 105.964 174.894 110.571C176.302 111.417 177.553 111.856 178.648 111.95V99.1H178.617Z" fill="#A19172"/>
<path d="M317.997 3.38488C315.556 2.57 313.053 1.53573 309.737 0H290.151C289.088 4.51317 289.526 9.93525 289.557 10.1233C290.871 20.8107 304.95 18.1154 305.294 15.5454C305.638 12.9754 307.078 10.8442 313.147 14.8559C314.931 16.0468 316.651 15.6707 318.028 14.5738V3.38488H317.997Z" fill="#A19172"/>
<path d="M288.277 20.0918V33.3493C288.809 33.7881 289.372 34.2268 289.967 34.6656C290.561 35.1044 295.098 34.979 299.728 46.4814C304.359 57.9837 307.675 63.155 310.022 49.7409C312.337 36.3267 312.806 39.2101 308.426 27.3004C306.173 21.2201 295.286 18.7442 288.277 20.0918Z" fill="#94763D"/>
<path d="M288.28 38.0162V51.1483H284.307C282.649 62.1178 284.714 67.1638 293.38 72.3978C302.078 77.6319 302.391 59.6732 294.287 43.3443C291.722 38.1416 289.751 37.076 288.28 38.0162Z" fill="#A19172"/>
<path d="M317.996 67.1971C316.306 65.818 312.708 64.4077 307.421 60.3019C299.755 54.3784 304.261 68.2 304.261 68.2C308.234 75.0638 312.739 77.8532 315.618 79.765C316.713 80.4858 317.495 79.4829 317.996 77.8218V67.1971Z" fill="#94763D"/>
<path d="M318.002 90.7669C316.626 89.1685 314.999 89.6386 314.999 94.7786C314.967 104.244 311.369 98.2889 304.924 100.89C298.479 103.492 306.082 105.717 306.082 105.717C312.246 107.19 315.969 105.529 318.002 102.551V90.7669V90.7669Z" fill="#A19172"/>
<path d="M5.06815 181.593H0.28125L11.7323 154.357H15.9247L27.3757 181.593H22.3072L19.4914 174.667H7.91525L5.06815 181.593ZM17.6455 170.185L13.7033 160.532L9.72989 170.185H17.6455Z" fill="#A19172"/>
<path d="M36.2009 181.595H31.4453V154.453H46.7446V158.904H36.2009V181.595Z" fill="#A19172"/>
<path d="M67.1361 181.595H51.0859V154.453H66.7607V158.904H55.8415V165.642H65.6031V170.093H55.8415V177.113H67.1361V181.595Z" fill="#A19172"/>
<path d="M95.2094 181.595H90.4851V169.999H78.0954V181.595H73.3398V154.453H78.0954V165.548H90.4851V154.453H95.2094V181.595Z" fill="#A19172"/>
<path d="M121.517 175.388L123.331 178.961C122.487 179.87 121.266 180.591 119.671 181.187C118.075 181.751 116.417 182.033 114.665 182.033C110.535 182.033 107.156 180.748 104.559 178.209C101.962 175.639 100.68 172.254 100.68 168.054C100.68 164.011 101.9 160.689 104.372 158.025C106.812 155.393 110.191 154.076 114.54 154.076C118.013 154.076 120.735 154.985 122.8 156.834L120.672 160.376C118.826 159.153 116.792 158.558 114.54 158.558C111.943 158.558 109.847 159.436 108.189 161.159C106.53 162.883 105.717 165.202 105.717 168.086C105.717 170.938 106.593 173.226 108.314 174.981C110.066 176.736 112.318 177.614 115.103 177.614C117.449 177.551 119.608 176.83 121.517 175.388Z" fill="#A19172"/>
<path d="M133.471 158.904H124.68V154.453H147.019V158.904H138.227V181.595H133.471V158.904V158.904Z" fill="#A19172"/>
<path d="M151.18 181.562V154.514C153.964 154.389 156.561 154.326 159.001 154.326C162.005 154.326 164.226 154.922 165.697 156.113C167.167 157.304 167.918 158.933 167.918 161.033C167.918 163.948 166.635 166.017 164.039 167.208V167.302C165.509 167.678 166.667 168.43 167.511 169.495C168.356 170.561 168.794 171.94 168.794 173.633C168.794 176.265 167.887 178.271 166.072 179.681C164.258 181.092 161.817 181.781 158.72 181.781C155.622 181.75 153.088 181.687 151.18 181.562ZM158.908 158.777C157.781 158.777 156.78 158.808 155.935 158.902V165.766H159.158C160.378 165.766 161.348 165.452 162.068 164.826C162.787 164.199 163.163 163.321 163.163 162.162C163.163 161.065 162.787 160.25 162.036 159.654C161.285 159.059 160.253 158.777 158.908 158.777ZM159.314 169.903H155.935V177.08C157.155 177.205 158.188 177.268 159.064 177.268C162.38 177.268 164.007 175.952 164.007 173.35C164.007 172.222 163.601 171.345 162.756 170.78C161.911 170.216 160.785 169.903 159.314 169.903Z" fill="#A19172"/>
<path d="M173.043 168.023C173.043 164.074 174.357 160.752 176.985 158.057C179.676 155.361 183.055 154.014 187.122 154.014C191.189 154.014 194.568 155.299 197.228 157.9C199.918 160.501 201.264 163.886 201.264 168.023C201.264 172.098 199.918 175.42 197.228 178.084C194.537 180.717 191.189 182.033 187.122 182.033C183.055 182.033 179.676 180.748 177.016 178.147C174.357 175.545 173.043 172.192 173.043 168.023ZM178.08 168.023C178.08 170.781 178.956 173.038 180.677 174.856C182.398 176.674 184.557 177.582 187.153 177.582C189.938 177.582 192.159 176.674 193.786 174.856C195.444 173.038 196.258 170.781 196.258 168.023C196.258 165.265 195.382 162.977 193.63 161.16C191.878 159.373 189.719 158.496 187.153 158.496C184.557 158.496 182.366 159.373 180.646 161.16C178.925 162.946 178.08 165.234 178.08 168.023Z" fill="#A19172"/>
<path d="M236.842 181.595H232.118V169.999H219.728V181.595H214.973V154.453H219.728V165.548H232.118V154.453H236.842V181.595Z" fill="#A19172"/>
<path d="M261.305 181.593H256.581V172.222H252.67L246.6 181.593H241.25L248.164 171.25C246.725 170.53 245.568 169.527 244.692 168.242C243.816 166.957 243.409 165.452 243.409 163.729C243.409 161.002 244.347 158.777 246.193 157.021C248.039 155.235 250.855 154.357 254.547 154.357C254.61 154.357 255.736 154.389 257.957 154.42C259.084 154.451 260.21 154.451 261.274 154.451V181.593H261.305ZM252.232 167.74H256.581V158.902C255.267 158.839 254.265 158.777 253.608 158.777C252.044 158.777 250.824 159.215 249.885 160.062C248.947 160.908 248.477 162.036 248.477 163.384C248.477 164.512 248.821 165.484 249.541 166.236C250.229 167.019 251.137 167.521 252.232 167.74Z" fill="#A19172"/>
<path d="M290.682 181.595H285.958V169.999H273.568V181.595H268.812V154.453H273.568V165.548H285.958V154.453H290.682V181.595V181.595Z" fill="#A19172"/>
<path d="M298.191 154.453H302.947V163.762C304.042 163.636 305.075 163.574 306.044 163.574C309.392 163.574 311.926 164.326 313.678 165.861C315.431 167.397 316.275 169.56 316.275 172.349C316.275 175.233 315.274 177.52 313.303 179.182C311.332 180.843 308.579 181.689 305.043 181.689C303.541 181.689 302.259 181.689 301.195 181.658C300.131 181.626 299.13 181.626 298.191 181.626V154.453V154.453ZM305.669 168.024C305.2 168.024 304.292 168.087 302.947 168.212V177.082C304.637 177.176 305.544 177.207 305.575 177.207C309.33 177.207 311.238 175.609 311.238 172.443C311.238 171.001 310.737 169.904 309.768 169.152C308.798 168.4 307.421 168.024 305.669 168.024Z" fill="#A19172"/>
</g>
<defs>
<clipPath id="clip0">
<rect width="318" height="182" fill="white"/>
</clipPath>
</defs>
</svg>
