<svg width="448" height="200" viewBox="0 0 448 200" fill="none" xmlns="http://www.w3.org/2000/svg">
<path d="M355.488 140.547C394.181 140.547 425.548 109.085 425.548 70.2737C425.548 31.4626 394.181 0 355.488 0C316.795 0 285.428 31.4626 285.428 70.2737C285.428 109.085 316.795 140.547 355.488 140.547Z" fill="#C5212C"/>
<path d="M0 96.3767L345.779 61.2878L0 52.9883V96.3767Z" fill="#C5212C"/>
<path d="M0 179.53V199.83H62.4725L345.779 62.5996L0 179.53Z" fill="#C5212C"/>
<path d="M348.146 62.6016L176.941 199.832H214.99L348.146 62.6016Z" fill="#C5212C"/>
<path d="M25.1293 59.2024V69.793L13.5964 68.3991V126.496L7.20703 125.262V57.2637L25.1293 59.2024Z" fill="#005C83"/>
<path d="M39.9389 59.524C46.9673 60.2771 51.7274 67.0384 51.7274 85.3197V111.356C51.7274 129.653 46.9673 134.588 39.9389 133.226C33.1342 131.896 28.3262 125.071 28.3262 107.478V82.1634C28.3262 64.571 33.1342 58.803 39.9389 59.524ZM35.2108 81.5225V110.266C35.2108 117.572 36.6963 121.834 39.9389 122.427C42.91 122.972 44.5712 119.335 44.5712 111.836V82.9805C44.5712 75.386 42.91 70.6594 39.9389 70.307C36.6963 69.9224 35.2108 74.0241 35.2108 81.5225Z" fill="#005C83"/>
<path d="M63.8525 136.157L56.6484 134.763V62.5996L70.3697 64.0897C76.7112 64.7786 80.7206 74.9687 80.7206 86.8891C80.7206 99.114 76.5994 108.535 70.2739 107.542L63.8685 106.532V136.157H63.8525ZM63.8525 95.7334L67.5264 96.2621C71.2323 96.8068 73.0693 93.0897 73.0693 86.072C73.0693 79.1505 71.2323 75.0488 67.5264 74.6002L63.8525 74.1516V95.7334Z" fill="#005C83"/>
<path d="M107.634 68.1107V79.7589L93.6895 78.0766V141.909L85.9902 140.419V65.7715L107.634 68.1107Z" fill="#005C83"/>
<path d="M125.604 68.656C134.15 69.5693 139.949 77.0998 139.949 97.2879V126.032C139.949 146.22 134.15 151.556 125.604 149.905C117.346 148.303 111.516 140.676 111.516 121.321V93.4265C111.516 74.0716 117.33 67.7748 125.604 68.656ZM119.854 92.8337V124.51C119.854 132.569 121.659 137.296 125.604 138.001C129.214 138.658 131.243 134.684 131.243 126.417V94.5801C131.243 86.2165 129.214 80.9772 125.604 80.5446C121.659 80.0639 119.854 84.5662 119.854 92.8337Z" fill="#005C83"/>
<path d="M154.744 153.654L145.959 151.956V72.2617L162.715 74.0722C170.478 74.9054 175.398 86.2651 175.398 99.4674C175.398 113.022 170.351 123.372 162.587 122.155L154.744 120.921V153.654ZM154.744 108.969L159.233 109.625C163.769 110.282 166.022 106.213 166.022 98.442C166.022 90.7834 163.769 86.217 159.233 85.6723L154.744 85.1275V108.969Z" fill="#005C83"/>
<path d="M197.865 76.3433C207.8 77.4008 214.557 85.5882 214.557 107.379V138.414C214.557 160.204 207.8 165.876 197.865 163.953C188.265 162.079 181.508 153.779 181.508 132.934V102.908C181.508 82.0473 188.265 75.3339 197.865 76.3433ZM191.188 102.364V136.491C191.188 145.175 193.28 150.286 197.865 151.119C202.066 151.889 204.414 147.627 204.414 138.702V104.366C204.414 95.3458 202.05 89.6579 197.865 89.1612C193.28 88.6164 191.188 93.4551 191.188 102.364Z" fill="#005C83"/>
<path d="M259.978 84.5811V160.318L263.508 160.959V192.619L252.997 190.424V172.591L229.947 168.153V185.586L220.092 183.519V153.14L223.287 153.717C226.881 141.652 228.222 132.039 228.222 108.15V81.1523L259.978 84.5811ZM238.461 95.5884V115.472C238.461 135.596 236.704 145.241 233.51 155.56L249.164 158.38V96.8862L238.461 95.5884Z" fill="#005C83"/>
<path d="M340.154 109.112C364.017 109.112 383.362 89.7076 383.362 65.7716C383.362 41.8356 364.017 22.4316 340.154 22.4316C316.29 22.4316 296.945 41.8356 296.945 65.7716C296.945 89.7076 316.29 109.112 340.154 109.112Z" fill="white"/>
<path d="M112.262 141.38L199.014 112.043L201.905 132.231L117.198 173.264L112.262 141.38Z" fill="#C5212C"/>
<path d="M145.93 129.987V151.97L154.731 153.652V126.975L145.93 129.987Z" fill="#C6202B"/>
<path d="M448 192.892L274.32 192.956L274.368 183.519C273.059 176.297 274.32 167.701 274.32 160.351C274.32 158.268 275.997 156.585 278.09 156.585L303.727 160.11H304.43V146.924V116.722V116.434L304.446 116.418C304.542 115.104 305.325 113.934 306.507 113.341L319.477 106.836V75.2245C319.477 73.7985 320.276 72.4847 321.554 71.8438L342.048 61.5736C342.048 61.5736 345.834 60.2918 349.571 61.5736L370.065 71.8438C371.343 72.4847 372.142 73.7825 372.142 75.2245V75.6571V109.176V118.501L372.014 121.304L394.713 126.992V116.738V98.7291V97.8639C394.713 96.1335 395.879 94.6274 397.556 94.2108L439.854 83.6041C445.748 81.8417 448 83.6041 448 83.6041V192.892Z" fill="#005C83"/>
<path d="M28.3178 93.4895L25.123 86.3597L30.0269 58.7537L50.6168 57.2637L54.5303 90.8298L28.3178 93.4895Z" fill="#C5212C"/>
</svg>
