<svg width="523" height="433" viewBox="0 0 523 433" fill="none" xmlns="http://www.w3.org/2000/svg">
<path d="M209.353 357.67C209.353 357.67 198.178 293.052 256.505 253.376C308.031 218.332 368.936 249.128 368.936 249.128C368.936 249.128 374.755 317.017 323.229 352.066C264.903 391.737 209.353 357.67 209.353 357.67Z" fill="#C4222C"/>
<path d="M270.632 272.018C249.673 270.675 231.591 286.625 230.244 307.644C228.897 328.663 244.795 346.791 265.754 348.134C286.713 349.477 304.795 333.527 306.142 312.508C307.489 291.489 291.591 273.361 270.632 272.018Z" fill="white"/>
<path d="M14.5046 347.303C14.5046 347.303 32.2373 291.888 94.4018 284.62C149.316 278.203 184.584 327.425 184.584 327.425C184.584 327.425 161.295 383.216 106.379 389.636C44.2165 396.901 14.5046 347.303 14.5046 347.303Z" fill="#C4222C"/>
<path d="M102.833 303.965C83.8873 292.48 59.1916 298.573 47.674 317.574C36.1565 336.574 42.1786 361.287 61.1247 372.772C80.0708 384.256 104.766 378.163 116.284 359.163C127.802 340.163 121.78 315.449 102.833 303.965Z" fill="white"/>
<path d="M266.334 173.834C266.334 173.834 235.134 132.08 262.161 82.9545C286.039 39.5605 340.286 39.4334 340.286 39.4334C340.286 39.4334 368.87 85.4355 344.994 128.832C317.965 177.955 266.334 173.834 266.334 173.834Z" fill="#C4222C"/>
<path d="M276.18 87.0922C260.847 93.6923 253.783 111.508 260.402 126.885C267.021 142.262 284.817 149.377 300.149 142.777C315.482 136.177 322.546 118.361 315.927 102.984C309.308 87.607 291.513 80.492 276.18 87.0922Z" fill="white"/>
<path d="M453.81 247.343C453.81 247.343 389.151 237.345 370.066 168.674C353.21 108.011 401.603 59.4607 401.603 59.4607C401.603 59.4607 467.663 75.6456 484.522 136.31C503.604 204.979 453.81 247.343 453.81 247.343Z" fill="#C4222C"/>
<path d="M377.318 141.526C367.49 166.006 379.148 193.951 403.358 203.944C427.567 213.937 455.159 202.193 464.988 177.713C474.816 153.234 463.158 125.288 438.949 115.295C414.739 105.302 387.147 117.046 377.318 141.526Z" fill="white"/>
<path d="M150.698 223.697C150.698 223.697 157.999 189.817 194.906 181.864C227.508 174.841 251.674 201.942 251.674 201.942C251.674 201.942 241.058 236.37 208.455 243.395C171.549 251.346 150.698 223.697 150.698 223.697Z" fill="#C4222C"/>
<path d="M195.114 195.697C184.797 190.831 172.436 195.154 167.507 205.35C162.577 215.547 166.945 227.757 177.263 232.622C187.581 237.488 199.941 233.166 204.871 222.969C209.8 212.772 205.432 200.562 195.114 195.697Z" fill="white"/>
<path d="M419.876 309.273C419.876 309.273 424.621 274.942 460.829 264.249C492.814 254.806 518.94 280.023 518.94 280.023C518.94 280.023 510.93 315.148 478.944 324.594C442.737 335.284 419.876 309.273 419.876 309.273Z" fill="#C4222C"/>
<path d="M468.843 281.741C458.19 277.661 446.188 282.896 442.035 293.433C437.882 303.97 443.152 315.819 453.805 319.899C464.458 323.978 476.46 318.743 480.613 308.206C484.765 297.669 479.496 285.82 468.843 281.741Z" fill="white"/>
</svg>
