<svg width="765" height="497" viewBox="0 0 765 497" fill="none" xmlns="http://www.w3.org/2000/svg">
<path d="M497.897 109.904C497.897 109.904 485.761 190.976 400.954 215.134C326.037 236.47 265.865 175.988 265.865 175.988C265.865 175.988 285.642 93.1387 360.562 71.7983C445.367 47.6448 497.897 109.904 497.897 109.904Z" fill="#C4222C"/>
<path d="M391.516 187.46C415.859 197.292 443.586 185.471 453.445 161.058C463.304 136.645 451.563 108.884 427.22 99.0529C402.877 89.2217 375.15 101.043 365.291 125.456C355.431 149.869 367.173 177.629 391.516 187.46Z" fill="white"/>
<path d="M725.043 198.781C725.043 198.781 682.221 257.571 605.596 241.765C537.909 227.797 515.403 155.525 515.403 155.525C515.403 155.525 564.966 98.4733 632.656 112.438C709.278 128.247 725.043 198.781 725.043 198.781Z" fill="#C4222C"/>
<path d="M603.196 215.498C621.165 236.572 652.866 239.048 674.001 221.027C695.136 203.007 697.702 171.314 679.733 150.239C661.764 129.164 630.064 126.689 608.929 144.709C587.794 162.73 585.227 194.423 603.196 215.498Z" fill="white"/>
<path d="M358.028 305.661C358.028 305.661 378.642 367.472 327.262 415.145C281.873 457.255 217.45 436.086 217.45 436.086C217.45 436.086 201.609 370.262 246.999 328.148C298.379 280.479 358.028 305.661 358.028 305.661Z" fill="#C4222C"/>
<path d="M312.256 404.724C333.045 402.918 348.429 384.552 346.618 363.704C344.807 342.855 326.486 327.418 305.697 329.224C284.908 331.03 269.523 349.395 271.334 370.244C273.145 391.093 291.467 406.53 312.256 404.724Z" fill="white"/>
<path d="M229.013 151.11C229.013 151.11 277.382 217.063 233.613 294.668C194.946 363.219 109.255 363.427 109.255 363.427C109.255 363.427 65.1114 290.763 103.777 222.208C147.548 144.607 229.013 151.11 229.013 151.11Z" fill="#C4222C"/>
<path d="M203.222 312.277C233.538 299.302 247.907 264.284 235.317 234.061C222.727 203.839 187.945 189.858 157.629 202.833C127.314 215.808 112.945 250.826 125.535 281.048C138.125 311.27 172.907 325.252 203.222 312.277Z" fill="white"/>
<path d="M514.849 291.937C514.849 291.937 492.87 329.271 445.948 324.204C404.5 319.725 386.475 278.067 386.475 278.067C386.475 278.067 412.603 241.385 454.054 245.862C500.973 250.931 514.849 291.937 514.849 291.937Z" fill="#C4222C"/>
<path d="M451.134 307.706C461.466 317.535 477.832 317.264 487.689 307.101C497.547 296.938 497.162 280.732 486.83 270.903C476.499 261.075 460.132 261.346 450.275 271.509C440.418 281.672 440.803 297.878 451.134 307.706Z" fill="white"/>
<path d="M223.875 88.3995C223.875 88.3995 201.896 125.734 154.974 120.666C113.525 116.187 95.5001 74.5296 95.5001 74.5296C95.5001 74.5296 121.628 37.8477 163.079 42.3247C209.999 47.394 223.875 88.3995 223.875 88.3995Z" fill="#C4222C"/>
<path d="M154.134 96.6282C164.466 106.457 180.832 106.186 190.689 96.0228C200.547 85.86 200.162 69.6538 189.83 59.8253C179.499 49.9969 163.132 50.2679 153.275 60.4307C143.418 70.5936 143.803 86.7998 154.134 96.6282Z" fill="white"/>
</svg>
