<svg width="753" height="565" viewBox="0 0 753 565" fill="none" xmlns="http://www.w3.org/2000/svg">
<path d="M652.231 367.832C652.231 367.832 548.863 457.537 413.437 395.174C293.811 340.077 281.723 197.193 281.723 197.193C281.723 197.193 396.862 113.614 516.496 168.707C651.914 231.074 652.231 367.832 652.231 367.832Z" fill="#C4222C"/>
<path d="M346.044 320.484C371.838 369.266 432.209 388.432 480.888 363.294C529.568 338.155 548.12 278.23 522.326 229.448C496.533 180.667 436.161 161.5 387.482 186.639C338.803 211.778 320.25 271.702 346.044 320.484Z" fill="white"/>
<path d="M288.733 340.236C288.733 340.236 236.891 385.226 168.971 353.949C108.975 326.317 102.913 254.656 102.913 254.656C102.913 254.656 160.658 212.739 220.658 240.369C288.574 271.648 288.733 340.236 288.733 340.236Z" fill="#C4222C"/>
<path d="M135.171 316.491C148.107 340.956 178.385 350.569 202.799 337.961C227.213 325.353 236.517 295.299 223.581 270.834C210.645 246.368 180.367 236.756 155.953 249.364C131.539 261.971 122.234 292.025 135.171 316.491Z" fill="white"/>
<path d="M312.108 120.784C312.108 120.784 298.444 168.896 244.555 176.919C196.951 184.003 164.668 142.728 164.668 142.728C164.668 142.728 183.157 94.1345 230.763 87.0475C284.65 79.0272 312.108 120.784 312.108 120.784Z" fill="#C4222C"/>
<path d="M200.381 165.193C214.117 172.788 231.473 167.949 239.146 154.384C246.818 140.819 241.902 123.666 228.166 116.07C214.429 108.475 197.073 113.315 189.401 126.88C181.728 140.445 186.644 157.598 200.381 165.193Z" fill="white"/>
<path d="M107.822 130.022C107.822 130.022 135.653 160.13 118.251 201.266C102.878 237.603 60.2079 242.564 60.2079 242.564C60.2079 242.564 34.1006 208.874 49.4732 172.535C66.8756 131.401 107.822 130.022 107.822 130.022Z" fill="#C4222C"/>
<path d="M86.2191 220.071C97.4913 213.65 101.55 199.323 95.2843 188.071C89.0186 176.818 74.8014 172.9 63.5292 179.32C52.257 185.741 48.1985 200.068 54.4641 211.32C60.7297 222.573 74.947 226.491 86.2191 220.071Z" fill="white"/>
<path d="M336.844 13.3335C336.844 13.3335 377.784 15.5731 393.929 57.2178C408.188 94.0061 381.01 127.273 381.01 127.273C381.01 127.273 338.814 121.262 324.552 84.4729C308.41 42.8289 336.844 13.3335 336.844 13.3335Z" fill="#C4222C"/>
<path d="M378.719 84.3942C382.341 71.9379 375.281 58.8274 362.949 55.1111C350.617 51.3948 337.684 58.4799 334.061 70.9362C330.439 83.3924 337.499 96.5029 349.831 100.219C362.162 103.936 375.096 96.8504 378.719 84.3942Z" fill="white"/>
</svg>
