<svg width="750" height="533" viewBox="0 0 750 533" fill="none" xmlns="http://www.w3.org/2000/svg">
<path d="M572.399 145.628C572.399 145.628 559.688 230.549 470.854 255.854C392.38 278.202 329.353 214.85 329.353 214.85C329.353 214.85 350.069 128.067 428.544 105.713C517.376 80.4132 572.399 145.628 572.399 145.628Z" fill="#C4222C"/>
<path d="M460.968 226.866C486.467 237.164 515.51 224.782 525.837 199.21C536.165 173.638 523.866 144.559 498.367 134.261C472.868 123.963 443.825 136.345 433.498 161.917C423.17 187.489 435.469 216.568 460.968 226.866Z" fill="white"/>
<path d="M740.869 177.143C740.869 177.143 728.918 224.327 677.387 233.598C631.865 241.786 599.882 202.503 599.882 202.503C599.882 202.503 616.452 154.719 661.975 146.529C713.505 137.26 740.869 177.143 740.869 177.143Z" fill="#C4222C"/>
<path d="M669.351 217.882C685.762 226.495 706.068 220.136 714.706 203.677C723.344 187.219 717.042 166.894 700.631 158.281C684.22 149.668 663.914 156.028 655.276 172.486C646.638 188.944 652.939 209.269 669.351 217.882Z" fill="white"/>
<path d="M444.767 318.164C444.767 318.164 474.89 379.407 428.292 436.142C387.127 486.257 317.273 473.381 317.273 473.381C317.273 473.381 291.539 407.299 332.703 357.18C379.301 300.449 444.767 318.164 444.767 318.164Z" fill="#C4222C"/>
<path d="M402.401 434.601C423.723 429.791 437.098 408.557 432.275 387.174C427.451 365.79 406.256 352.355 384.934 357.164C363.611 361.974 350.236 383.208 355.06 404.591C359.883 425.975 381.079 439.41 402.401 434.601Z" fill="white"/>
<path d="M290.03 167.641C290.03 167.641 351.286 251.166 295.856 349.448C246.886 436.263 138.365 436.526 138.365 436.526C138.365 436.526 82.4593 344.502 131.427 257.681C186.86 159.406 290.03 167.641 290.03 167.641Z" fill="#C4222C"/>
<path d="M257.362 371.745C295.754 355.313 313.952 310.965 298.007 272.691C282.063 234.416 238.014 216.71 199.621 233.142C161.229 249.574 143.031 293.922 158.976 332.196C174.92 370.471 218.969 388.177 257.362 371.745Z" fill="white"/>
<path d="M680.32 326.206C680.32 326.206 644.92 384.615 571.056 375.681C505.807 367.784 478.234 301.752 478.234 301.752C478.234 301.752 520.162 244.454 585.413 252.348C659.274 261.286 680.32 326.206 680.32 326.206Z" fill="#C4222C"/>
<path d="M577.839 352.024C595.052 368.824 622.66 368.72 639.505 351.792C656.349 334.865 656.05 307.524 638.837 290.725C621.624 273.925 594.015 274.029 577.171 290.957C560.327 307.884 560.626 335.225 577.839 352.024Z" fill="white"/>
<path d="M302.981 92.7712C302.981 92.7712 279.959 131.878 230.81 126.57C187.394 121.878 168.513 78.2429 168.513 78.2429C168.513 78.2429 195.881 39.8196 239.3 44.5091C288.447 49.819 302.981 92.7712 302.981 92.7712Z" fill="#C4222C"/>
<path d="M229.925 101.39C240.748 111.685 257.891 111.401 268.216 100.756C278.541 90.1107 278.138 73.1352 267.316 62.8401C256.494 52.545 239.351 52.8289 229.025 63.4742C218.7 74.1195 219.103 91.095 229.925 101.39Z" fill="white"/>
</svg>
