<svg width="34" height="45" viewBox="0 0 34 45" fill="none" xmlns="http://www.w3.org/2000/svg">
<g clip-path="url(#clip0)">
<path d="M33.3445 41.7213V0H28.411V2.90984C28.411 4.95902 28.2055 40.8197 27.7121 41.7213H27.2188V44.959H28.9044V43.1148H32.3167V44.959H34.0023V41.7213H33.3445ZM31.5356 41.7213H29.521C29.8911 40.9016 30.0966 5.32787 30.0966 3.52459V1.35246H31.5356V41.7213Z" fill="white"/>
<path d="M23.8462 0C21.7906 0 21.1328 1.22951 21.1328 2.58197V42.2951C21.1328 43.6885 21.7906 44.877 23.8462 44.877C25.8607 44.877 26.5597 43.6475 26.5597 42.2951V2.58197C26.5597 1.22951 25.8607 0 23.8462 0ZM24.9152 42.582C24.9152 43.3197 24.504 43.5246 23.9285 43.5246C23.394 43.5246 22.9418 43.2787 22.9418 42.582V2.37705C22.9418 1.63934 23.394 1.43443 23.9285 1.43443C24.504 1.43443 24.9152 1.63934 24.9152 2.37705V42.582Z" fill="white"/>
<path d="M31.5343 33.4408C25.7785 33.4408 21.1328 28.8097 21.1328 23.072C21.1328 17.3343 25.8196 12.7031 31.5343 12.7031V33.4408Z" fill="white"/>
<path d="M17.5142 30.9821L17.3086 30.7772L17.5553 28.933L19.2409 28.1133L19.4464 28.5231L19.2409 29.9166L17.5142 30.9821Z" fill="#195784"/>
<path d="M17.553 8.64492L17.4297 6.80065L17.4708 4.13672L19.1975 6.39082L19.5264 8.27606L19.1975 10.2843L17.553 8.64492Z" fill="#195784"/>
<path d="M14.5933 0.289062H8.96094L31.5317 22.5841L14.5933 0.289062Z" fill="#195784"/>
<path d="M0 3.89453V8.52568L31.5333 22.5831L0 3.89453Z" fill="#195784"/>
<path d="M0.328125 14.0156V17.991L31.5325 22.5812L0.328125 14.0156Z" fill="#195784"/>
<path d="M0 26.8446V30.4921L31.5333 22.9102L0 26.8446Z" fill="#195784"/>
<path d="M0 36.7194V41.4325L31.5333 22.5801L0 36.7194Z" fill="#195784"/>
<path d="M8.83984 44.9981H14.9245L31.5339 22.5801L8.83984 44.9981Z" fill="#195784"/>
<path d="M31.5334 14.5898C27.8332 14.5898 24.832 17.5816 24.832 21.2702C24.832 24.9587 27.8332 27.9505 31.5334 27.9505V14.5898Z" fill="#C4222C"/>
<path d="M5.42684 0.0820312V1.68039H1.9734V21.6394H0V0.0820312H5.42684Z" fill="white"/>
<path d="M5.42684 23.4414V25.0398H1.9734V44.9988H0V23.4414H5.42684Z" fill="white"/>
<path d="M11.8417 26.0234V42.3758C11.8417 43.7693 11.1017 44.9988 8.96381 44.9988C6.78485 44.9988 6.08594 43.7693 6.08594 42.3758V26.0234C6.08594 24.6299 6.78485 23.4414 8.96381 23.4414C11.1017 23.4414 11.8417 24.6299 11.8417 26.0234ZM7.97711 25.7775V42.6217C7.97711 43.3185 8.38823 43.5644 8.96381 43.5644C9.5805 43.5644 9.95051 43.3594 9.95051 42.6217V25.7775C9.95051 25.0398 9.5805 24.8348 8.96381 24.8348C8.38823 24.8348 7.97711 25.0808 7.97711 25.7775Z" fill="white"/>
<path d="M8.96381 0.0820312C6.78485 0.0820312 6.08594 1.31154 6.08594 2.664V19.0165C6.08594 20.4099 6.78485 21.5984 8.96381 21.5984C11.1017 21.5984 11.8417 20.3689 11.8417 19.0165V2.70498C11.8417 1.31154 11.1017 0.0820312 8.96381 0.0820312ZM10.0738 19.3033C10.0738 20.041 9.62161 20.246 9.04603 20.246C8.47046 20.246 8.01822 20.0001 8.01822 19.3033V2.45908C8.01822 1.72138 8.42935 1.51646 9.00492 1.51646C9.62161 1.51646 9.99162 1.72138 9.99162 2.45908L10.0738 19.3033Z" fill="white"/>
<path d="M17.1035 23.4414C16.4869 23.4414 15.8291 23.8103 15.5824 24.548V23.6463H13.7734V44.9988H15.5824V39.0562C15.8702 39.7529 16.4457 40.1217 17.1035 40.1217C18.2136 40.1217 19.2003 39.425 19.2003 37.8676V25.6545C19.2003 24.0562 18.2136 23.4414 17.1035 23.4414ZM17.5558 37.7857C17.5558 38.4004 17.0624 38.7283 16.5691 38.7283C16.1168 38.7283 15.5824 38.4414 15.5824 37.7447V25.8594C15.5824 25.2037 16.0346 24.8758 16.4869 24.8758C16.9391 24.8758 17.5147 25.1627 17.5147 25.8185V37.7857H17.5558Z" fill="white"/>
<path d="M15.5824 0.286949V1.18859C15.8702 0.450884 16.4869 0.0820312 17.1035 0.0820312C18.2136 0.0820312 19.2003 0.696785 19.2003 2.33613V14.5492C19.2003 16.0656 18.2136 16.8033 17.1035 16.8033C16.4046 16.8033 15.8702 16.4345 15.5824 15.7378V21.6804H13.7734V0.286949H15.5824ZM15.5824 2.54105V14.4263C15.5824 15.082 16.1168 15.4099 16.5691 15.4099C17.0213 15.4099 17.5558 15.123 17.5558 14.4673V2.50006C17.5558 1.88531 17.0624 1.55744 16.5691 1.55744C16.1168 1.55744 15.5824 1.88531 15.5824 2.54105Z" fill="white"/>
<path d="M8.13862 12.174L8.59086 11.3543L8.50863 8.93628L5.87744 7.37891L5.67188 8.32153L5.87744 11.1494L8.13862 12.174Z" fill="#195784"/>
<path d="M13.5686 19.9182L13.4453 18.7296L13.6098 17.6641L15.9943 18.3198L15.7476 18.9755L15.8298 20.287L13.5686 19.9182Z" fill="#195784"/>
<path d="M5.42578 27.0069L6.04247 26.1053L7.97475 25.8594L8.50922 26.802L7.97475 28.5643L6.04247 29.0151L5.75468 27.9495L5.42578 27.0069Z" fill="#195784"/>
</g>
<defs>
<clipPath id="clip0">
<rect width="34" height="45" fill="white"/>
</clipPath>
</defs>
</svg>
