<svg width="53" height="53" viewBox="0 0 53 53" fill="none" xmlns="http://www.w3.org/2000/svg">
<g clip-path="url(#clip0)">
<path d="M26.5 4.77467C33.5763 4.77467 34.4136 4.80202 37.2086 4.9293C39.7921 5.04711 41.1953 5.4784 42.1294 5.84131C43.3665 6.32204 44.2491 6.89639 45.1769 7.82313C46.1047 8.75092 46.679 9.63348 47.1587 10.8705C47.5216 11.8046 47.9529 13.2079 48.0707 15.7914C48.198 18.5853 48.2253 19.4237 48.2253 26.5C48.2253 33.5762 48.198 34.4136 48.0707 37.2085C47.9529 39.792 47.5216 41.1953 47.1587 42.1294C46.678 43.3665 46.1036 44.249 45.1769 45.1768C44.2491 46.1046 43.3665 46.679 42.1294 47.1586C41.1953 47.5215 39.7921 47.9528 37.2086 48.0707C34.4147 48.1979 33.5763 48.2253 26.5 48.2253C19.4237 48.2253 18.5853 48.1979 15.7914 48.0707C13.2079 47.9528 11.8047 47.5215 10.8706 47.1586C9.6335 46.6779 8.75093 46.1036 7.82314 45.1768C6.89534 44.249 6.321 43.3665 5.84132 42.1294C5.47841 41.1953 5.04712 39.792 4.9293 37.2085C4.80202 34.4146 4.77467 33.5762 4.77467 26.5C4.77467 19.4237 4.80202 18.5864 4.9293 15.7914C5.04712 13.2079 5.47841 11.8046 5.84132 10.8705C6.32205 9.63348 6.8964 8.75092 7.82314 7.82313C8.75093 6.89534 9.6335 6.32099 10.8706 5.84131C11.8047 5.4784 13.2079 5.04711 15.7914 4.9293C18.5864 4.80202 19.4237 4.77467 26.5 4.77467ZM26.5 0C19.3028 0 18.4002 0.0305057 15.5737 0.159892C12.7535 0.288226 10.8274 0.736344 9.1412 1.39169C7.39816 2.06913 5.92021 2.97483 4.44752 4.44857C2.97483 5.92126 2.06808 7.39921 1.39169 9.14119C0.736345 10.8274 0.288226 12.7535 0.159892 15.5737C0.0305057 18.4002 0 19.3027 0 26.5C0 33.6972 0.0305057 34.5998 0.159892 37.4263C0.288226 40.2465 0.736345 42.1725 1.39169 43.8588C2.06913 45.6018 2.97483 47.0797 4.44858 48.5524C5.92232 50.0262 7.39922 50.9319 9.14225 51.6093C10.8274 52.2647 12.7545 52.7128 15.5747 52.8411C18.4013 52.9705 19.3038 53.001 26.5011 53.001C33.6983 53.001 34.6008 52.9705 37.4274 52.8411C40.2476 52.7128 42.1747 52.2647 43.8599 51.6093C45.6029 50.9319 47.0808 50.0262 48.5535 48.5524C50.0273 47.0787 50.933 45.6018 51.6104 43.8588C52.2658 42.1736 52.7139 40.2465 52.8422 37.4263C52.9716 34.5998 53.0021 33.6972 53.0021 26.5C53.0021 19.3027 52.9716 18.4002 52.8422 15.5737C52.7139 12.7535 52.2658 10.8264 51.6104 9.14119C50.933 7.39815 50.0273 5.92021 48.5535 4.44752C47.0798 2.97378 45.6029 2.06808 43.8599 1.39064C42.1726 0.736344 40.2465 0.288226 37.4263 0.159892C34.5998 0.0305057 33.6972 0 26.5 0Z" fill="white"/>
<path d="M26.5022 12.8936C18.9862 12.8936 12.8945 18.9863 12.8945 26.5012C12.8945 34.0161 18.9873 40.1089 26.5022 40.1089C34.0171 40.1089 40.1098 34.0161 40.1098 26.5012C40.1098 18.9863 34.0182 12.8936 26.5022 12.8936ZM26.5022 35.3342C21.6234 35.3342 17.6692 31.379 17.6692 26.5012C17.6692 21.6224 21.6244 17.6682 26.5022 17.6682C31.3799 17.6682 35.3352 21.6234 35.3352 26.5012C35.3352 31.38 31.381 35.3342 26.5022 35.3342Z" fill="white"/>
<path d="M40.6448 15.5337C42.401 15.5337 43.8248 14.11 43.8248 12.3538C43.8248 10.5975 42.401 9.17383 40.6448 9.17383C38.8886 9.17383 37.4648 10.5975 37.4648 12.3538C37.4648 14.11 38.8886 15.5337 40.6448 15.5337Z" fill="white"/>
</g>
<defs>
<clipPath id="clip0">
<rect width="53" height="53" fill="white"/>
</clipPath>
</defs>
</svg>
