<svg width="760" height="989" viewBox="0 0 760 989" fill="none" xmlns="http://www.w3.org/2000/svg">
<g clip-path="url(#clip0)">
<path d="M646.82 411.299C646.82 411.299 640.05 341.809 672.85 333.309C705.66 324.809 700.35 333.679 700.35 333.679L701.44 397.249C701.43 397.249 652.72 476.459 646.82 411.299Z" fill="#AA1642"/>
<path d="M717.711 499.58C717.711 499.58 759.481 474.82 733.971 562.49" stroke="#141414" stroke-width="3" stroke-miterlimit="10"/>
<path d="M70.9593 304.34L64.1293 485.91C64.1293 485.91 0.29931 419.62 -0.000690027 511.66C-0.30069 603.7 52.9393 621.58 52.9393 621.58L51.7993 986.79L697.909 988.52L698.999 621.33C698.999 621.33 764.959 587.35 758.939 512.98C752.919 438.61 703.329 482.12 703.409 502.17C703.489 522.23 699.769 299.52 699.769 299.52L420.439 134.91L70.9593 304.34Z" fill="#F8B87B"/>
<path d="M736.241 571.29C745.721 560.86 768.741 534.52 755.481 492.49C740.001 443.41 700.631 491.54 703.421 502.19C703.421 502.19 704.741 515.45 684.161 516.97C663.921 518.48 641.241 537.26 653.411 565.1C653.761 565.88 670.501 643.57 736.241 571.29Z" fill="#89C1E0"/>
<path d="M398.579 418.16C399.259 417.69 441.719 397.4 426.209 346.69C410.719 295.98 561.659 322.09 582.539 351.98C603.419 381.87 636.799 361.42 639.749 391.11C642.699 420.8 627.489 415.7 602.679 402.78C577.869 389.86 483.139 359.89 439.899 427.32C396.659 494.75 353.879 449.66 398.579 418.16Z" fill="#496272"/>
<path d="M77.6598 393.74C77.6598 393.74 112.09 470.7 166.3 408.51C220.51 346.32 349.73 397.85 367.56 414.96C390.7 437.17 456.84 341.17 378.45 321.93C300.06 302.68 39.4198 325.06 77.6598 393.74Z" fill="#CEE8F1"/>
<path d="M60.1992 301.5C60.1992 301.5 72.0192 437.76 192.309 360.44C315.379 281.33 302.169 356.64 374.789 342.54C423.939 333 485.829 386.94 635.149 371.62C718.179 363.11 711.239 316.9 713.769 301.97C717.379 280.63 606.989 240.73 606.989 240.73L96.6492 262.63L60.1992 301.5Z" fill="#1BAFE6"/>
<path d="M41.9396 493.43C41.9396 493.43 -0.0704014 463.13 16.7296 545.65" stroke="#141414" stroke-width="3" stroke-miterlimit="10"/>
<path d="M175.529 491.08C175.529 491.08 234.599 402.971 314.249 478.641C314.249 478.641 261.059 534.16 175.529 491.08Z" fill="#FFF7E3"/>
<path d="M467.449 496.481C467.449 496.481 526.519 408.371 606.169 484.041C606.179 484.041 552.989 539.551 467.449 496.481Z" fill="#FFF7E3"/>
<path d="M175.529 491.08C175.529 491.08 231.169 398.27 314.259 478.64" stroke="#1D1F1D" stroke-miterlimit="10"/>
<path d="M605.34 483.87C525.11 406.22 468.5 495.76 468.5 495.76" stroke="#141414" stroke-miterlimit="10"/>
<path d="M209.22 484.52C209.45 481.96 222.28 457.87 232.02 471.84C241.73 485.82 206.29 516.51 209.22 484.52Z" fill="#6B4B31"/>
<path d="M502.139 493.319C502.369 490.759 515.199 466.669 524.939 480.639C534.669 494.609 499.229 525.309 502.139 493.319Z" fill="#6B4B31"/>
<path d="M396.801 549.4C399.501 553.11 396.501 672.08 436.261 696.57" stroke="#1D1F1D" stroke-width="2" stroke-miterlimit="10"/>
<path d="M598 413.499C593.94 413.479 490.36 377.519 455.76 431.529" stroke="#1D1F1D" stroke-width="7" stroke-miterlimit="10"/>
<path d="M192.141 412.16C196.201 412.18 300.021 376.88 334.251 431.12" stroke="#1D1F1D" stroke-width="7" stroke-miterlimit="10"/>
<path d="M289.279 750.09C293.889 750.1 293.929 742.93 289.299 742.91C284.679 742.9 284.659 750.07 289.279 750.09Z" fill="#1D1F1D"/>
<path d="M60.2001 301.51C60.2001 301.51 43.5201 -21.3001 403.45 1.11993C763.38 23.5399 713.75 301.97 713.75 301.97C713.75 301.97 319.42 218.55 60.2001 301.51Z" fill="#1D1F1D"/>
<path d="M320.981 458.721C320.981 458.721 422.751 500.431 455.191 465.491L450.741 516.821C450.741 516.821 368.701 495.301 324.951 510.671C304.111 517.981 329.541 499.721 333.271 485.731C337.391 470.341 320.981 458.721 320.981 458.721Z" fill="#913089"/>
<path opacity="0.21" d="M627.14 463.189C596.36 431.719 509.04 414.209 465.85 462.229C422.66 510.259 474.3 546.169 519.58 546.329C564.86 546.489 615.93 529.719 635.12 496.739C622.49 473.109 657.94 494.659 627.14 463.189Z" fill="#1BAFE6"/>
<path d="M637.609 469.86C607.649 432.18 515.159 404.14 463.439 452.58C411.729 501.03 463.749 545.7 512.649 550.42C561.559 555.14 618.499 541.85 642.689 507.53C651.479 493.7 667.569 507.54 637.609 469.86ZM627.079 502.12C625.239 503.91 623.479 505.78 621.829 507.77C600.379 533.8 557.029 543.69 517.779 539.71C476.809 535.54 435.529 498.33 477.759 458.33C519.989 418.33 592.539 446.11 620.259 472.89C634.509 486.66 633.669 495.72 627.079 502.12Z" fill="#79617B"/>
<path opacity="0.21" d="M153.259 502.201C177.829 533.081 231.979 542.461 277.609 535.381C323.239 528.301 369.619 483.551 318.469 440.911C267.319 398.271 182.059 429.61 155.999 466.58C129.929 503.56 162.269 476.031 153.259 502.201Z" fill="#1BAFE6"/>
<path d="M144.5 503.26C170.64 536.13 228.26 546.1 276.81 538.56C325.36 531.02 374.71 483.42 320.28 438.04C265.86 392.67 175.13 426.01 147.4 465.36C119.67 504.71 154.08 475.41 144.5 503.26ZM164.92 467.38C188.17 436.64 261.86 407.12 306.34 444.61C350.82 482.1 311.75 521.65 271.1 528.18C230.45 534.71 183.04 528.76 161.09 501.36C157.37 495.56 148.65 488.9 164.92 467.38Z" fill="#79617B"/>
<path d="M701.529 404.811C701.529 404.811 671.749 469.221 640.329 474.511L638.039 513.431C638.039 513.431 703.959 527.931 703.369 502.121C702.789 476.321 701.529 404.811 701.529 404.811Z" fill="#913089"/>
<path d="M64.0801 485.85C64.0801 485.85 94.0001 508.58 151.37 510.71L144.69 469.31C144.69 469.31 67.4401 434.74 67.6601 390.99L64.0801 485.85Z" fill="#913089"/>
<path d="M147.759 525.47C147.759 525.47 242.399 604.47 325.919 537.74C409.439 471.01 374.119 608.43 359.829 627.14C311.399 690.53 143.329 670.59 119.579 601.69C95.8292 532.79 113.569 498.49 147.759 525.47Z" fill="#CEE8F1"/>
<path d="M2.60938 545.469C2.60938 545.469 10.1794 572.049 31.8094 545.819C53.4394 519.589 97.3594 533.439 102.859 560.659C108.359 587.879 134.589 699.269 93.6494 693.779C52.7294 688.299 52.7294 689.209 52.7794 669.169C52.8394 649.129 52.9294 621.579 52.9294 621.579C52.9294 621.579 15.3794 611.699 2.60938 545.469Z" fill="#AA1642"/>
<path d="M444.331 677.16C432.491 655.5 400.191 574.9 424.201 538.67C452.291 496.28 439.051 562.72 510.591 563.69C579.901 564.62 498.201 775.73 444.331 677.16Z" fill="#CEE8F1"/>
<path d="M125.879 680.49C124.439 668.12 122.579 631.78 162.619 657.69C210.319 688.56 215.159 696.03 203.869 754.48C192.739 812.2 141.249 811.61 125.879 680.49Z" fill="#496272"/>
<path d="M52.6694 709.879C52.6694 709.879 118.409 689.159 123.409 729.949C128.419 770.729 151.939 809.909 177.279 805.939C202.619 801.969 171.659 902.089 124.899 892.829C78.1394 883.559 52.1294 881.999 52.1994 860.389C52.2594 838.769 52.6694 709.879 52.6694 709.879Z" fill="#CEE8F1"/>
<path d="M218.05 728.76C218.05 728.76 207.59 662.62 260.46 676.28C313.33 689.95 351.29 642.35 339.98 692.16C328.66 741.98 285.73 721.65 275.33 739.41C264.93 757.15 218.81 782.44 218.05 728.76Z" fill="#CEE8F1"/>
<path d="M496.15 715.959C504.66 707.439 538.52 683.789 548.72 618.599C560.87 540.919 596.07 557.949 622.38 564.219C648.69 570.489 658.67 625.299 699.02 621.329L698.71 726.809C698.7 726.809 414.18 798.029 496.15 715.959Z" fill="#496272"/>
<path d="M559.05 877.44C552.71 876.99 517.55 875.14 528.37 823.32C540.24 766.42 536.85 766.69 556.62 763.87C576.4 761.05 677.59 751.02 698.67 735.26L698.28 865.09C698.28 865.08 649.38 883.87 559.05 877.44Z" fill="#CEE8F1"/>
<path d="M52.1208 884.529C52.1208 884.529 108.311 899.389 108.021 921.599C107.611 951.689 164.381 927.909 183.271 933.729C202.161 939.549 195.041 987.179 195.041 987.179L51.8008 986.789L52.1208 884.529Z" fill="#89C1E0"/>
<path d="M390.889 988.07C390.889 988.07 386.839 965.14 423.379 968.88C468.109 973.44 544.139 933.96 551.289 918.32C558.439 902.69 579.429 890.01 608.139 888.09C636.849 886.17 691.779 889.69 698.229 877.27L697.899 988.51L390.889 988.07Z" fill="#89C1E0"/>
<path d="M646.599 817.141C655.809 818.781 658.369 804.471 649.149 802.821C639.939 801.191 637.379 815.501 646.599 817.141Z" fill="#CEE8F1"/>
<path d="M365.05 877.1C365.05 877.1 377.7 842.57 395.43 842.81C413.16 843.05 422.81 847.81 420.22 857.18C417.62 866.55 413.83 885.16 399.76 887.28C385.7 889.42 364.39 891.59 365.05 877.1Z" fill="#1D1F1D"/>
<path d="M411.339 837.391C374.799 822.431 360.919 866.411 360.919 866.411C354.289 894.461 379.659 896.261 389.039 896.881C414.319 898.601 447.869 852.351 411.339 837.391ZM389.279 886.061C383.439 885.721 366.749 886.251 370.849 871.251C370.849 871.251 381.739 842.531 405.799 848.101C429.329 853.551 405.029 887.001 389.279 886.061Z" fill="#E7323F"/>
<path d="M192.009 914.87C177.519 916.43 92.5795 936.51 137.129 909.49C185.639 880.07 196.239 849.22 196.589 822.84C196.939 796.47 219.129 763.46 249.569 771.74C279.769 779.97 283.689 905 192.009 914.87Z" fill="#89C1E0"/>
<path d="M213.759 971.13C212.509 969.43 186.189 924.96 230.449 911.21C274.709 897.46 261.909 859.36 290.939 899.07C319.969 938.78 236.499 1002.07 213.759 971.13Z" fill="#CEE8F1"/>
<path d="M279.84 825.371C279.84 825.371 286.62 802.791 276.24 783.681C265.85 764.571 292.86 751.521 313.71 750.411C334.56 749.301 331.29 716.871 353.68 702.371C376.08 687.871 394.11 706.161 371.77 758.601C349.43 811.051 333.52 824.591 313.86 841.961C294.2 859.341 263.66 859.391 279.84 825.371Z" fill="#496272"/>
<path d="M379.381 763.02C367.611 795.17 431.561 809.5 460.141 790C504.031 760.05 469.031 749.27 468.521 740.7C468.011 732.12 475.081 712.75 454.641 707.55C434.201 702.35 400.541 704.06 396.031 719.12C392.061 732.32 390.521 732.62 379.381 763.02Z" fill="#CEE8F1"/>
<path d="M353.799 668.291C351.829 664.741 343.759 652.481 358.509 641.531C375.639 628.811 388.129 599.891 394.879 623.621C401.619 647.351 398.189 672.901 411.879 686.661C425.369 700.201 370.259 697.841 353.799 668.291Z" fill="#496272"/>
<path d="M307.42 907.021C307.42 907.021 326.75 937.901 256.99 987.351L373.29 987.661C373.29 987.661 374.99 952.971 421.29 961.001C467.59 969.031 502.29 930.021 499.22 920.111C496.15 910.201 490.12 898.911 457.11 922.261C424.1 945.611 360.32 938.591 344.49 913.081C328.67 887.561 285.08 871.541 307.42 907.021Z" fill="#CEE8F1"/>
<path d="M456.7 908.1C456.7 908.1 506.61 890 504.96 920.16C503.32 950.32 536.03 926.75 539.57 915.69C543.11 904.64 538.48 882.67 523.88 867.36C509.28 852.05 524.93 801.06 526.99 791.22C529.05 781.38 511.19 752.14 482.01 778.89C452.83 805.64 449.12 806.7 448.3 844.54C447.49 882.38 425.27 928.66 456.7 908.1Z" fill="#496272"/>
</g>
<defs>
<clipPath id="clip0">
<rect width="759.49" height="988.52" fill="white"/>
</clipPath>
</defs>
</svg>
