<svg width="327" height="268" viewBox="0 0 327 268" fill="none" xmlns="http://www.w3.org/2000/svg">
<path d="M0 152.3V206.711L273.286 21.9238L0 152.3Z" fill="#005C83"/>
<path d="M178.212 244.664L273.288 21.9238L139.566 238.81L178.212 244.664Z" fill="#005C83"/>
<path d="M291.321 262.794L273.291 21.9238L262.652 256.871L291.321 262.794Z" fill="#005C83"/>
<path d="M325.998 102.061L273.289 21.9238L325.998 128.866V102.061Z" fill="#005C83"/>
<path d="M0 5.23242V39.8326L273.286 21.9221L0 5.23242Z" fill="#005C83"/>
<path d="M27.8891 75.9941V95.0252L11.2701 101.499V222.059L0 223.85V87.9111L27.8891 75.9941Z" fill="#C5212C"/>
<path d="M69.6343 131.365V175.901C69.6343 195.142 64.542 212.862 50.4198 215.404C36.6726 217.875 32.3008 202.897 32.3008 184.846V143.052C32.3008 124.991 36.6825 107.581 50.4198 102.468C64.542 97.2049 69.6343 112.124 69.6343 131.365ZM44.1334 136.238V185.126C44.1334 194.632 46.7881 197.163 50.4297 196.393C54.3081 195.572 56.7655 192.27 56.7655 182.164V132.215C56.7655 122.109 54.318 120.168 50.4297 121.489C46.7783 122.73 44.1334 126.542 44.1334 136.238Z" fill="#C5212C"/>
<path d="M92.9383 89.1613V102.419C95.0502 91.1325 99.8859 84.0483 104.801 82.2173C113.554 78.9554 121.686 85.3991 121.686 109.583V168.718C121.686 191.811 113.544 204.038 104.801 205.609C99.4418 206.57 95.2772 202.047 92.9383 192.201V246.273L79.5957 248.404V94.0942L92.9383 89.1613ZM92.9383 121.75V173.491C92.9383 182.946 96.2838 186.648 99.7773 185.908C103.419 185.137 106.528 179.964 106.528 170.729V117.028C106.528 107.792 103.419 104.33 99.7773 105.571C96.2838 106.752 92.9383 112.295 92.9383 121.75Z" fill="#C5212C"/>
<path d="M233.262 0C229.778 6.52382 227.805 13.9882 227.805 21.9228C227.805 47.3877 248.164 68.0398 273.29 68.0398C298.406 68.0398 318.775 47.3977 318.775 21.9228C318.775 13.9882 316.801 6.52382 313.318 0H233.262V0Z" fill="#C5212C"/>
<path d="M184.102 95.0252V115.907L156.44 105.081V227.672L139.574 225.031V75.9941L184.102 95.0252Z" fill="#C5212C"/>
<path d="M214.585 160.633V199.535C214.585 216.345 209.799 230.133 195.647 227.512C180.41 224.69 175.219 207.97 175.219 189.94V148.196C175.219 130.155 180.41 116.337 195.647 122.04C209.799 127.343 214.585 143.823 214.585 160.633ZM188.857 149.536V196.243C188.857 205.329 191.759 208.921 195.647 209.761C199.683 210.642 202.17 208.641 202.17 199.415V153.809C202.17 144.583 199.683 141.191 195.647 139.811C191.749 138.48 188.857 140.271 188.857 149.536Z" fill="#C5212C"/>
<path d="M234.508 138.969V149.375C236.176 141.471 239.906 138.599 243.577 139.98C249.874 142.331 255.44 151.466 255.44 169.447V213.422C255.44 230.602 249.874 237.567 243.577 236.396C239.561 235.645 236.344 230.813 234.508 222.118V253.636L223.465 251.905V134.887L234.508 138.969ZM234.508 165.044V206.969C234.508 214.623 237.133 218.776 239.817 219.356C242.561 219.956 244.85 216.945 244.85 209.76V168.016C244.85 160.842 242.561 156.549 239.817 155.609C237.133 154.698 234.508 157.38 234.508 165.044Z" fill="#C5212C"/>
<path d="M291.321 184.878V218.257C291.321 232.675 287.808 244.622 277.455 242.701C266.402 240.65 262.652 226.582 262.652 211.273V175.832C262.652 160.523 266.402 148.536 277.455 152.679C287.808 156.531 291.321 170.449 291.321 184.878ZM272.521 176.403V216.196C272.521 223.94 274.633 226.912 277.455 227.532C280.396 228.173 282.222 226.402 282.222 218.517V179.525C282.222 171.64 280.406 168.848 277.455 167.838C274.623 166.857 272.521 168.508 272.521 176.403Z" fill="#C5212C"/>
<path d="M301.704 190.651V163.795L323.297 171.78V235.227L326.001 235.827V267.976L318.965 266.935V248.104L303.954 245.242V264.724L296.168 263.573V229.193L298.546 229.723C300.767 220.698 301.704 212.473 301.704 190.651ZM315.718 182.936L309.432 180.815V199.186C309.432 217.846 308.464 223.45 306.777 231.554L315.718 233.546V182.936Z" fill="#C5212C"/>
<path d="M264.977 58.6327C277.807 58.6327 288.208 48.0874 288.208 35.0791C288.208 22.0707 277.807 11.5254 264.977 11.5254C252.147 11.5254 241.746 22.0707 241.746 35.0791C241.746 48.0874 252.147 58.6327 264.977 58.6327Z" fill="white"/>
<path d="M146.43 227.672L161.835 236.667L158.016 208.881L146.43 227.672Z" fill="#005C83"/>
<path d="M174.862 181.566L190.968 155.451L202.169 188.64L184.721 229.554C184.721 229.554 170.973 205 171.319 204.88C171.664 204.76 174.862 181.566 174.862 181.566Z" fill="#005C83"/>
<path d="M0 152.298C0.562519 152.028 56.7552 125.223 56.7552 125.223V168.328L0 207.03V176.322V152.298Z" fill="#005C83"/>
</svg>
