<svg width="313" height="134" viewBox="0 0 313 134" fill="none" xmlns="http://www.w3.org/2000/svg">
<path d="M2.36454 91.3972C2.42562 87.8298 3.40909 81.6602 10.33 89.3386C19.56 99.5704 10.776 100.89 5.80974 108.055C-0.335432 116.931 2.33399 93.1931 2.36454 91.3972Z" fill="#94763D"/>
<path d="M5.19979 114.432C5.19979 114.432 21.4973 94.3171 27.0316 100.823C32.566 107.328 25.0647 111.897 35.9623 110.688C46.8599 109.478 39.4869 123.803 26.1581 123.247C12.8293 122.685 -3.06504 125.464 5.19979 114.432Z" fill="#B77813"/>
<path d="M39.6884 122.586C47.9655 118.207 50.0607 123.112 44.001 127.192C37.9414 131.273 4.25287 134.968 1.78503 129.501C-0.676704 124.04 2.44475 124.132 9.23743 125.525C16.0362 126.917 32.1627 127.339 39.6884 122.586Z" fill="#A19172"/>
<path d="M41.7506 130.21C42.337 129.984 48.4272 128.799 48.8182 123.955C49.2091 119.111 52.2267 122.019 53.5767 124.609C54.9695 127.278 58.0726 130.008 53.5462 131.804C49.0137 133.6 31.5372 134.089 41.7506 130.21Z" fill="#94763D"/>
<path d="M147.142 109.764C147.142 109.764 142.653 120.686 156.275 122.824C169.897 124.962 178.552 115.72 169.347 110.216C160.141 104.712 149.164 102.537 147.142 109.764Z" fill="#673C0E"/>
<path d="M153.411 64.7686C153.35 64.6281 146.606 49.5095 157.302 56.4366C157.302 56.4366 166.777 60.3033 168.34 62.8139C169.904 65.3245 161.139 63.4064 159.257 62.0075C157.376 60.6087 154.242 63.8462 156.795 67.6213C159.349 71.4086 156.294 71.3047 153.411 64.7686Z" fill="#A19172"/>
<path d="M218.009 57.3482C214.594 53.732 216.287 40.6964 225.413 49.8897C234.539 59.083 245.607 51.9666 249.126 52.272C252.651 52.5775 245.754 75.686 238.015 72.9555C230.269 70.225 221.424 60.9645 218.009 57.3482Z" fill="#B77813"/>
<path d="M312.001 25.609C311.403 23.3122 310.383 21.4613 308.672 20.203C303.871 16.66 299.436 8.42572 305.245 26.1832C311.055 43.9407 305.447 52.3704 305.447 52.3704C303.48 66.6399 310.285 54.7344 312.001 44.8631V25.609Z" fill="#673C0E"/>
<path d="M155.609 71.6888C153.514 70.351 149.665 73.0205 146.52 76.6062V88.3101C146.91 88.2185 147.32 88.1146 147.76 87.9802C163.355 83.2156 166.311 93.2397 166.311 93.2397C168.974 99.617 171.65 96.9659 167.24 86.0133C162.829 75.0546 161.162 75.2318 155.609 71.6888Z" fill="#94763D"/>
<path d="M307.209 120.56C305.077 125.135 304.014 127.505 287.252 122.075C285.487 121.501 284.033 121.165 282.836 121.018V133.156H303.214C306.91 131.8 309.756 129.698 310.44 126.827C312.505 118.202 309.341 115.991 307.209 120.56Z" fill="#94763D"/>
<path d="M148.201 45.1546C147.853 47.5797 147.224 49.3512 146.527 50.7684V67.2675C150.418 72.5208 154.145 69.436 151.671 66.4245C150.797 65.3555 150.064 64.1827 149.612 62.8816C148.097 58.5384 146.668 50.6645 158.109 54.5496C173.558 59.7968 174.388 60.4504 170.247 51.7213C166.099 42.9983 149.722 34.593 148.201 45.1546Z" fill="#673C0E"/>
<path d="M295.629 109.044C288.195 118.592 283.302 108.323 283.302 108.323C283.143 108.171 282.99 108.036 282.844 107.902V118.463C286.851 120.186 293.283 121.493 297.431 122.379C304.12 123.814 308.286 116.252 308.292 114.139C308.298 112.019 303.063 99.4964 295.629 109.044Z" fill="#A19172"/>
<path d="M175.602 28.4233C174.222 21.3741 171.149 16.2612 159.25 21.203C153.202 23.7136 149.055 26.9878 146.52 30.0909V39.8462C147.802 39.6569 149.446 38.8933 151.4 37.3723C151.4 37.3723 152.915 31.5692 164.931 41.2512C169.481 44.9224 173.092 47.4819 175.602 48.7158V28.4233Z" fill="#A19172"/>
<path d="M289.201 96.7098C285.994 96.4166 284.088 94.0648 282.836 91.8535V105.604C284.943 107.54 287.692 108.982 290.325 108.646C295.505 107.986 297.649 97.4856 289.201 96.7098Z" fill="#673C0E"/>
<path d="M175.602 0.476465C175.333 0.311535 175.059 0.152713 174.784 0H148.798C147.827 1.04456 147.051 2.28459 146.52 3.7262V20.7812C147.338 25.3687 148.835 25.9918 151.449 24.0187C155.542 20.94 153.453 16.3586 162.603 16.6396C171.516 16.9145 172.609 15.9555 175.602 19.474V0.476465Z" fill="#94763D"/>
<path d="M298.98 70.9875C293.666 66.7849 294.527 73.3332 294.527 73.3332C299.151 86.5032 288.419 82.3616 288.419 82.3616C286.018 81.3659 284.198 80.7917 282.848 80.5474V88.4213C283.3 89.0016 283.703 89.4964 283.99 89.8323C287.368 93.809 307.331 101.677 307.361 93.1309C307.386 84.579 304.289 75.1902 298.98 70.9875Z" fill="#B77813"/>
<path d="M73.26 62.9244C75.9722 69.5522 81.6348 71.3359 81.6348 71.3359C97.9873 77.4261 96.6862 67.1515 90.4311 47.812C87.1691 37.7268 81.5859 20.1159 73.9625 43.3283C73.6998 44.1346 73.4677 44.9104 73.2539 45.674V62.9244H73.26Z" fill="#B77813"/>
<path d="M289.231 74.1645C285.529 75.7344 278.376 64.3481 278.376 64.3481C278.376 64.3481 274.479 61.4282 273.849 64.3298C273.22 67.2313 263.153 75.2152 263.153 75.2152C262.989 75.4106 262.848 75.5878 262.695 75.771H282.829V78.3855C284.442 78.6543 286.06 79.0208 287.618 79.5339C296.604 82.4721 292.939 72.5946 289.231 74.1645Z" fill="#94763D"/>
<path d="M73.2617 23.0289C74.7094 25.3441 76.8719 26.5291 79.7551 25.3685C91.0192 20.836 101.843 36.3272 101.843 36.3272C102.015 36.5104 102.179 36.6937 102.344 36.8647V28.5022C101.391 26.2176 100.445 23.8169 99.675 21.4896C95.6433 9.35806 88.9667 7.97753 78.6006 3.3656C76.2915 2.33937 74.514 3.08461 73.2678 4.81332V23.0289H73.2617Z" fill="#A19172"/>
<path d="M228.445 130.553V116.039C224.927 117.969 217.535 120.718 206.723 118.159C202.575 117.175 200.34 117.762 199.289 119.148V125.972C200.462 129.557 202.557 132.941 202.557 132.941C202.557 132.941 202.698 133.027 202.979 133.149H220.223C222.679 132.557 225.421 131.714 228.445 130.553Z" fill="#B77813"/>
<path d="M82.5269 2.01581C82.5269 2.01581 97.3462 4.48366 102.343 17.2749V0H80.0469C80.1263 0.849085 80.9815 1.576 82.5269 2.01581Z" fill="#94763D"/>
<path d="M228.443 108.519C227.888 107.37 227.124 105.99 226.11 104.292C218.523 91.5188 204.229 87.3834 202.953 100.395C202.879 101.152 200.906 119.129 214.479 115.837C221.504 114.133 226.397 114.517 228.437 113.522V108.519H228.443Z" fill="#94763D"/>
<path d="M99.7267 112.47C96.9595 114.315 97.0878 120.124 105.628 117.681C108.78 116.777 111.247 112.806 112.53 107.932H102.757C102.091 109.996 100.948 111.652 99.7267 112.47Z" fill="#B77813"/>
<path d="M84.7067 91.8913C96.9543 89.5884 99.2755 92.7343 102.232 99.0016C102.275 99.0872 102.299 99.1788 102.342 99.2643V84.2496C91.365 79.6132 78.7142 73.187 78.6959 79.3811C78.6654 86.3081 70.5655 94.5546 84.7067 91.8913Z" fill="#B77813"/>
<path d="M228.443 91.2735C227.71 90.6382 226.935 90.0091 226.104 89.3982C214.748 81.0723 206.398 78.073 200.753 78.8915C200.259 78.9648 199.77 79.2581 199.281 79.7284V95.3479C199.367 95.2257 199.452 95.1036 199.544 94.9753C209.507 80.5042 227.637 98.3594 228.443 99.1596V91.2735Z" fill="#A19172"/>
<path d="M115.069 129.105C125.093 119.912 107.335 120.242 102.467 120.975C99.6204 121.402 97.4702 121.634 93.8539 114.848C90.2377 108.061 88.2708 113.809 87.0613 120.242C85.8518 126.674 80.4274 127.92 80.4274 127.92C76.8784 129.899 75.7544 131.5 76.3042 132.721H108.282C111.104 131.762 113.487 130.553 115.069 129.105Z" fill="#94763D"/>
<path d="M262.908 71.7069C262.908 71.7069 271.741 64.8531 274.3 55.7025C275.052 53.0148 274.63 51.2433 273.659 50.1621H266.359C265.877 50.608 265.565 51.1395 265.51 51.732C265.144 55.5498 261.729 57.4129 258.858 57.0159C255.981 56.6188 252.646 54.0349 252.45 58.6713C252.255 63.3076 246.25 71.9512 246.061 72.2688C245.199 73.6921 244.637 74.8405 244.332 75.7629H255.45C259.42 73.8265 262.908 71.7069 262.908 71.7069Z" fill="#A19172"/>
<path d="M74.9646 119.246C73.5168 108.678 57.5553 113.18 52.0148 110.688C46.4744 108.195 39.5718 119.374 47.1769 118.336C54.782 117.291 56.7612 128.011 56.7612 128.011C57.2315 130.149 58.0012 131.689 58.9602 132.727H67.9764C72.1485 129.966 75.667 124.371 74.9646 119.246Z" fill="#673C0E"/>
<path d="M217.865 61.0375C213.449 59.5959 204.066 60.1518 199.289 62.8456V71.6602C200.236 72.5215 201.439 73.4317 202.924 74.3907C202.924 74.3907 204.805 77.0052 219.856 82.1058C234.908 87.2125 226.026 63.7008 217.865 61.0375Z" fill="#673C0E"/>
<path d="M68.896 110.182C68.896 110.182 76.1285 109.755 76.9287 118.74C77.845 129.021 82.5668 123.81 83.7824 120.225C85.0041 116.639 84.7781 101.435 92.6337 108.228C100.489 115.026 101.082 104.404 98.0458 98.2096C95.0099 92.0156 84.4605 95.7173 74.7785 97.0429C74.2531 97.1162 73.7522 97.1956 73.2513 97.275V107.947H57.3203C59.1956 109.419 63.1051 110.366 68.896 110.182Z" fill="#A19172"/>
<path d="M250.828 51.1273C251.977 54.603 263.992 55.0123 264.169 50.1621H250.156C250.456 50.3881 250.688 50.6997 250.828 51.1273Z" fill="#673C0E"/>
<path d="M241.404 51.9702C241.404 51.9702 243.45 50.834 245.649 50.1621H237.207C237.256 50.327 237.311 50.4859 237.354 50.6325C238.484 54.3403 241.404 51.9702 241.404 51.9702Z" fill="#673C0E"/>
<path d="M23.3645 92.4778C25.6369 95.4954 27.5 96.2284 29.0821 95.3732V69.412C27.7504 68.8683 26.2355 68.0926 24.5435 66.8953C18.0623 62.32 17.3598 69.6441 16.4191 75.49C15.9182 78.6237 12.3386 81.8856 11.8744 85.1903C11.1169 90.578 17.934 85.2758 23.3645 92.4778Z" fill="#A19172"/>
<path d="M215.548 23.6655C212.531 22.0895 208.157 17.9235 206.837 16.9705C203.197 14.3378 200.827 15.2113 199.281 17.5814V38.271C202.794 37.2508 208.572 31.4905 211.382 30.9652C215.805 30.1405 225.334 28.7722 215.548 23.6655Z" fill="#94763D"/>
<path d="M0 77.8607C2.76105 87.2984 11.3985 83.0224 9.35215 77.3659C7.0248 70.9275 11.0809 77.6164 16.0837 61.1967C20.5491 46.5606 3.70787 54.5323 0 56.4381V77.8607Z" fill="#94763D"/>
<path d="M228.442 34.7113C227.251 30.3925 226.78 28.4073 221.478 30.2459C213.366 33.062 205.138 35.7314 204.063 40.0745C202.988 44.4177 201.796 49.2251 202.841 53.5744C202.926 53.9348 202.841 63.3725 213.311 49.0296C220.989 38.5108 225.937 46.6473 226.902 47.5331C227.422 48.0095 227.935 48.4371 228.448 48.8281V34.7113H228.442Z" fill="#94763D"/>
<path d="M233.909 50.166H230.488C232.18 51.064 233.512 51.1984 233.909 50.166Z" fill="#94763D"/>
<path d="M0 50.7788C2.87101 51.6707 7.00648 51.3775 11.9238 49.4655C25.1671 44.316 10.8854 62.6966 28.4352 64.6146C28.6551 64.6391 28.8628 64.6513 29.0827 64.6696V44.4504C24.7884 44.6886 21.0988 43.0882 20.0115 36.5215C17.3421 20.4806 4.00108 32.7404 0 36.8453V50.7788Z" fill="#A19172"/>
<path d="M228.446 0.0722656H211.269C210.31 0.512079 209.387 0.939676 208.532 1.33062C200.78 4.85524 204.311 8.2699 207.127 10.4079C209.943 12.5459 210.224 13.3033 211.104 16.327C213.853 23.3091 213.865 18.8804 221.372 25.2027C225.276 28.4891 227.377 25.1111 228.446 19.5707V0.0722656V0.0722656Z" fill="#A19172"/>
<path d="M0 0V25.9185C4.56917 26.9691 12.8218 25.4176 19.8832 24.0431C28.7284 22.3205 16.0532 35.1973 29.0827 36.9016V2.40065C27.4945 1.53324 25.8146 0.733023 24.0431 0H0Z" fill="#94763D"/>
<path d="M206.913 0.0722656H199.289V11.935C200.663 12.6864 202.276 13.3216 204.145 13.7798C211.378 14.244 202.557 11.9106 201.751 5.9059C201.244 2.14916 203.767 1.45279 206.913 0.0722656Z" fill="#B77813"/>
<path d="M144.794 117.448C142.876 108.725 141.392 108.951 126.42 110.057C111.442 111.162 126.029 115.573 126.029 115.573C143.255 119.806 139.578 124.522 140.58 129.903C140.806 131.113 141.386 132.029 142.217 132.725H158.087C158.154 130.661 156.504 127.588 156.028 125.603C155.252 122.353 146.712 126.171 144.794 117.448Z" fill="#A19172"/>
<path d="M136.09 132.724C137.196 130.763 137.349 127.99 136.445 124.356C134.191 115.309 106.904 114.295 114.912 118.345C114.912 118.345 120.923 119.927 120.795 125.284C120.715 128.497 119.561 130.947 119.5 132.724H136.09V132.724Z" fill="#94763D"/>
<path d="M175.435 132.725C175.49 132.67 175.545 132.609 175.6 132.548V120.6C174.262 121.449 172.271 122.927 169.089 123.935C163.45 125.719 153.988 125.346 161.752 127.472C161.929 127.521 165.937 128.461 164.025 132.725H175.435Z" fill="#B77813"/>
<path d="M175.602 65.1964C174.93 64.2618 174.185 63.4921 173.354 62.9484C166.384 58.3793 177.459 72.325 164.503 65.7889C151.546 59.2528 159.848 71.3904 166.225 77.1324C166.555 77.4317 170.745 83.5158 171.46 90.7544C171.796 94.1263 173.647 94.6883 175.608 94.1019V65.1964H175.602Z" fill="#94763D"/>
<path d="M91.4326 75.2017C83.1066 76.3867 96.4171 80.7421 102.342 79.5754V43.4129C100.986 40.5541 98.494 37.1761 93.821 32.2465C80.8037 18.5146 92.6543 46.5161 94.6212 52.6307C96.6431 58.9286 101.86 73.7173 91.4326 75.2017Z" fill="#94763D"/>
<path d="M175.602 97.0584C172.096 99.2025 167.967 101.432 165.34 98.1457C159.989 91.4507 167.722 88.8852 150.288 90.2413C148.755 90.3634 147.515 90.5467 146.52 90.7788V97.376C149.354 99.4651 152.97 101.188 152.97 101.188C159.635 104.547 164.393 103.766 171.919 108.304C173.318 109.147 174.539 109.569 175.602 109.642V97.0584Z" fill="#A19172"/>
<path d="M312 3.38919C309.581 2.58898 307.149 1.56885 303.875 0.0722656H284.646C283.595 4.47651 284.047 9.79703 284.065 9.97418C285.342 20.4381 299.178 17.8053 299.502 15.2947C299.831 12.7841 301.255 10.7072 307.204 14.6228C308.958 15.7773 310.625 15.4352 311.994 14.3479V3.38919H312Z" fill="#A19172"/>
<path d="M282.836 19.7411V32.7278C283.355 33.1493 283.905 33.5769 284.504 34.0106C285.096 34.4443 289.525 34.3099 294.063 45.5801C298.602 56.8503 301.87 61.9082 304.155 48.7627C306.433 35.6171 306.891 38.4392 302.591 26.7964C300.398 20.8589 289.708 18.4338 282.836 19.7411Z" fill="#94763D"/>
<path d="M282.836 37.2914V50.162H278.926V50.1681C277.302 60.9069 279.311 65.8487 287.833 70.986C296.354 76.1233 296.684 58.5124 288.731 42.5386C286.19 37.4441 284.271 36.3812 282.836 37.2914Z" fill="#A19172"/>
<path d="M312.002 65.8862C310.341 64.5362 306.81 63.1434 301.624 59.1485C294.116 53.3515 298.515 66.888 298.515 66.888C302.424 73.5951 306.847 76.344 309.663 78.201C310.75 78.9218 311.495 77.9322 312.002 76.3012V65.8862Z" fill="#94763D"/>
<path d="M311.997 88.952C310.66 87.4004 309.065 87.8341 309.047 92.8737C309.016 102.153 305.498 96.3128 299.176 98.8478C292.853 101.383 300.312 103.588 300.312 103.588C306.341 105.042 310.018 103.417 311.991 100.473V88.952H311.997Z" fill="#A19172"/>
</svg>
