<svg width="283" height="263" viewBox="0 0 283 263" fill="none" xmlns="http://www.w3.org/2000/svg">
<g clip-path="url(#clip0)">
<path d="M88.5277 227.087H93.7936C93.7936 227.087 95.1945 224.94 91.2864 224.868C91.2864 224.868 91.2504 220.648 106.718 211.51C106.718 211.51 107.458 215.658 109.045 216.767C110.633 217.876 109.232 224.616 109.232 224.616C109.232 224.616 108.42 227.576 111.445 227.317C114.469 227.058 124.663 227.331 124.663 227.331C124.663 227.331 126.84 223.097 119.57 222.766L121.122 210.444L129.944 209.407C129.944 209.407 129.757 217.516 132.602 223.284C132.602 223.284 134.599 226.942 136.143 227.331C137.695 227.72 147.034 227.331 147.034 227.331C147.034 227.331 150.102 223.759 141.754 223.205C141.754 223.205 140.576 216.911 141.567 214.397C142.559 211.884 143.004 209.774 147.365 206.663C147.365 206.663 146.998 210.401 152.164 217.616C152.164 217.616 155.447 221.649 159.843 221.095C159.843 221.095 161.948 226.611 166.819 226.647C166.819 226.647 168.773 226.978 167.006 222.838L166.338 220.836C166.338 220.836 166.855 219.871 166.115 218.099C165.375 216.327 161.539 204.589 161.539 204.589L166.115 203.221C166.115 203.221 170.138 206.238 173.831 203.393C173.831 203.393 177.631 200.851 177.631 195.191C177.631 195.191 177.926 188.861 175.936 186.491C175.936 186.491 178.558 183.46 176.783 181.681C176.783 181.681 175.605 180.089 172.688 182.199C172.688 182.199 165.598 182.423 160.282 180.313L150.052 176.942C150.052 176.942 145.181 174.35 138.493 176.755C138.493 176.755 134.98 178.685 123.025 176.719C104.16 173.615 92.0119 180.802 89.4616 203.631C89.4616 203.631 89.907 210.919 87.3567 211.913C84.8064 212.914 83.3696 220.461 83.3696 220.461C83.3696 220.461 82.6081 222.067 83.5635 224.076C84.4759 225.956 86.4443 227.087 88.5277 227.087Z" fill="#3F1705"/>
<path d="M120.641 121.606C111.653 110.508 101.481 100.88 109.268 85.8283C110.569 83.315 112.796 81.5938 116.136 79.6854C118.701 78.2235 121.266 71.3533 121.632 67.8749C122.882 64.3174 124.067 62.481 127.896 61.768C126.316 58.3113 126.654 55.7043 130.253 54.0552C127.394 52.2332 129.463 50.7425 131.769 49.7343C132.228 46.3135 134.7 45.0749 137.854 44.6644C139.829 40.4083 142.063 36.4834 144.872 42.7776C145.433 44.1963 146.589 41.9638 145.835 45.1757C145.073 48.3876 141.216 60.8894 147.76 62.6178C154.305 64.3462 160.217 64.5838 166.784 64.4902C172.459 66.5282 168.831 68.451 164.564 69.5673C160.699 74.4859 155.814 75.883 149.793 74.8964C150.145 78.2163 151.618 81.0897 153.22 83.9631C154.204 85.8932 155.253 88.5361 157.839 87.3623C158.63 86.9734 161.036 82.8541 162.423 85.4755C163.809 88.0968 160.131 93.9301 155.153 95.2696C150.174 96.609 142.961 95.1687 139.599 88.9826C140.152 92.3601 139.578 95.6152 138.385 98.7551C141.158 101.643 143.4 104.034 147.279 105.438C148.349 103.71 152.552 99.6985 152.064 103.919C151.726 106.821 149.901 108.808 147.645 110.299C145.756 111.545 143.407 111.869 141.23 111.271C137.717 110.306 134.096 108.952 131.402 107.116C127.882 104.718 127.358 107.894 126.912 109.709C126.467 111.523 126.56 115.794 127.789 116.14C129.017 116.485 130.382 115.362 130.325 117.364C130.238 119.38 122.329 123.694 120.641 121.606Z" fill="#3F1705"/>
<path d="M205.075 116.628C218.862 108.159 233.582 101.022 242.907 115.908C244.228 118.018 244.896 120.445 245.126 122.93C245.514 127.049 249.078 128.907 253.438 129.389C255.831 129.072 258.029 128.626 259.638 130.772C261.808 128.518 264.293 125.767 267.347 127.877C268.173 125.126 269.782 125.594 271.52 127.402C274.509 126.617 276.291 128.187 277.526 130.772C281.995 130.873 285.292 132.284 280.996 136.353C279.631 137.21 282.562 137.7 279.071 137.887C275.579 138.082 264.387 138.881 264.408 145.6C264.437 152.319 266.19 157.043 268.503 163.071C268.532 168.904 265.529 165.62 263.108 162.567C258.122 161.047 252.31 157.627 250.615 152.665C246.563 154.004 242.504 155.394 238.589 157.086C236.714 157.735 234.149 158.455 234.803 160.91C235.09 161.782 238.215 164.526 235.794 165.505C233.373 166.484 228.797 161.559 229.192 157.367C229.587 153.183 231.426 146.752 236.01 143.98C233.524 143.886 231.312 142.525 229.408 141.07C227.389 143.461 225.528 145.888 224.084 148.711C224.846 149.654 227.648 154.465 224.465 153.262C223.028 152.722 221.929 151.592 221.053 150.216C219.364 147.588 218.905 144.368 219.53 141.315C220.27 137.721 220.708 133.89 222.145 130.822C224.056 126.732 220.011 124.478 218.028 123.434C216.045 122.397 210.614 122.181 210.126 123.434C209.645 124.687 210.471 125.803 208.66 125.616C206.843 125.436 202.475 118.227 205.075 116.628Z" fill="#3F1705"/>
<path d="M154.63 146.732C154.63 146.732 149.227 146.459 150.37 143.557C150.37 143.557 150.492 142.361 153.516 143.232C153.516 143.232 155.348 143.06 155.276 141.144C155.204 139.228 156.519 136.737 160.822 136.053C160.822 136.053 164.342 135.383 166.943 139.581C166.943 139.581 168.43 141.519 168.531 143.679C168.631 145.839 170.98 143.333 170.98 143.333C170.98 143.333 166.275 137.644 169.644 133.28C169.939 133.431 171.081 132.286 173.337 137.032C173.337 137.032 173.064 133.539 174.774 133.388C176.483 133.237 177.425 136.982 176.95 139.07C176.476 141.158 176.06 142.793 175.787 142.872C175.514 142.952 176.857 144.298 178.488 146.077C179.738 147.445 179.975 148.238 179.975 148.238C179.975 148.238 180.471 149.383 179.328 150.074C178.186 150.772 177.417 152.162 172.417 150.643C172.417 150.643 173.136 152.306 174.917 153.077C174.917 153.077 177.59 155.41 172.863 154.669C172.863 154.669 171.649 154.02 171.225 153.451C170.801 152.883 170.607 154.15 172.712 155.461C174.817 156.779 171.426 158.14 169.766 156.627C168.107 155.115 167.41 153.898 167.41 153.898C167.41 153.898 162.403 156.159 158.466 148.806C158.466 148.806 155.046 150.945 153.064 149.181C153.064 149.181 152.496 148.036 154.256 147.395C156.016 146.732 154.63 146.732 154.63 146.732Z" fill="#717070"/>
<path d="M112.999 63.3388C114.501 62.9211 117.381 61.74 118.143 64.1237C118.552 65.4056 116.139 65.6288 115.341 65.6865C114.594 67.1772 114.084 66.0753 115.039 68.1998C115.995 70.3242 116.426 73.1112 113.811 75.6102C112.827 76.5464 109.22 78.5268 106.864 76.7696C106.462 76.4672 103.746 74.782 103.035 73.9178C102.187 72.888 101.11 73.5721 100.47 74.5227C103.976 76.9497 105.557 78.9157 104.421 83.2654C102.288 83.6543 101.059 82.286 99.6872 80.8889C99.7949 82.178 101.038 84 99.0837 84.5545C97.1296 85.109 95.8581 81.6307 95.5923 80.1471C95.3265 78.6564 95.5923 77.4178 95.3983 76.0711C95.2115 74.7244 92.7833 74.7892 92.1368 73.8602C91.6698 73.1833 91.2603 72.6719 90.7071 72.2831C90.154 71.8942 89.8522 71.9878 89.687 71.2316C89.6008 70.814 89.6295 70.6267 90.3192 69.8633C91.5549 68.4951 94.2129 67.2204 96.4256 67.8613C95.6282 66.8027 94.6296 66.3058 93.3868 65.9241C91.5189 64.5774 93.4299 64.1093 94.9529 63.8789C95.3983 63.8141 96.2388 64.5918 96.6627 64.6638C97.0865 64.7287 95.5995 63.4828 94.4931 62.7986C93.3868 62.1217 95.8365 60.5806 97.0003 61.1855C98.1641 61.7904 98.7101 62.8202 99.6081 63.7492C102.338 61.8336 105.269 62.8707 108.207 63.8429C109.429 61.8768 110.873 60.6166 113.251 60.631C114.026 61.2359 113.308 62.1145 112.942 62.6186C112.582 63.1155 111.498 63.7564 112.999 63.3388Z" fill="#717070"/>
<path d="M196.174 84.1494C196.174 84.1494 193.063 86.6844 194.191 88.2615C195.319 89.8458 200.326 84.7327 200.326 84.7327C200.326 84.7327 202.797 82.5507 210.887 88.3479C211.224 88.5856 211.785 88.9096 212.733 88.8016C212.733 88.8016 215.664 93.281 218.099 92.0567C218.099 92.0567 219.859 91.5598 216.117 87.9446C216.117 87.9446 217.201 89.3921 220.448 89.4786C223.696 89.5722 218.286 85.3161 218.286 85.3161C218.286 85.3161 222.525 86.3099 223.516 83.098C223.516 83.098 223.336 81.3768 222.115 81.1104C222.115 81.1104 222.474 79.8429 221.756 79.0291C221.038 78.2154 225.858 77.2215 225.413 73.0591C224.96 68.8966 221.174 74.3265 221.174 74.3265C221.174 74.3265 221.49 71.2083 219.644 69.2638C217.798 67.3194 215.987 71.5251 216.576 75.0539L216.935 77.632C216.935 77.632 214.091 77.9489 214.277 79.8501C214.457 81.7513 209.091 78.1793 209.091 78.1793C209.091 78.1793 205.707 76.595 201.468 78.0425C201.468 78.0425 198.99 79.1876 198.027 79.9725C198.027 79.9725 193.336 80.3974 192.912 83.4725C192.898 83.4725 192.876 84.6823 196.174 84.1494Z" fill="#717070"/>
<path d="M61.7696 166.183C61.7696 166.183 58.6589 168.718 59.7868 170.295C60.9147 171.879 65.9219 166.766 65.9219 166.766C65.9219 166.766 69.7151 163.064 76.8704 169.992C80.2037 173.226 82.2224 175.105 83.9035 174.27C83.9035 174.27 85.4553 173.593 81.7124 169.978C81.7124 169.978 82.7972 171.425 86.0443 171.512C89.2915 171.598 83.882 167.349 83.882 167.349C83.882 167.349 86.6478 167.997 88.2355 166.557C89.0401 165.83 89.2341 164.591 88.5803 163.727C88.5228 163.648 88.4582 163.576 88.3863 163.504C88.0343 163.165 87.8332 162.711 87.8044 162.222C87.7757 161.84 87.6679 161.408 87.359 161.062C86.6406 160.249 91.4611 159.255 91.0157 155.092C90.5631 150.93 86.7771 156.36 86.7771 156.36C86.7771 156.36 87.0932 153.241 85.2469 151.297C83.4006 149.353 81.5903 153.558 82.1793 157.087L82.5385 159.665C82.5385 159.665 79.6937 159.982 79.8805 161.883C80.0601 163.785 74.6936 160.213 74.6936 160.213C74.6936 160.213 71.3099 158.628 67.0714 160.076C67.0714 160.076 64.5929 161.221 63.6302 162.006C63.6302 162.006 58.939 162.431 58.5152 165.506C58.4936 165.498 58.4721 166.708 61.7696 166.183Z" fill="#717070"/>
<path d="M183.387 188.3C183.157 187.292 182.187 183.936 180.485 184.966C178.789 185.988 180.291 190.064 180.873 192.873C181.454 195.681 179.177 201.644 176.691 204.186C175.528 205.375 172.158 208.666 173.444 210.38C174.177 212.022 177.122 208.875 177.496 208.443C176.562 209.818 175.93 210.905 176.081 212.915C176.239 214.924 179.421 212.087 179.975 210.711C179.924 212.346 179.831 213.692 180.815 215.126C181.311 215.853 182.554 216.199 183.387 215.594C183.466 215.536 183.538 215.471 183.602 215.406C183.94 215.09 184.335 214.888 184.795 214.888C185.255 214.888 185.499 214.686 185.901 214.542C186.835 214.197 188.286 218.474 191.656 218.157C195.018 217.841 192.036 214.866 190.557 214.067C192.575 213.606 194.019 214.398 195.765 212.259C197.511 210.121 191.763 208.817 189.745 209.487C189.378 209.609 187.776 209.681 187.216 209.84C186.742 208.198 186.182 207.938 184.651 207.298C183.121 206.657 185.011 204.158 185.851 202.617C186.692 201.075 187.015 197.424 186.807 195.372C186.613 194.083 186.383 192.887 186.124 191.677C186.706 189.322 187.446 187.5 185.154 185.578C184.522 185.052 183.179 187.407 183.387 188.3Z" fill="#717070"/>
<path d="M66.3081 175.3C66.301 175.099 65.755 164.822 73.2551 169.949C80.7552 175.077 66.6386 182.876 66.3081 175.3Z" fill="#00361D"/>
<path d="M145.083 164.462C145.083 164.462 148.934 180.435 174.43 177.244C199.926 174.054 188.59 151.391 171.24 160.155C171.24 160.155 153.561 162.085 148.575 147.373C141.671 127.014 137.447 144.161 139.889 149.677C143.158 157.03 145.083 164.462 145.083 164.462Z" fill="#00361D"/>
<path d="M90.4606 187.27C90.4606 187.27 93.7221 172.831 112.918 173.515C132.114 174.199 136.489 168.106 117.365 163.202C98.2409 158.298 95.3529 166.846 91.646 173.083C87.939 179.326 81.1932 202.724 83.7148 202.501C86.2364 202.278 88.2335 199.311 90.4606 187.27Z" fill="#002416"/>
<path d="M117.716 160.227C117.716 160.227 131.948 163.518 132.335 171.318C132.723 179.117 145.676 173.824 143.564 167.249C141.452 160.674 133.837 145.63 137.616 138.832C141.394 132.033 115.884 133.337 115.051 144.305C114.217 155.273 107.543 157.664 117.716 160.227Z" fill="#002416"/>
<path d="M148.306 139.458C149.556 140.258 151.668 139.955 151.668 139.955C151.668 139.955 153.744 140.2 153.5 137.579C153.256 134.95 156.022 133.913 158.241 133.964C160.468 134.014 161.259 131.782 158.241 130.003C155.224 128.217 149.297 126.092 147.566 130.003C145.835 133.906 145.835 137.867 148.306 139.458Z" fill="#00361D"/>
<path d="M153.292 126.501C153.292 126.501 162.057 127.488 162.524 132.219C162.991 136.951 166.669 134.351 167.244 131.96C167.811 129.569 153.867 119.905 152.516 123.541C151.173 127.178 153.292 126.501 153.292 126.501Z" fill="#002416"/>
<path d="M179.256 152.392C179.256 152.392 185.47 151.989 180.814 146.451C176.159 140.913 182.898 138.277 184.177 143.275C185.455 148.273 189.32 150.758 185.103 152.781C180.886 154.805 178.429 154.654 178.429 154.654C178.429 154.654 177.143 154.301 177.725 153.213C178.3 152.119 179.256 152.392 179.256 152.392Z" fill="#00361D"/>
<path d="M171.252 130.399C171.252 130.399 167.667 125.502 173.536 125.826C179.399 126.143 186.913 134.057 183.328 135.519C179.743 136.981 178.637 137.521 177.876 135.296C177.114 133.071 175.692 130.91 174.355 132.084C173.026 133.258 172.365 131.954 171.252 130.399Z" fill="#002416"/>
<path d="M90.6277 164.109C90.6277 164.109 87.3446 159.097 92.6823 158.816C98.0201 158.535 90.7139 150.232 88.1277 150.901C85.5414 151.571 81.346 143.772 88.1277 144.435C94.9094 145.104 100.19 154.351 97.5747 159.817C94.9597 165.283 92.6249 166.673 90.6277 164.109Z" fill="#002416"/>
<path d="M62.1136 160.399C62.1136 160.399 69.4772 155.466 74.3408 158.591C79.2044 161.71 80.3179 157.554 80.3179 157.554C80.3179 157.554 80.2892 154.105 77.8753 151.57C75.4543 149.035 67.6453 150.619 64.6711 153.774C61.6969 156.921 54.9439 157.922 57.1135 160.039C59.2831 162.156 62.1136 160.399 62.1136 160.399Z" fill="#002416"/>
<path d="M99.2777 158.966C99.2777 158.966 102.69 156.957 95.9443 146.407C89.1985 135.856 101.799 134.891 104.687 142.547C107.575 150.202 111.433 157.259 106.095 159.708C100.765 162.156 95.4271 164.684 99.2777 158.966Z" fill="#00361D"/>
<path d="M108.243 144.68C107.539 143.434 107.438 142.304 107.295 141.389C106.411 135.772 99.8953 135.145 98.207 130.853C96.4326 126.345 124.069 125.668 121.505 130.99C118.94 136.312 113.502 134.54 113.466 141.526C113.423 147.64 111.239 150.002 108.243 144.68Z" fill="#002416"/>
<path d="M143.725 132.617C143.725 132.617 148.136 108.319 160.213 121.102C172.289 133.884 172.167 111.517 172.167 111.517C172.167 111.517 169.042 93.9736 150.356 110.508C131.671 127.043 141.628 139.783 143.725 132.617Z" fill="#002416"/>
<path d="M183.733 177.662C189.739 174.897 197.404 166.766 190.069 160.969C182.734 155.172 197.627 136.008 207.411 160.299C207.411 160.299 228.963 195.407 207.684 190.056C186.405 184.705 177.734 180.428 183.733 177.662Z" fill="#002416"/>
<path d="M199.219 207.837C195.397 207.844 187.832 206.094 190.03 201.543C192.229 196.991 191.46 195.328 188.364 191.576C185.26 187.824 195.26 188.011 201.776 192.029C208.292 196.048 222.438 192.498 220.21 183.172C217.983 173.838 219.356 172.744 224.6 177.367C229.844 181.983 237.682 189.747 227.122 196.797C216.561 203.84 216.791 208.182 199.219 207.837Z" fill="#00361D"/>
<path d="M56.8112 173.002C56.8112 173.002 62.9822 169.769 64.4837 175.623C65.9852 181.471 67.932 181.421 74.9365 178.021C81.9409 174.622 86.1076 182.537 81.6607 185.101C77.2138 187.664 65.8774 187.888 60.7049 182.429C55.5324 176.963 53.6574 174.838 56.8112 173.002Z" fill="#002416"/>
<path d="M77.4803 148.467C73.9099 147.668 71.2518 147.654 68.2776 150.016C65.3106 152.378 64.0462 148.95 67.4011 146.415C70.7561 143.887 74.2403 142.108 77.3294 144.687C80.4186 147.258 81.2088 149.418 77.4803 148.467Z" fill="#002416"/>
<path d="M169.689 102.45C169.689 102.45 179.947 112.381 174.272 119.042C168.597 125.703 181.88 123.154 181.88 123.154C181.88 123.154 186.901 123.255 183.475 113.634C180.048 104.02 174.078 99.3098 174.078 99.3098C174.078 99.3098 172.26 96.566 169.696 98.7192C167.124 100.88 169.689 102.45 169.689 102.45Z" fill="#00361D"/>
<path d="M124.149 127.633C124.53 125.753 125.902 121.598 130.765 120.136C137.13 118.221 139.429 119.646 137.813 124.011C136.196 128.375 137.669 131.565 137.669 131.565C137.669 131.565 139.724 133.639 129.3 133.185C123.423 132.926 124.041 128.18 124.149 127.633Z" fill="#00361D"/>
<path d="M183.309 128.187C183.309 128.187 192.325 136.642 188.97 142.655C182.304 154.617 205.264 139.537 199.229 131.313C193.195 123.082 192.16 122.469 188.41 124.176C184.667 125.883 180.278 125.941 183.309 128.187Z" fill="#00361D"/>
<path d="M184.012 139.673C184.012 139.673 183.459 135.071 186.297 136.9C189.134 138.73 188.811 141.178 187.259 141.229C185.708 141.293 184.228 141.373 184.012 139.673Z" fill="#002416"/>
<path d="M164.614 86.0954C164.614 86.0954 156.633 74.6449 168.357 72.29C180.081 69.9351 191.432 81.3856 183.407 86.0954C175.376 90.8052 170.749 95.839 164.614 86.0954Z" fill="#002416"/>
<path d="M173.502 96.5721C175.88 97.7891 178.114 99.2726 180.076 101.095C183.639 104.407 188.043 109.765 187.784 115.894C187.346 126.098 194.587 119.329 196.053 117.853C197.518 116.383 200.356 112.012 207.016 111.969C213.668 111.919 214.207 109.96 210.148 104.17C206.089 98.3796 196.642 91.2645 188.567 92.9353C181.045 94.4836 165.47 92.4672 173.502 96.5721Z" fill="#002416"/>
<path d="M202.511 141.993C202.511 141.993 206.57 142.238 203.394 134.093C200.212 125.948 203.933 123.348 206.915 127.172C209.903 130.996 210.83 126.877 211.807 125.847C212.784 124.817 222.281 124.039 219.343 131.298C216.405 138.558 213.517 143.066 215.571 145.918C217.626 148.762 218.603 153.083 212.784 152.493C206.958 151.902 198.883 147.833 198.883 145.082C198.883 142.331 201.038 142.086 202.511 141.993Z" fill="#002416"/>
<path d="M215.376 155.093C227.022 159.659 234.91 167.545 229.371 169.813C213.077 176.482 203.731 150.527 215.376 155.093Z" fill="#00361D"/>
<path d="M61.576 152.392C61.576 152.392 67.4884 139.574 76.1955 142.418C84.9025 145.263 91.2029 140.697 93.0276 135.735C94.8524 130.773 95.3768 126.582 102.029 125.271C108.682 123.961 112.338 117.249 105.032 117.465C97.726 117.688 64.3131 108.967 60.6564 127.785C56.9998 146.602 52.1218 152.688 57.7325 153.732C60.563 154.258 61.576 152.392 61.576 152.392Z" fill="#002416"/>
<path d="M57.4935 191.086C57.4935 191.086 85.9853 179.708 79.4622 205.086C72.9392 230.464 90.8705 230.335 94.6924 234.785C98.5143 239.236 97.0775 249.044 85.5974 244.205C74.1102 239.365 78.3631 218.135 63.0827 204.697C55.6041 198.115 47.1413 194.485 57.4935 191.086Z" fill="#002416"/>
<path d="M61.4161 120.107C61.6676 119.956 77.4652 107.648 99.2974 114.418C121.122 121.187 97.954 100.547 102.638 93.6988C107.322 86.8502 98.9095 85.9644 91.7614 89.6948C84.6133 93.4252 61.4161 90.2853 58.679 105.689C55.9419 121.093 50.5467 126.487 61.4161 120.107Z" fill="#00361D"/>
<path d="M199.65 88.7745C200.225 86.7437 202.279 86.578 206.439 89.4947C214.27 94.9894 222.488 97.0203 224.126 94.0748C225.757 91.1294 238.94 103.53 222.301 106.31C217.38 107.131 198.343 93.3835 199.65 88.7745Z" fill="#00361D"/>
<path d="M87.9131 61.2067C87.051 62.9638 85.9877 64.6058 84.8167 66.1757C82.992 68.6242 80.8009 73.5717 88.6243 77.4821C99.4578 82.8977 83.0423 88.7957 76.3037 85.7999C69.5651 82.8041 59.2991 51.0381 74.8884 50.9589C88.8326 50.8869 91.9936 52.9033 87.9131 61.2067Z" fill="#002416"/>
<path d="M92.113 54.3568C92.6303 52.218 95.3602 47.2849 81.1718 48.9197C63.9804 50.9073 75.5251 36.0866 87.7667 40.8828C100.008 45.679 111.273 47.3786 102.81 53.2046C94.9363 58.6274 90.0943 62.761 92.113 54.3568Z" fill="#00361D"/>
<path d="M103.502 42.7634C105.528 43.0011 107.439 43.9877 108.696 45.6008C110.104 47.4012 110.844 50.0802 108.2 53.5585C102.913 60.5224 120.241 57.4834 121.9 53.4577C123.567 49.4321 127.971 39.1627 140.105 37.3335C152.238 35.5043 150.284 26.4736 138.539 29.8151C126.793 33.1566 107.08 32.6597 102.647 34.6257C98.5236 36.4549 96.469 41.9353 103.502 42.7634Z" fill="#002416"/>
<path d="M169.4 62.0351C157.812 61.783 141.397 60.3067 151.246 43.9088C161.095 27.5109 175.234 37.5787 180.564 53.17C185.895 68.7613 194.544 59.3057 202.748 66.2696C210.945 73.2334 203.704 75.4875 194.07 74.3425C184.436 73.1974 178.689 64.8293 169.4 62.0351Z" fill="#002416"/>
<path d="M170.361 34.3448C171.194 34.7408 178.486 40.3292 181.223 47.1995C183.96 54.0698 190.62 58.6571 194.24 59.6437C197.861 60.6304 207.258 63.4894 207.552 69.5747C207.825 75.163 215.871 76.1497 215.577 66.0459C215.282 55.9422 212.545 53.8825 203.536 54.2714C194.528 54.6603 191.108 57.6057 191.403 47.7972C191.697 37.9887 181.905 30.924 176.137 30.7224C170.361 30.5135 158.421 28.6555 170.361 34.3448Z" fill="#002416"/>
<path d="M187.886 31.3988C188.145 31.6365 193.719 37.7722 193.468 45.7227C193.216 53.6804 193.367 53.4715 203.942 51.808C214.517 50.1444 210.207 18.1552 194.251 21.9792C178.295 25.8033 184.265 28.0645 187.886 31.3988Z" fill="#00361D"/>
<path d="M226.188 90.9273C226.368 91.0209 234.996 96.2276 232.517 101.982C230.039 107.736 243.545 108.852 245.765 99.886C247.985 90.9201 242.043 85.2957 232.977 86.0806C223.911 86.8656 221.231 88.3059 226.188 90.9273Z" fill="#002416"/>
<path d="M224.307 67.9472C226.685 68.2856 230.96 70.763 228.352 78.8143C224.875 89.5518 238.783 80.4058 235.651 69.1714C232.519 57.937 227.842 56.0286 222.748 59.2477C218.266 62.0851 215.593 66.6941 224.307 67.9472Z" fill="#00361D"/>
<path d="M230.624 175.725C230.2 173.802 229.381 169.805 237.614 167.587C245.631 165.427 236.177 162.877 239.568 160.393C242.959 157.908 247.528 154.898 253.663 160.652C259.798 166.406 269.848 167.976 263.713 174.522C257.578 181.061 255.358 191.662 245.315 185.382C235.265 179.102 232.355 183.553 230.624 175.725Z" fill="#002416"/>
<path d="M206.198 211.062C206.198 211.062 236.306 209.845 235.128 191.921C233.957 173.996 243.088 193.62 249.611 193.095C256.134 192.569 264.618 184.59 266.968 177.655C269.317 170.72 288.764 176.214 278.455 188.514C268.146 200.815 259.532 205.784 250.66 201.333C241.788 196.883 241.392 214.282 229.517 215.592C217.642 216.903 210.983 221.822 205.638 221.217C195.946 220.136 199.28 211.819 206.198 211.062Z" fill="#002416"/>
<path d="M241.526 84.6475C241.526 84.6475 253.53 89.5229 247.007 104.221C240.484 118.92 253.013 133.575 271.67 120.49C290.327 107.404 273.365 76.6178 254.313 72.2248C235.261 67.8391 233.559 82.9479 241.526 84.6475Z" fill="#00361D"/>
<path d="M244.006 39.9187C244.006 39.9187 233.086 58.4986 220.17 54.3794C207.253 50.2601 219.71 32.7748 208.388 23.1535C197.066 13.5395 215.658 -0.589944 234.063 12.1712C252.469 24.9323 244.006 39.9187 244.006 39.9187Z" fill="#002416"/>
<path d="M261.67 59.7805C259.407 62.8052 256.11 64.8648 252.453 65.7794C245.952 67.407 235.556 68.7825 237.216 60.2846C239.601 48.0492 253.208 34.2655 258.955 44.5205C263.409 52.4638 265.04 55.2796 261.67 59.7805Z" fill="#002416"/>
<path d="M39.1543 160.681C38.7448 159.666 38.3138 158.665 37.854 157.671C35.6916 152.947 30.1096 138.529 44.3771 142.152C61.0225 146.379 48.6588 184.101 39.1543 160.681Z" fill="#00361D"/>
<path d="M42.2342 120.54C43.0172 119.856 43.8649 119.259 44.7486 118.718C47.0834 117.278 54.7703 110.437 43.75 86.686C30.9624 59.1329 30.5673 56.4468 38.01 54.9776C45.4454 53.5085 48.513 63.5691 50.4383 80.1902C52.3636 96.8114 57.1266 123.421 47.7299 125.121C39.3677 126.633 37.8807 124.364 42.2342 120.54Z" fill="#002416"/>
<path d="M34.1454 49.5331C43.8008 50.959 47.0623 44.2184 53.5926 73.1325C61.5453 108.37 72.6446 88.8031 63.7723 69.9134C54.9001 51.0238 72.386 37.809 81.1289 37.4201C89.8719 37.0312 92.8748 27.4748 76.955 28.3966C61.0352 29.3184 35.3236 25.2567 30.7546 37.4201C26.1856 49.5835 34.1454 49.5331 34.1454 49.5331Z" fill="#002416"/>
<path d="M11.8882 214.492C11.8882 214.492 8.82785 200.83 21.3568 206.678C33.8857 212.526 43.2321 194.673 43.2321 194.673C43.2321 194.673 48.1388 188.199 51.7739 198.598C55.4162 208.997 64.2813 205.432 67.8733 219.187C71.4653 232.942 43.8643 236.082 36.0337 234.706C28.2031 233.331 15.1426 228.815 11.8882 214.492Z" fill="#002416"/>
<path d="M0.638713 7.08714C0.638713 7.08714 19.9206 16.053 15.9119 30.2689C11.9033 44.4847 27.4926 27.4747 37.4137 25.3862C47.3348 23.2978 76.308 18.9841 88.0538 26.5025C99.7997 34.0209 100.841 31.2195 100.195 27.2586C99.5411 23.2978 83.298 10.9976 56.049 15.9666C28.8001 20.9357 26.1851 15.1745 25.1434 10.4647C24.1017 5.75486 7.14025 -3.39829 2.69334 1.31151C-1.75356 6.02131 0.638713 7.08714 0.638713 7.08714Z" fill="#002416"/>
<path d="M28.7958 239.358C28.7958 239.358 22.3374 248.879 41.2242 248.382C60.1181 247.892 65.4774 242.736 73.1068 246.495C80.7434 250.254 77.6328 237.868 75.183 234.195C72.7333 230.522 68.818 226.403 62.6541 232.387C56.4902 238.372 41.9066 237.392 37.9913 236.701C34.0761 236.01 30.4625 235.534 28.7958 239.358Z" fill="#00361D"/>
<path d="M100.835 256.497C100.835 256.497 95.2238 246.876 107.753 244.492C120.282 242.108 127.652 248.258 131.956 238.45C136.259 228.641 155.124 235.706 147.035 247.473C138.946 259.248 109.319 270.497 100.835 256.497Z" fill="#002416"/>
<path d="M100.656 239.761C100.656 239.761 94.9308 230.082 108.458 230.082C121.986 230.082 133.028 227.936 128.401 234.309C123.775 240.683 125.858 241.669 117.704 240.74C109.557 239.818 104.651 246.545 100.656 239.761Z" fill="#00361D"/>
<path d="M148.632 252.105C148.632 252.105 159.703 250.478 153.173 234.591C146.642 218.704 163.216 226.489 165.558 232.798C167.9 239.106 188.037 245.422 173.015 254.813C157.993 264.204 131.879 260.776 148.632 252.105Z" fill="#00361D"/>
<path d="M176.577 229.557C176.376 229.132 169.752 210.437 184.645 221.859C199.53 233.288 212.562 222.017 212.562 222.017C212.562 222.017 222.311 216.054 220.005 227.382C217.698 238.71 223.884 233.367 202.942 237.565C182.001 241.764 180.148 237.018 176.577 229.557Z" fill="#00361D"/>
<path d="M182.928 248.856C182.755 248.59 182.583 248.323 182.389 248.064C181.132 246.372 175.722 238.45 186.577 241.143C198.704 244.146 203.46 244.262 199.602 249.389C195.823 254.416 187.734 256.223 182.928 248.856Z" fill="#002416"/>
<path d="M227.023 233.503C227.023 233.503 221.821 215.693 231.347 222.146C234.702 224.422 243.201 215.535 239.695 225.826C234.106 242.231 227.993 235.491 227.023 233.503Z" fill="#002416"/>
</g>
<defs>
<clipPath id="clip0">
<rect width="283" height="263" fill="white"/>
</clipPath>
</defs>
</svg>
