<svg width="347" height="276" viewBox="0 0 347 276" fill="none" xmlns="http://www.w3.org/2000/svg">
<g clip-path="url(#clip0)">
<path d="M95.8545 160.642C93.4396 157.757 87.9901 153.952 78.5586 160.764C78.5586 160.764 82.6047 170.047 94.8999 168.74C100.741 168.119 103.933 169.825 105.685 171.782C109.104 175.616 113.506 178.437 118.514 179.586C131.493 182.564 154.837 185.37 180.674 176.423C220.017 162.792 185.696 146.275 163.798 152.681C142.057 159.036 141.73 155.522 131.187 158.85C119.711 162.477 109.361 167.04 102.515 165.098C99.8864 164.341 97.6068 162.735 95.8545 160.642Z" fill="#88C1E0"/>
<path d="M214.93 119.385C210.919 113.465 207.258 111.466 199.707 111.873C201.381 119.856 204.067 121.834 211.333 125.79C220.28 130.66 221.512 139.443 230.416 143.77C260.563 158.409 245.696 161.043 263.598 183.936C290.852 218.79 286.243 181.851 284.113 165.628C281.991 149.404 265.414 134.909 252.15 130.66C234.249 124.919 231.962 132.609 218.997 125.683C214.025 123.027 217.836 123.676 214.93 119.385Z" fill="#88C1E0"/>
<path d="M12.9719 13.875C6.2758 12.9967 2.14417 17.4239 0 23.8148C6.45389 27.8921 11.5329 25.7499 16.2986 20.8014C18.5567 18.4521 20.9217 15.3317 23.3437 18.2951C28.088 24.1075 23.1158 22.6294 30.5171 27.9206C49.7149 41.6521 47.9554 48.8356 61.8035 69.9147C82.8962 102.019 88.4026 72.9709 82.8748 54.441C77.3399 35.9181 56.6817 19.4233 50.4985 15.7173C46.8228 13.518 44.9208 11.69 31.5215 10.8831C26.3854 10.5689 17.8444 14.5177 12.9719 13.875Z" fill="#88C1E0"/>
<path d="M29.2622 248.915C24.8172 247.487 20.5431 249.215 18.3633 254.392C23.2643 257.527 25.8857 256.477 31.499 255.035C34.1632 254.349 35.0465 254.821 38.1809 255.97C44.3213 258.212 41.3864 260.069 50.3549 258.619C73.6203 254.863 76.5623 237.904 82.4605 218.346C91.4362 188.563 71.2339 201.173 64.9866 210.741C58.7393 220.31 56.2247 240.546 52.8268 242.296C42.8539 247.437 42.341 251.122 35.4882 252.086C32.8667 252.457 32.4892 249.951 29.2622 248.915Z" fill="#88C1E0"/>
<path d="M96.5663 158.486C99.7007 162.763 107.829 164.598 109.218 162.599C110.934 160.135 111.739 149.824 107.629 145.219C101.98 138.899 88.4099 133.986 84.606 133.701C84.606 133.701 79.8332 133.387 84.5134 138.656C89.1935 143.926 89.6921 149.096 96.5663 158.486Z" fill="#88C1E0"/>
<path d="M119.053 159.329C117.201 158.715 113.931 157.172 113.419 154.859C112.82 152.167 111.93 150.475 110.932 147.975C110.42 146.697 109.971 143.827 110.291 142.456C110.975 139.571 112.984 138.721 115.221 137.043C116.574 139.485 114.708 140.106 113.461 141.699C112.557 142.855 111.232 144.312 113.183 145.983C118.262 150.325 120.335 148.297 126.861 149.853C127.808 150.082 132.018 152.174 133.314 153.017C135.565 155.287 135.06 155.252 130.964 156.937C129.603 157.501 122.273 160.393 119.053 159.329Z" fill="#88C1E0"/>
<path d="M241.053 41.887C239.215 47.0211 240.212 53.4762 247.079 55.9326C252.151 49.7417 251.681 45.7143 249.679 37.8525C248.725 34.1179 250.926 30.7618 249.23 26.3418C245.911 17.6945 249.124 20.8578 240.575 13.0888C218.393 -7.06212 195.662 -2.88485 176.478 18.3586C147.272 50.7128 178.736 55.0257 191.038 39.5663C203.341 24.1068 213.527 25.7563 219.426 26.4061C236.757 28.3197 236.237 25.6277 244.572 33.4681C247.777 36.4744 242.385 38.1595 241.053 41.887Z" fill="#88C1E0"/>
<path d="M127.766 147.683C138.53 155.331 141.985 156.716 156.73 152.403C169.303 148.718 177.339 149.068 169.026 147.983C165.25 147.49 154.793 154.759 147.399 151.682C132.09 145.298 125.95 146.39 127.766 147.683Z" fill="#466171"/>
<path d="M115.434 145.426C114.579 145.012 112.67 144.891 114.672 143.484C116.097 142.484 117.279 146.112 120.008 145.248C122.672 144.405 121.511 139.228 123.484 138.721C129.46 137.193 140.046 142.07 138.985 144.148C138.415 145.269 132.538 141.42 128.036 144.891C124.203 147.854 120.121 147.704 115.434 145.426Z" fill="#466171"/>
<path d="M76.7144 159.93C76.7144 161.529 72.4901 162.557 90.0994 172.826C107.367 182.894 54.2682 190.299 62.5956 178.91C70.9158 167.52 67.2971 167.049 51.7109 160.137C44.8367 157.088 39.7648 146.662 53.5701 151.268C57.139 152.461 59.967 149.74 63.2937 150.111C70.5098 150.918 76.7144 157.338 76.7144 159.93Z" fill="#CEE8F2"/>
<path d="M96.7242 178.986C96.0332 177.701 95.4704 174.995 95.5274 173.538C95.6129 171.16 97.5291 170.503 105.408 176.666C118.009 186.534 146.489 185.049 146.489 185.049C146.489 185.049 161.227 185.206 145.62 188.576C130.012 191.946 126.28 182.642 109.368 183.521C98.0847 184.113 98.6333 182.557 96.7242 178.986Z" fill="#CEE8F2"/>
<path d="M79.8271 151.167C98.4978 163.099 89.2016 129.917 48.847 129.881C8.49949 129.845 21.6637 138.114 43.1411 144.941C66.784 152.453 67.1259 143.048 79.8271 151.167Z" fill="#A81640"/>
<path d="M157.819 190.727C156.309 189.949 154.649 189.149 157.342 187.521C160.946 185.343 163.525 184.022 171.012 181.637C185.537 177.017 196.742 174.825 199.698 167.348C205.539 152.574 210.113 160.993 206.216 170.59C202.32 180.187 193.052 186.464 180.116 183.322C167.899 180.344 164.608 194.226 157.819 190.727Z" fill="#CEE8F2"/>
<path d="M74.9197 186.971C75.0622 186.964 87.4642 186.671 90.8977 183.672C94.3312 180.673 95.5707 178.488 97.373 183.672C99.1752 188.856 103.456 194.026 98.413 198.439C93.3696 202.852 90.0358 194.312 77.7406 197.682C65.4526 201.053 62.7955 206.987 60.1598 211.678C57.517 216.369 43.4125 217.212 51.7256 204.095C60.0316 190.984 59.6754 187.535 74.9197 186.971Z" fill="#466171"/>
<path d="M116.114 117.163C100.827 114.986 96.0686 125.097 95.1853 128.71C94.1452 132.966 102.152 142.556 109.881 138.157C115.551 134.937 117.553 134.465 119.882 133.937C126.785 132.38 131.672 119.377 116.114 117.163Z" fill="#CEE8F2"/>
<path d="M110.095 110.002C114.526 110.916 122.127 111.201 126.415 115.4C132.491 121.355 130.397 132.73 140.612 135.63C146.161 137.208 149.424 132.373 150.692 127.832C154.289 114.929 150.856 116.335 143.654 105.603C136.452 94.8707 148.868 86.0378 158.563 93.5997C168.265 101.162 174.178 113.201 169.918 124.012C165.658 134.823 155.806 129.81 170.217 134.458C184.621 139.114 180.397 120.477 178.331 112.537C176.258 104.596 181.594 112.58 182.762 116.357C183.923 120.141 184.101 131.367 180.112 135.215C176.123 139.064 168.208 135.779 166.52 136.915C163.82 138.729 171.806 141.92 176.564 140.235C181.316 138.55 187.684 126.804 196.938 134.073C198.077 134.965 199.666 137.079 195.719 135.487C190.918 133.552 186.722 132.373 184.386 137.458C179.72 147.597 169.733 141.778 164.376 141.114C163.443 140.999 161.527 138.964 158.898 139.193C157.267 139.335 153.477 139.821 150.514 140.906C146.738 142.292 140.363 142.535 136.587 139.8C134.236 138.107 126.465 135.344 122.44 137.058C119.705 138.214 119.961 144.191 118.23 143.713C117.71 143.57 114.697 139.928 121.535 135.987C127.775 132.395 150.243 145.898 148.961 136.708C148.619 134.244 143.048 142.692 134.279 133.337C120.866 119.028 135.747 117.749 107.538 114.193C105.408 113.915 104.097 108.766 110.095 110.002Z" fill="#A81640"/>
<path d="M165.18 146.583C162.324 146.469 164.525 143.462 168.471 144.426C172.418 145.39 180.296 147.061 183.409 141.999C187.762 134.929 188.367 131.795 202.002 140.478C218.443 150.939 227.839 165.92 203.676 156.537C179.506 147.147 179.506 147.147 165.18 146.583Z" fill="#466171"/>
<path d="M128.231 90.6511C132.249 81.0398 136.074 84.046 138.339 93.0932C139.942 99.5055 139.045 102.34 142.485 110.252C145.926 118.157 146.489 119.478 145.641 128.518C144.786 137.551 136.957 134.302 134.25 124.462C133.139 120.413 132.12 116.643 125.182 110.352C118.244 104.061 124.213 100.262 128.231 90.6511Z" fill="#466171"/>
<path d="M103.246 185.985C103.324 185.843 112.072 184.722 115.313 185.985C118.554 187.249 116.182 187.306 114.622 187.999C113.062 188.692 110.334 191.612 106.608 188.599C102.883 185.593 102.883 186.65 103.246 185.985Z" fill="#1D3259"/>
<path d="M92.4765 215.062C92.4765 215.062 84.5552 199.581 97.5983 205.272C103.568 207.879 105.684 204.808 106.374 201.509C106.951 198.782 107.215 195.825 105.919 193.362C104.928 191.491 102.756 188.87 103.041 188.192C103.518 187.028 104.173 191.984 111.76 194.29C120.379 196.904 110.563 201.352 110.563 209.935C110.563 218.518 96.2378 223.895 92.4765 215.062Z" fill="#CEE8F2"/>
<path d="M116.897 194.496C118.514 195.967 124.056 200.623 131.258 199.181C138.459 197.738 144.778 190.405 131.913 189.884C127.24 189.698 126.613 187.263 119.269 187.556C117.488 187.627 112.43 190.576 112.473 191.147C112.623 193.49 115.351 193.09 116.897 194.496Z" fill="#466171"/>
<path d="M64.8089 114.371C69.2041 120.148 68.6342 129.095 76.7123 128.859C84.7974 128.617 87.1553 123.24 91.8782 128.295C96.6011 133.351 91.7215 134.872 88.5943 132.787C85.4742 130.702 79.12 134.079 74.3686 130.987C66.1196 125.618 53.2546 127.167 47.4062 124.075C36.2579 118.184 53.8886 100.026 64.8089 114.371Z" fill="#CEE8F2"/>
<path d="M71.0989 108.981C74.5681 115.521 82.2544 114.008 86.2221 113.872C91.7357 113.679 97.2493 113.358 96.1737 118.97C95.1051 124.583 86.8918 124.24 79.4548 126.04C72.6519 127.682 69.6956 121.063 66.5542 112.922C64.5952 107.845 56.3676 106.86 51.9082 107.645C49.7427 108.024 35.574 114.1 38.7298 105.71C42.1419 96.6273 43.303 105.303 49.5504 105.289C56.2536 105.282 69.3038 105.589 71.0989 108.981Z" fill="#466171"/>
<path d="M131.541 145.413C130.088 145.163 131.249 144.584 133.657 144.727C137.44 144.956 139.228 146.255 140.716 144.027C141.457 142.921 146.586 143.356 149.941 142.678C155.362 141.578 161.731 138.75 162.778 143.742C163.74 148.362 154.408 151.232 150.91 150.697C145.133 149.804 141.308 147.005 131.541 145.413Z" fill="#CEE8F2"/>
<path d="M51.3249 104.111C51.3249 104.111 71.8548 102.847 73.9491 109.824C75.6089 115.344 84.5845 111.416 88.2745 109.538C89.9129 108.703 91.0099 107.032 91.0099 105.19C91.0099 101.969 87.7901 97.7347 70.6509 98.0346C43.2254 98.513 43.6386 104.09 51.3249 104.111Z" fill="#1D3259"/>
<path d="M92.0239 112.594C96.5758 112.694 96.8821 111.409 97.9649 115.922C99.0476 120.434 103.186 113.979 102.709 111.273C102.232 108.567 107.753 107.36 112.725 107.846C117.697 108.324 122.277 110.795 120.24 108.21C118.203 105.625 120.212 102.711 122.149 98.5984C124.087 94.4854 114.527 94.1355 113.152 97.306C111.77 100.476 102.994 107.339 98.2641 96.442C95.7993 90.7651 88.6402 98.9626 90.592 100.498C98.7556 106.896 83.896 112.416 92.0239 112.594Z" fill="#CEE8F2"/>
<path d="M111.845 91.1136C111.389 93.8841 110.135 97.0832 107.813 98.6541C105.49 100.225 103.325 98.5755 102.199 96.9332C97.911 90.6709 97.4052 83.9087 93.0955 77.6606C86.9978 68.8062 84.6755 56.8171 85.4021 47.0987C85.687 43.2713 86.8482 43.7711 86.9622 45.1493C88.0378 58.5665 86.6558 65.2716 91.7064 72.6479C92.7749 74.2117 94.5558 76.1968 95.3038 76.7895C96.9279 78.0676 98.5165 78.4318 98.78 78.4175C100.369 78.3247 96.1515 71.941 94.5416 65.0931C93.5015 60.6659 98.6019 52.2614 99.357 54.0251C100.262 56.1459 94.4276 58.2452 95.5887 65.0931C96.009 67.5638 98.1603 72.4194 99.8628 74.5616C105.298 81.4309 104.678 82.2449 111.282 74.5616C117.878 66.8782 126.654 68.1636 133.949 72.5765C135.544 73.5476 132.652 73.6333 131.748 73.1049C123.563 68.3564 114.331 68.2493 110.398 79.1887C108.61 84.1586 115.214 75.0614 116.895 74.3759C122.145 72.2409 132.702 78.1033 132.161 79.7385C131.406 82.0164 122.729 71.5911 116.895 75.954C111.845 79.71 112.806 85.3082 111.845 91.1136Z" fill="#A81640"/>
<path d="M110.144 43.2866C110.45 27.2915 87.8757 20.2223 74.6046 24.3924C61.3406 28.5626 81.0656 37.8383 85.2257 39.7448C89.3787 41.6514 87.8686 51.4769 94.5077 47.1354C101.873 42.3083 109.731 52.4052 100.62 58.2319C92.1427 63.6517 103.255 80.1251 106.796 77.5117C110.628 74.684 109.866 57.9534 110.144 43.2866Z" fill="#466171"/>
<path d="M97.2568 77.1267C99.059 78.1192 97.5916 75.7486 96.7296 73.7206C96.288 72.6781 94.1082 68.0581 93.6808 65.1019C92.6194 57.7541 96.0671 61.0531 93.1536 53.1841C90.2401 45.3151 87.9677 52.9556 88.965 62.4455C89.9623 71.9355 95.6041 76.2127 97.2568 77.1267Z" fill="#CEE8F2"/>
<path d="M121.662 93.4137C117.972 93.4137 115.137 90.1076 115.5 86.423C116.034 81.0746 117.117 73.8983 123.379 77.0687C133.188 82.0315 135.653 82.3028 131.393 83.6238C128.686 84.4664 127.959 86.8728 126.834 88.708C126.363 89.4649 125.43 93.4137 121.662 93.4137Z" fill="#CEE8F2"/>
<path d="M58.3775 94.1059C50.3636 81.7026 57.5369 78.0894 68.9345 83.9162C80.3321 89.743 84.186 85.0944 86.7362 76.7184C89.2864 68.3496 93.532 86.0298 95.2345 88.8004C95.9967 90.05 93.9879 93.1491 91.6086 94.3273C88.1537 96.041 60.8992 98.019 58.3775 94.1059Z" fill="#466171"/>
<path d="M147.758 130.802C149.916 129.824 151.434 118.356 148.399 114.664C146.932 112.879 145.628 113.107 146.255 115.342C149.083 125.554 144.802 132.137 147.758 130.802Z" fill="#CEE8F2"/>
<path d="M175.873 133.823C180.838 132.438 178.323 123.063 177.803 118.178C177.283 113.294 173.323 103.354 172.703 114.872C172.447 119.571 173.216 124.619 168.443 128.704C163.97 132.538 172.197 134.852 175.873 133.823Z" fill="#CEE8F2"/>
<path d="M96.7359 202.965C96.7359 202.965 93.5945 201.13 98.353 200.708C103.111 200.287 102.271 194.575 102.207 193.932C102.143 193.289 102.542 190.969 103.831 194.403C105.127 197.838 104.885 204.122 102.77 204.314C98.9157 204.671 96.7359 202.965 96.7359 202.965Z" fill="#466171"/>
<path d="M125.167 66.7004C116.505 64.5939 108.413 77.4613 112.103 59.4954C115.793 41.5296 139.607 48.7274 146.709 62.0589C155.328 78.2253 149.416 98.8975 142.029 85.4445C135.404 73.3697 142.342 70.8776 125.167 66.7004Z" fill="#CEE8F2"/>
<path d="M150.526 67.5655C153.717 76.7841 155.804 97.3134 169.539 93.7003C182.275 90.3513 185.965 106.896 186.927 117.457C187.112 119.478 186.314 122.127 187.148 125.262C188.33 129.696 191.173 132.353 200.163 130.924C212.55 128.954 203.119 127.454 198.481 118.164C193.844 108.874 191.151 92.315 179.212 88.7161C167.523 85.1886 141.465 41.3808 150.526 67.5655Z" fill="#466171"/>
<path d="M169.556 102.426C171.116 108.217 186.524 111.474 178.667 100.741C170.803 90.0088 168.203 97.4065 169.556 102.426Z" fill="#466171"/>
<path d="M105.641 222.71C106.767 221.931 115.237 214.626 114.56 208.8C113.883 202.973 115.565 196.318 123.728 201.53C131.892 206.743 142.377 194.233 142.377 192.062C142.377 189.898 156.539 186.214 160.065 199.281C163.584 212.356 172.709 213.491 153.903 214.812C135.097 216.126 146.538 206.179 129.092 210.913C111.647 215.647 128.529 225.43 120.373 226.558C112.209 227.687 90.9172 232.899 105.641 222.71Z" fill="#CEE8F2"/>
<path d="M207.445 142.506C207.445 142.506 192.493 133.059 208.67 131.381C224.855 129.71 225.012 154.767 207.445 142.506Z" fill="#1D3259"/>
<path d="M186.064 89.7069C186.064 89.7069 193.43 96.8475 195.51 103.103C196.913 107.33 202.363 109.144 206.302 110.315C207.748 110.743 211.73 111.729 212.799 112.807C214.309 114.335 214.081 114.249 217.678 120.712C223.213 130.651 256.01 117.056 223.284 103.26C223.284 103.26 205.839 97.0046 199.278 87.2934C192.71 77.5964 172.786 78.796 186.064 89.7069Z" fill="#CEE8F2"/>
<path d="M183.03 206.943C175.436 210.292 166.418 207.043 163.02 199.453C161.595 196.268 161.595 193.133 166.033 190.991C174.916 186.707 170.998 183.807 185.744 186.278C200.482 188.749 206.274 175.967 209.772 166.549C213.269 157.13 218.227 165.613 220.884 159.129C223.548 152.646 223.612 160.429 220.222 162.314C216.838 164.199 214.309 161.836 212.4 165.356C210.833 168.241 205.861 176.71 209.187 178.759C211.951 180.466 218.868 174.053 222.793 169.662C226.711 165.27 232.795 158.844 226.647 154.531C220.5 150.218 220.948 143.956 223.855 147.59C226.761 151.232 232.93 154.809 230.75 161.329C228.578 167.848 218.854 177.574 211.545 181.008C208.731 182.329 214.124 183.936 223.499 177.01C232.88 170.083 247.619 173.968 244.848 187.999C244.42 190.163 243.28 189.934 243.11 187.035C241.713 163.985 216.104 183.215 210.505 189.441C204.942 195.625 239.434 204.48 232.296 188.178C230.401 183.857 237.24 185.885 235.922 192.462C233.87 202.702 216.46 200.695 205.519 195.897C194.577 191.098 196.458 201.888 187.66 205.065C185.801 205.736 184.312 206.379 183.03 206.943Z" fill="#A81640"/>
<path d="M160.684 44.0718C165.493 53.4974 171.69 49.9271 178.693 56.1609C185.688 62.3875 184.755 64.7439 180.523 74.191C176.292 83.6381 175.38 82.6312 168.898 75.5549C162.422 68.4714 155.897 64.4512 152.87 54.9041C149.842 45.3571 155.876 34.639 160.684 44.0718Z" fill="#CEE8F2"/>
<path d="M182.069 76.5254C182.439 75.6756 182.959 74.9045 183.558 74.1975C185.624 71.7697 191.429 63.4009 181.599 55.282C169.945 45.6564 190.133 50.2264 192.341 54.1038C194.556 57.9811 205.156 52.3472 195.247 62.0013C185.332 71.6626 194.556 73.4335 194.556 73.4335C194.556 73.4335 205.064 74.2618 193.381 76.9681C183.152 79.3317 180.63 79.7887 182.069 76.5254Z" fill="#466171"/>
<path d="M233.373 31.6413C236.521 32.6838 241.779 35.89 237.611 44.9372C236.215 47.9719 236.123 53.0775 245.141 57.7903C254.743 62.8102 244.949 67.7587 236.614 64.6525C228.28 61.5463 226.313 50.3998 228.707 40.8527C231.1 31.3057 217.644 34.2476 211.326 38.0322C208.255 39.8673 189.136 54.8127 190.233 47.0008C191.323 39.189 204.765 29.8918 212.879 29.3277C219.952 28.835 226.363 29.3277 233.373 31.6413Z" fill="#466171"/>
<path d="M207.363 43.8006C207.363 43.8006 226.903 29.0195 225.336 40.9372C223.769 52.855 213.974 54.1403 223.541 65.3225C237.018 81.0819 202.797 71.5777 199.1 70.9993C197.319 70.7209 191.713 69.2713 199.406 61.4452C210.861 49.7988 199.157 54.6973 197.219 53.4048C195.289 52.1195 198.295 49.456 207.363 43.8006Z" fill="#CEE8F2"/>
<path d="M134.953 39.3162C137.674 38.9734 151.145 38.5093 149.834 45.0215C148.523 51.5338 150.489 61.7306 143.701 54.3829C137.667 47.8564 138.408 47.485 125.906 47.0495C113.704 46.6353 129.653 39.9874 134.953 39.3162Z" fill="#1D3259"/>
<path d="M227.629 57.5896C233.984 66.5868 235.266 68.5719 246.557 66.4225C257.847 64.2732 256.444 70.7426 246.77 72.7563C237.089 74.7699 228.726 68.022 224.353 62.945C219.986 57.868 223.897 52.2983 227.629 57.5896Z" fill="#A81640"/>
<path d="M191.153 211.684C193.091 211.127 197.75 207.157 202.024 208.82C207.131 210.813 214.376 208.613 206.768 199.33C199.167 190.048 197.707 202.465 190.113 205.8C189.251 206.178 179.399 208.556 180.055 211.398C181.301 216.754 190.07 211.998 191.153 211.684Z" fill="#1D3259"/>
<path d="M220.316 170.233C225.473 165.613 222.987 164.134 220.316 163.999C217.645 163.863 214.29 164.67 212.957 167.212C211.618 169.754 209.852 173.896 209.852 176.281C209.852 178.673 215.151 174.853 220.316 170.233Z" fill="#466171"/>
<path d="M214.367 189.798C218.648 186.056 224.817 180.173 228.301 185.107C231.784 190.041 233.102 193.326 229.248 194.232C225.394 195.139 210.278 193.661 214.367 189.798Z" fill="#466171"/>
<path d="M228.837 172.854C233.809 171.219 243.184 170.012 247.657 183.872C248.405 186.2 250.478 188.435 253.278 187.699C262.695 185.229 252.252 172.068 250.692 164.992C248.662 155.774 240.527 153.074 235.647 150.261C230.767 147.448 224.071 143.277 231.323 152.532C237.214 160.058 230.319 168.063 227.213 170.262C224.1 172.454 222.825 174.825 228.837 172.854Z" fill="#466171"/>
<path d="M207.672 91.9712C207.095 91.4999 191.152 72.8343 210.272 75.662C229.398 78.4897 245.59 76.883 257.437 69.3282C269.283 61.7734 272.367 69.3354 263.698 73.6555C257.18 76.9045 235.225 79.368 244.985 100.89C249.009 109.766 252.457 117.335 242.748 118.741C239.286 119.241 242.748 109.03 228.116 103.139C219.718 99.7688 217.972 100.397 207.672 91.9712Z" fill="#466171"/>
<path d="M262.297 76.4117C261.549 76.5331 237.236 82.7383 246.817 99.1118C256.398 115.492 251.811 119.213 239.224 122.155C226.636 125.097 233.546 127.132 246.817 126.296C260.088 125.468 263.5 132.858 265.894 134.429C268.287 136 275.019 127.96 265.894 117.156C256.769 106.345 280.54 73.4555 262.297 76.4117Z" fill="#CEE8F2"/>
<path d="M96.1475 23.2146C105.743 24.8641 112.852 32.3475 112.581 42.223C112.068 61.01 117.967 40.5236 127.505 38.7955C137.043 37.0675 142.735 35.4965 147.714 38.4313C152.694 41.3662 155.85 35.2609 152.117 30.2696C148.384 25.2783 137.599 31.3764 124.884 26.9421C112.168 22.5077 105.807 24.45 100.97 19.323C96.4253 14.5102 82.2566 20.8225 96.1475 23.2146Z" fill="#466171"/>
<path d="M79.0437 241.817C80.4826 237.726 84.0658 211.798 91.5953 219.945C99.1248 228.093 90.7405 231.328 102.523 231.813C114.312 232.292 117.297 237.683 107.495 239.361C97.693 241.039 85.7398 240.682 85.8537 246.673C85.9748 252.664 74.9762 253.378 79.0437 241.817Z" fill="#1D3259"/>
<path d="M93.2694 248.709C92.9346 248.531 85.9037 242.84 103.1 242.718C120.289 242.597 116.748 233.228 115.31 232.386C113.878 231.543 113.343 229.172 121.635 228.473C128.958 227.858 121.186 219.204 124.777 215.884C128.039 212.863 137.578 209.043 141.004 217.069C144.438 225.095 148.263 232.05 136.666 237.441C125.069 242.84 110.366 257.863 93.2694 248.709Z" fill="#466171"/>
<path d="M128.309 244.638C128.566 244.538 149.587 240.282 146.973 228.257C144.351 216.233 141.922 216.318 151.026 218.375C160.13 220.431 167.182 215.39 167.068 213.176C166.947 210.963 182.248 207.607 177.233 220.431C172.211 233.256 170.537 242.617 156.312 244.645C142.079 246.673 102.472 254.578 128.309 244.638Z" fill="#CEE8F2"/>
<path d="M176.84 233.862C176.84 233.862 179.64 214.297 199.707 210.284C203.076 209.613 201.908 214.047 213.014 209.049C217.017 207.249 228.7 203.493 235.175 199.423C246.672 192.197 254.052 184.699 260.47 190.604C270.515 199.83 271.626 223.658 251.146 215.018C236.357 208.777 223.414 207.985 214.324 218.532C205.242 229.071 170.194 252.842 176.84 233.862Z" fill="#CEE8F2"/>
<path d="M64.2342 262.676C64.2342 262.676 57.3031 253.693 76.1875 254.478C95.079 255.264 110.466 258.134 112.026 253.693C113.586 249.251 136.445 251.451 132.862 255.599C129.272 259.755 135.854 275.472 118.636 269.074C101.419 262.676 93.2483 263.661 88.561 266.803C83.2255 270.38 76.0878 270.816 71.486 270.695C68.1664 270.602 67.4256 268.274 64.2342 262.676Z" fill="#CEE8F2"/>
<path d="M176.044 264.74C183.061 258.87 185.49 259.634 182.94 248.045C180.397 236.455 157.217 249.366 146.639 249.544C136.067 249.73 131.209 263.526 136.559 272.244C142.478 281.877 169.028 270.609 176.044 264.74Z" fill="#466171"/>
<path d="M228.771 247.067C239.407 250.359 257.436 286.19 266.718 268.21C276 250.237 265.486 232.364 249.557 223.381C242.391 219.34 231.407 213.656 222.631 216.826C211.903 220.704 215.393 224.96 194.785 239.534C178.244 251.244 218.136 243.768 228.771 247.067Z" fill="#466171"/>
<path d="M282.432 29.7257C258.803 13.0023 263.013 40.6152 256.559 47.3274C250.105 54.0396 244.798 65.8859 259.758 63.0296C270.984 60.8874 272.623 68.1138 271.989 74.3118C270.272 91.1566 272.929 95.3339 278.471 95.2125C289.805 94.9697 305.562 46.092 282.432 29.7257Z" fill="#CEE8F2"/>
<path d="M273.05 120.549C273.05 120.549 257.101 87.2808 279.818 102.833C302.534 118.393 304.707 106.939 310.669 91.3367C316.639 75.7272 331.506 83.2963 329.212 97.0064C326.918 110.716 315.642 113.744 308.967 117.507C302.292 121.27 279.917 137.087 273.05 120.549Z" fill="#466171"/>
<path d="M285.795 103.89C285.795 103.89 277.189 99.9981 282.924 96.5491C288.665 93.1002 288.281 86.7522 290.745 93.9428C293.21 101.133 300.939 101.241 300.462 104.725C299.479 111.951 293.139 107.489 285.795 103.89Z" fill="#1D3259"/>
<path d="M331.877 96.3494C331.877 96.3494 335.011 82.7964 325.623 81.4826C316.241 80.1687 337.612 55.712 341.822 64.9805C346.031 74.2491 349.928 74.4276 343.894 81.354C341.401 84.2174 343.168 89.7943 343.275 90.0371C344.764 93.386 327.225 105.768 331.877 96.3494Z" fill="#CEE8F2"/>
<path d="M306.44 122.468C306.689 122.318 335.454 102.346 331.144 116.32C326.842 130.294 332.263 123.746 315.366 129.416C298.469 135.086 322.019 144.283 323.337 145.118C324.655 145.954 330.033 152.302 318.08 152.423C306.119 152.544 288.667 152.187 295.007 139.963C301.339 127.738 293.404 130.33 306.44 122.468Z" fill="#CEE8F2"/>
<path d="M279.575 148.469C278.03 145.813 267.836 136.366 273.05 133.01C278.258 129.653 279.098 132.531 285.075 130.91C291.051 129.289 296.615 127.733 294.606 133.01C292.604 138.287 288.059 143.806 293.801 151.468C299.543 159.137 294.285 173.761 279.575 148.469Z" fill="#A81640"/>
<path d="M271.591 215.904C270.629 223.024 278.622 226.801 280.987 220.317C283.758 212.727 301.182 215.298 304.295 213.648C319.504 205.565 305.641 184.786 298.105 171.832C290.575 158.879 288.26 170.033 288.495 190.819C288.737 211.606 276.492 200.509 272.239 197.239C260.051 187.835 273.108 204.665 271.591 215.904Z" fill="#466171"/>
<path d="M301.659 172.082C301.659 172.082 293.132 146.09 313.691 159.564C334.256 173.039 331.222 194.432 331.222 194.432C331.222 194.432 322.958 211.698 312.672 189.834C311.34 187.006 309.695 184.335 307.778 181.865C305.72 179.201 303.105 175.488 301.659 172.082Z" fill="#466171"/>
<path d="M332.419 180.55C332.433 180.236 331.522 173.038 327.098 169.982C322.674 166.926 334.734 168.547 336.444 171.003C338.154 173.459 337.797 174.895 336.123 177.894C334.456 180.886 332.241 185.37 332.419 180.55Z" fill="#1D3259"/>
<path d="M307.028 254.314C309.058 241.447 318.625 245.724 312.192 233.099C305.76 220.468 312.584 223.331 319.665 217.826C326.746 212.32 331.419 212.17 321.588 203.537C310.127 193.469 316.267 201.052 312.969 207.043C308.937 214.384 307.982 219.075 293.322 218.725C278.961 218.382 282.074 230.786 283.057 232.728C284.055 234.67 304.998 267.174 307.028 254.314Z" fill="#CEE8F2"/>
<path d="M312.55 246.052C314.459 244.638 315.827 242.596 316.133 240.239C316.275 239.111 316.261 237.89 315.933 236.669C314.794 232.506 317.842 235.319 322.06 238.825C326.277 242.331 327.288 241.939 327.288 241.939C327.288 241.939 332.788 242.717 328.093 244.338C323.399 245.959 325.137 249.579 320.621 247.637C316.916 246.037 311.232 247.03 312.55 246.052Z" fill="#1D3259"/>
<path d="M289.898 270.93C291.038 265.775 298.995 264.404 299.173 260.826C299.372 256.834 297.178 256.342 292.007 250.051C286.928 243.874 288.616 244.538 280.916 232.492C273.215 220.446 243.553 213.855 263.399 230.307C272.973 238.24 276.15 246.052 271.812 262.004C267.466 277.942 289.157 274.272 289.898 270.93Z" fill="#A81640"/>
<path d="M93.5606 51.1915C93.6817 53.8549 95.719 55.0617 98.1552 53.1123C100.193 51.4842 99.5301 53.6693 101.005 54.5047C102.479 55.3473 103.747 53.2765 103.469 51.1272C103.227 49.2278 99.872 46.1716 97.5355 47.1641C95.2061 48.1424 93.4395 48.5209 93.5606 51.1915Z" fill="#CEE8F2"/>
<path d="M126.777 134.451C124.276 134.137 124.02 133.815 124.946 132.523C125.872 131.23 127.98 128.081 129.22 129.067C130.459 130.045 132.326 133.594 133.822 134.487C135.318 135.379 133.437 136.215 132.312 135.729C131.186 135.243 129.277 134.765 126.777 134.451Z" fill="#CEE8F2"/>
<path d="M33.3806 163.413C36.6432 164.834 51.4814 167.155 49.6364 175.745C47.7914 184.335 38.3101 191.248 48.8956 186.806C59.4811 182.365 69.3329 168.84 58.0065 165.484C46.6802 162.128 43.6099 159.636 43.1113 155.823C42.6127 152.01 34.4634 153.923 31.0441 154.295C25.8083 154.852 26.6703 160.5 33.3806 163.413Z" fill="#CEE8F2"/>
<path d="M38.7724 200.901C38.7724 200.901 43.3528 196.61 43.1035 193.339C42.8542 190.069 47.0784 188.769 48.8735 189.455C50.6758 190.133 58.6113 189.519 54.9214 194.946C51.2243 200.38 45.6893 209.692 47.285 214.076C48.8878 218.46 39.962 214.818 39.7768 210.37C39.5987 205.928 36.0441 203.872 38.7724 200.901Z" fill="#466171"/>
<path d="M297.072 45.2567C297.029 44.4212 302.407 13.1952 321.299 31.8466C334.292 44.6712 340.518 49.0627 336.821 56.5318C335.14 59.9236 327.24 65.1862 324.326 69.9847C315.002 85.3371 308.548 71.9555 304.48 90.3927C300.413 108.83 287.028 91.1639 297.065 75.7901C307.109 60.4163 298.269 70.1347 297.072 45.2567Z" fill="#466171"/>
<path d="M34.648 237.197C34.4486 237.054 19.9522 226.501 29.0632 222.138C38.1742 217.775 37.1484 213.947 43.8587 217.632C50.5691 221.316 48.9235 215.483 53.6037 216.711C58.2838 217.939 58.8252 220.902 55.5555 229.707C52.3001 238.511 48.5246 246.987 34.648 237.197Z" fill="#CEE8F2"/>
</g>
<defs>
<clipPath id="clip0">
<rect width="347" height="276" fill="white"/>
</clipPath>
</defs>
</svg>
