<svg width="323" height="275" viewBox="0 0 323 275" fill="none" xmlns="http://www.w3.org/2000/svg">
<g clip-path="url(#clip0)">
<path d="M50.4157 168.925C61.0544 172.19 61.1947 184.036 61.4121 186.452C61.6295 188.869 61.6295 206.775 54.7006 199.959C45.9974 191.391 43.6481 195.363 41.2917 202.214C38.9353 209.065 36.7683 222.803 29.1942 213.857C21.6201 204.911 21.9146 192.799 25.7437 184.386C29.5799 175.972 38.4584 165.254 50.4157 168.925Z" fill="#94763D"/>
<path d="M274.982 244.479C276.855 234.083 281.434 232.955 284.534 237.277C287.129 240.899 293.749 237.277 301.463 242.72C306.562 246.321 313.224 238.398 310.931 234.412C307.663 228.731 296.295 224.927 286.448 222.23C276.602 219.54 267.443 226.944 261.945 234.503C255.549 243.967 273.601 252.17 274.982 244.479Z" fill="#A19172"/>
<path d="M279.538 115.503C278.171 115.356 276.873 114.725 276.004 113.654C274.657 112 274.875 110.263 277.624 108.645C281.292 106.487 286.537 106.739 290.107 104.364C293.677 101.99 294.82 102.123 293.852 96.5255C292.884 90.9283 302.709 91.6569 305.122 96.6446C307.534 101.632 308.222 107.776 304.133 110.809C300.29 113.646 288.592 116.456 279.538 115.503Z" fill="#94763D"/>
<path d="M309.315 95.2095C310.03 92.0852 315.311 90.8733 316.37 86.4949C317.429 82.1166 319.343 86.9223 321.02 91.0064C322.696 95.0904 323.804 100.667 322.261 104.169C320.718 107.665 317.815 115.763 315.984 115.7C313.27 115.595 314.49 108.814 312.688 107.735C309.792 105.984 307.968 101.087 309.315 95.2095Z" fill="#A19172"/>
<path d="M284.629 159.938C301.032 161.794 302.617 151.447 308.936 136.575C314.336 123.86 291.754 123.489 284.426 126.817C266.234 135.076 265.666 157.787 284.629 159.938Z" fill="#673C0E"/>
<path d="M307.961 139.112C304.342 135.203 300.296 131.049 295.955 136.135C291.62 141.22 286.641 143.378 290.863 147.742C294.447 151.455 296.873 153.157 300.955 153.998C303.08 151.063 305.843 144.282 307.961 139.112Z" fill="#B77813"/>
<path d="M257.204 147.539C252.645 139.35 242.259 129.08 244.973 120.576C247.54 112.541 263.466 107.518 269.119 111.224C274.771 114.923 280.129 123.021 275.234 128.233C270.893 132.849 265.584 137.592 268.418 151.098C271.132 164.037 260.668 153.76 257.204 147.539Z" fill="#94763D"/>
<path d="M267.723 163.946C265.71 162.391 268.775 155.106 272.26 157.992C276.994 161.908 283.706 163.617 288.411 162.86C293.117 162.104 292.409 164.226 289.064 166.3C282.822 170.174 274.764 169.382 267.723 163.946Z" fill="#A19172"/>
<path d="M41.5157 207.266C41.6629 205.879 45.5201 195.666 49.202 198.384C52.8838 201.102 54.9527 203.196 52.1685 204.254C49.3773 205.312 40.9476 212.506 41.5157 207.266Z" fill="#A19172"/>
<path d="M90.3694 174.796C96.8495 180.162 108.673 197.129 94.0934 199.006C79.5132 200.891 72.2477 213.507 67.1142 199.188C61.9736 184.87 60.3325 178.102 68.5939 173.269C76.8623 168.428 83.8894 169.43 90.3694 174.796Z" fill="#673C0E"/>
<path d="M140.643 166.243C140.194 170.005 141.218 175.392 144.409 176.176C147.6 176.961 147.825 176.8 151.156 175.104C154.487 173.409 158.197 170.95 153.842 166.53C152.811 165.486 152.467 162.628 153.26 161.066C153.295 161.003 141.176 161.801 140.643 166.243Z" fill="#B77813"/>
<path d="M234.963 183.111C225.938 179.98 222.326 175.532 217.487 167.665C216.793 174.831 213.468 179.258 206.203 180.505C205.193 192.667 217.017 198.957 219.275 200.421C221.533 201.886 221.197 203.013 219.703 202.831C218.209 202.649 202.795 191.805 199.94 180.884C196.076 181.255 191.763 181.423 188.193 182.054C183.354 189.003 196.202 196.856 198.257 197.858C200.88 199.133 201.217 200.926 198.383 200.288C195.55 199.651 180.444 189.276 179.196 183.504C170.717 176.575 171.643 173.556 171.152 162.11C170.689 151.356 130.539 125.899 117.747 129.493C116.359 129.885 114.058 131.735 113.687 133.458C113.161 135.889 112.361 139.209 111.927 141.087C111.148 144.435 111.05 146.334 108.967 148.785C107.915 150.025 105.797 148.975 105.636 147.244C105.341 144.043 106.26 139.587 106.842 136.68C107.424 133.773 106.099 131.854 104.977 130.109C103.862 128.365 102.333 127.826 102.838 126.053C103.35 124.288 104.275 125.675 105.664 126.775C107.052 127.868 108.792 128.365 111.085 126.004C112.291 124.764 116.254 123.356 119.171 123.216C136.921 122.361 164.679 148.134 185.725 152.827C196.63 151.812 211.315 146.775 217.599 160.778C220.397 166.992 225.882 179.98 234.963 183.111Z" fill="#B77813"/>
<path d="M256.432 240.233C256.467 230.215 261.972 223.539 269.666 217.584C262.141 214.166 258.606 208.849 255.696 201.304C239.769 197.122 242.42 203.182 251.074 213.472C251.902 214.159 250.738 215.693 249.637 214.404C239.706 202.782 237.209 197.879 254.994 195.805C256.082 192.583 257.372 189.157 258.326 186.061C254.56 180.891 245.183 182.509 241.866 190.992C241.137 192.863 239.783 191.448 240.071 190.089C241.263 184.491 253.879 175.945 258.859 177.262C269.315 168.274 268.628 171.378 282.128 171.987C294.815 172.561 320.84 136.428 312.312 123.798C311.386 122.424 308.462 120.862 306.702 121.023C304.226 121.248 300.818 121.717 298.812 121.829C295.235 122.025 293.23 122.586 290.095 121.304C288.51 120.659 289.197 118.544 290.705 117.92C293.503 116.757 297.711 116.085 300.523 115.678C303.335 115.265 305.047 113.458 306.639 112.057C308.231 110.656 308.132 108.771 310.117 108.813C312.102 108.855 310.903 110.361 310.419 111.846C308.904 116.526 317.572 117.156 319.585 124.407C325.875 147.118 297.466 168.043 288.615 187.63C287.058 202.859 292.283 210.81 275.22 218.768C267.632 222.292 257.561 230.362 256.432 240.233Z" fill="#B77813"/>
<path d="M107.271 87.7421C99.6055 86.5442 94.9207 84.6668 90.1589 78.4671C88.9316 84.9049 86.463 87.7981 79.8567 88.7228C79.6954 97.8647 85.4391 105.367 81.6521 114.089C80.8456 115.952 78.938 116.015 79.5061 114.551C83.9523 103.098 77.7668 99.476 74.3024 88.8489C70.7398 89.3183 67.3174 89.1782 63.6987 90.1239C61.6088 97.1502 56.37 109.928 52.6391 114.572C50.5983 117.115 50.9419 114.565 51.0752 114.25C54.9884 104.961 59.9887 101.585 55.5775 90.6703C48.9993 82.376 48.9362 78.1869 51.2505 67.9871C53.4245 58.4039 31.9997 22.817 22.1253 20.4562C14.965 18.7469 10.161 25.2688 8.77245 26.4527C6.30386 28.5613 4.74696 30.2146 2.27135 30.5018C0.896795 30.6629 -0.274385 29.1217 0.0341896 28.4703C1.542 25.2898 5.19579 22.6278 7.47503 20.7504C9.76129 18.873 10.168 16.7784 10.5818 14.7819C10.9886 12.7854 10.0138 11.6015 11.5636 10.6208C13.1135 9.64001 12.7629 11.1251 13.3029 12.7434C13.8429 14.3616 15.7855 15.2793 18.3453 14.7118C20.5053 14.2355 25.5897 15.2723 27.8479 16.5823C41.5865 24.5613 51.6572 52.2743 65.0802 64.3374C73.5239 64.7087 85.9511 62.6421 90.0747 71.5318C95.4117 83.0275 95.0891 83.9943 107.271 87.7421Z" fill="#B77813"/>
<path d="M135.711 63.2782C138.411 73.7721 132.127 91.0332 148.881 89.5971C165.635 88.154 157.093 80.175 172.508 79.1382C187.923 78.1014 182.095 70.0943 172.136 64.9384C162.178 59.7825 157.921 62.6827 152.843 53.9331C147.766 45.1835 144.849 36.1186 133.803 44.4549C122.757 52.7842 133.207 53.5268 135.711 63.2782Z" fill="#B77813"/>
<path d="M115.692 81.2823C126.541 79.6291 136.577 79.573 139.572 67.5029C142.938 53.9547 159.797 43.9161 145.091 38.522C130.385 33.1279 126.976 34.9843 115.356 35.2855C103.742 35.5798 80.9495 52.7918 88.1168 61.3172C95.2842 69.8427 92.8647 76.2735 101.379 80.5328C103.826 81.7517 110.425 82.0809 115.692 81.2823Z" fill="#673C0E"/>
<path d="M115.939 71.9861C123.885 73.3171 138.724 65.303 134.874 56.4203C131.017 47.5306 129.916 46.4658 121.809 45.2259C113.702 43.9859 115.63 43.3905 104.718 48.042C93.7989 52.6865 101.064 69.5062 115.939 71.9861Z" fill="#B77813"/>
<path d="M79.6306 194.613C84.2522 196.239 94.0494 192.981 92.6468 187.23C91.2442 181.478 90.7112 180.729 85.9564 179.132C81.2086 177.542 82.4358 177.387 75.3877 179.048C68.3326 180.715 70.9765 191.58 79.6306 194.613Z" fill="#B77813"/>
<path d="M167.472 59.4825C168.545 59.7837 175.439 62.5368 180.278 66.803C184.563 70.5719 186.688 75.987 189.998 75.2094C196.197 73.7593 191.358 53.514 186.358 49.2618C181.358 45.0166 181.365 35.6785 175.46 41.556C169.562 47.4334 160.227 49.1357 158.166 54.6629C156.735 58.4948 161.616 57.8433 167.472 59.4825Z" fill="#94763D"/>
<path d="M152.911 161.535C157.546 155.728 149.257 149.346 145.596 146.782C142.118 144.344 139.123 142.971 136.64 141.444C131.219 138.11 124.164 138.901 124.108 144.071C124.031 151.308 124.234 158.649 121.366 163.469C109.339 183.721 146.452 169.634 152.911 161.535Z" fill="#673C0E"/>
<path d="M209.947 138.244C221.182 141.06 223.636 159.904 220.375 157.179C213.369 151.316 213.706 150.251 204.603 148.696C199.385 147.806 194.301 150.125 188.143 149.284C172.925 147.183 198.712 135.428 209.947 138.244Z" fill="#673C0E"/>
<path d="M152.181 147.715C151.542 148.569 157.504 155.659 157.286 159.918C157.069 164.177 156.886 165.55 158.52 167.182C160.414 169.081 163.079 176.528 163.303 179.526C163.773 185.81 177.266 190.566 173.598 184.226C169.931 177.88 168.016 174.972 167.75 165.214C167.469 154.867 153.527 145.921 152.181 147.715Z" fill="#94763D"/>
<path d="M196.303 125.429C201.395 127.342 204.2 124.266 205.112 119.159C206.024 114.052 193.681 100.616 190.188 104.742C186.696 108.869 180.713 108.364 178.357 112.476C176.267 116.133 180.209 118.886 182.53 120.581C187.67 124.35 192.096 123.853 196.303 125.429Z" fill="#A19172"/>
<path d="M161.411 39.02C166.06 41.8291 163.872 51.2793 157.455 48.9745C152.441 47.1742 154.461 44.4491 154.72 42.1794C154.952 40.1198 145.975 34.9289 133.134 32.456C128.113 31.4823 132.482 21.5418 161.411 39.02Z" fill="#94763D"/>
<path d="M161.925 137.058C159.821 137.64 151.406 135.937 142.562 125.605C138.277 120.603 138.712 111.622 145.494 112.014C152.275 112.407 158.096 117.451 159.548 123.258C160.866 128.512 170.642 134.634 161.925 137.058Z" fill="#A19172"/>
<path d="M175.438 126.187C177.949 129.066 186.084 133.76 181.967 124.996C178.426 117.458 170.508 117.15 178.538 108.59C187.711 98.8032 175.62 95.6509 166.517 99.2446C158.004 102.607 160.718 107.098 166.139 111.721C173.215 117.76 173.488 123.952 175.438 126.187Z" fill="#673C0E"/>
<path d="M193.874 102.663C201.512 107.623 206 111.462 207.929 120.176C209.429 126.958 207.957 129.627 213.385 133.318C218.82 137.017 224.711 138.313 223.799 129.108C222.887 119.903 216.8 116.625 211.176 107.91C210.748 107.245 205.257 96.6316 200.446 100.485C198.208 102.278 189.982 100.134 193.874 102.663Z" fill="#94763D"/>
<path d="M206.961 149.094C208.987 149.094 210.278 146.978 210.895 145.22C211.512 143.461 210.046 141.941 207.781 140.666C205.972 139.651 202.037 140.435 199.849 141.024C198.426 141.409 198.306 142.684 198.194 144.057C198.075 145.514 197.78 148.134 199.211 148.659C199.211 148.652 204.941 149.094 206.961 149.094Z" fill="#B77813"/>
<path d="M67.4159 55.0958C66.8128 59.6212 69.9967 64.651 76.7222 61.8349C81.1615 59.9785 84.3875 52.0275 89.0652 44.6999C93.7499 37.3794 101.317 33.5265 110.995 31.7962C114.284 31.2077 121.585 31.551 125.168 31.579C126.634 31.586 128.401 32.2235 128.998 30.3881C130.099 27.0045 124.25 25.3093 116.086 25.0641C103.996 24.6928 71.0206 38.2901 67.4159 55.0958Z" fill="#A19172"/>
<path d="M113.127 83.4112C122.567 82.8438 126.901 81.4848 130.821 80.1187C134.741 78.7527 134.896 83.5093 133.865 87.124C132.834 90.7388 136.13 94.7458 133.163 99.0541C130.197 103.369 121.417 101.212 116.227 100.196C111.037 99.1802 108.856 95.3833 110.35 90.7528C111.844 86.1223 107.671 86.3605 104.613 84.6722C103.695 83.8175 107.503 83.7545 113.127 83.4112Z" fill="#A19172"/>
<path d="M191.78 91.6091C188.252 91.9244 183.484 84.6248 183.434 80.6038C183.392 76.5827 183.28 75.581 186.471 77.2272C189.662 78.8735 190.742 79.4199 192.615 76.0223C194.487 72.6248 200.161 77.6616 201.633 79.2518C208.282 88.0784 201.283 90.7685 191.78 91.6091Z" fill="#A19172"/>
<path d="M253.085 39.4889C251.612 47.9022 238.785 48.0423 230.566 48.2595C218.679 63.9514 217.438 86.8097 200.326 97.878C197.654 99.6013 192.513 98.7957 191.812 98.7117C188.453 98.2984 187.555 100.099 186.629 101.402C185.704 102.705 186.51 104.589 184.834 103.65C183.151 102.712 184.091 101.241 183.621 99.3141C183.151 97.3877 183.186 94.3053 180.998 92.8482C178.81 91.3841 175.892 90.8167 173.915 88.8202C173.515 88.4139 173.578 86.6205 174.335 86.7186C178.606 87.286 184.112 89.8219 186.98 92.1967C189.014 93.885 190.746 94.5925 192.254 94.8728C210.256 98.1512 219.289 57.8568 216.785 46.5922C214.12 34.6062 213.777 33.2471 218.819 23.1805C218.483 13.3661 210.817 0.378277 226.534 0.68651C228.406 0.721537 229.156 2.54291 225.909 2.35377C213.826 1.64624 221.246 18.7322 227.312 22.7322C230.18 23.0895 233.343 22.5571 236.324 22.2838C235.223 8.63753 233.932 5.78637 247.285 0.112076C248.569 -0.406316 248.933 1.26795 247.545 1.77233C236.05 6.64802 236.282 10.2978 241.717 22.2979C248.379 23.8951 250.651 25.7094 253.022 32.1753C257.552 26.2348 263.654 25.8145 268.261 26.2068C268.268 26.1858 255.532 25.4993 253.085 39.4889Z" fill="#B77813"/>
<path d="M160.683 211.391C153.186 210.894 148.424 211.769 142.085 215.734C142.141 208.848 140.661 206.354 134.987 202.508C134.132 189.359 133.136 187.356 147.688 185.352C149.743 185.072 151.153 183.517 148.221 183.699C134.454 184.54 133.669 187.664 129.945 200.589C127.056 199.79 123.907 199.174 121.347 197.829C117.083 191.937 117.756 176.96 125.05 177.401C129.04 177.647 127.168 176.098 126.635 176.049C113.64 174.872 116.403 185.948 113.254 195.251C104.951 202.88 104.852 204.302 103.085 216.442C101.43 227.846 78.8059 262.39 63.0897 252.96C61.7782 252.169 60.4387 250.915 59.1203 248.61C57.2618 245.374 53.0329 241.072 49.2249 239.027C48.5446 238.663 47.8573 240.323 48.0887 240.841C49.2319 243.405 51.7636 244.967 53.2924 247.111C54.8213 249.255 53.6992 252.127 53.4607 254.095C53.2223 256.064 51.8197 257.108 53.061 258.586C54.3023 260.057 55.6698 254.004 61.3294 256.421C61.9746 256.694 66.484 259.314 69.5837 258.642C89.4868 254.32 98.723 233.36 115.372 222.873C123.163 225.563 133.374 228.533 139.539 222.6C147.506 214.943 149.869 212.323 160.683 211.391Z" fill="#B77813"/>
<path d="M176.109 130.705C178.494 132.449 184.406 131.44 187.148 132.841C189.89 134.242 190.682 138.011 186.453 140.176C182.225 142.341 181.53 142.551 180.927 145.829C180.121 150.222 165.253 142.502 163.465 139.945C161.578 137.241 169.748 139.363 167.827 133.549C166.564 129.738 171.845 127.594 176.109 130.705Z" fill="#A19172"/>
<path d="M100.322 156.107C103.674 157.354 114.152 163.372 112.917 170.251C111.683 177.13 116.936 185.207 107.048 184.997C98.155 184.808 99.7469 176.577 90.2092 170.748C77.6699 163.085 72.4311 173.747 61.2383 167.953C58.91 166.748 61.4627 155.267 71.835 156.738C82.2003 158.209 86.4221 150.93 100.322 156.107Z" fill="#94763D"/>
<path d="M44.4847 157.003C42.0162 158.152 40.0595 160.001 39.4844 162.831C39.0847 164.786 46.4063 165.395 51.7573 166.397C57.3116 167.441 58.2093 162.894 58.2163 158.74C58.2233 155.623 46.6378 156.001 44.4847 157.003Z" fill="#A19172"/>
<path d="M48.123 152.142C47.7934 151.868 46.3067 149.045 51.9241 147.294C57.5416 145.543 62.64 146.446 66.1466 149.206C69.6531 151.973 68.4679 153.564 65.1227 154.523C61.7704 155.49 52.2327 155.553 48.123 152.142Z" fill="#94763D"/>
<path d="M58.831 144.639C64.1609 145.052 67.9129 147.672 70.9705 151.672C72.6397 153.851 72.3591 155.399 75.7885 155.035C78.8182 154.72 87.6616 150.376 94.9482 152.233C101.702 153.949 97.543 143.574 93.0266 143.56C85.179 143.539 84.5057 145.865 77.8153 146.895C72.1487 147.763 68.8947 139.798 65.3882 137.395C61.8816 134.986 59.7286 137.038 57.4985 139.392C55.2824 141.753 55.5348 143.889 58.831 144.639Z" fill="#A19172"/>
<path d="M99.8282 149.304C98.2222 146.6 99.8984 143.644 97.4157 141.276C94.9401 138.915 96.504 136.183 99.19 137.634C101.876 139.084 103.258 138.418 103.545 141.921C103.84 145.423 103.671 155.77 99.8282 149.304Z" fill="#94763D"/>
<path d="M102.362 154.67C105.336 155.987 114.081 161.556 114.299 165.893C114.523 170.229 117.328 169.858 117.398 166.923C117.469 163.994 113.71 161.669 113.85 158.145C113.99 154.621 110.427 154.453 108.499 154.901C106.57 155.35 105.308 154.943 105.105 153.605C104.915 152.267 99.396 153.346 102.362 154.67Z" fill="#A19172"/>
<path d="M109.25 150.383C107.882 150.411 107.202 151.077 106.662 152.345C106.269 153.248 107.202 153.753 108.296 153.578C110.337 153.248 112.882 152.912 114.376 154.558C114.916 155.154 114.944 155.742 114.986 156.401C115.063 157.473 114.972 158.495 115.211 159.511C115.835 162.173 118.879 162.264 120.071 160.38C122.252 156.933 119.938 152.758 117.097 151.77C113.836 150.635 112.167 150.327 109.25 150.383Z" fill="#94763D"/>
<path d="M122.006 142.222C122.272 136.562 129.874 136.015 135.232 138.215C141.467 140.779 142.281 144.639 148.403 145.361C154.525 146.075 136.775 134.958 133.304 133.865C129.825 132.779 124.755 130.509 119.215 131.574C114.116 132.555 113.394 140.842 113.169 146.18C113.043 149.368 121.382 155.434 122.006 142.222Z" fill="#A19172"/>
<path d="M79.0443 135.447C78.6376 135.447 73.7144 135.938 71.7367 137.577C69.7591 139.216 66.5822 136.393 67.0941 132.358C67.6131 128.323 70.6427 120.89 76.4986 122.873C82.3545 124.855 83.5678 130.768 89.4657 126.831C95.3637 122.901 98.5406 125.969 100.616 128.975C102.692 131.98 102.461 131.384 103.723 132.834C104.979 134.285 106.073 136.253 103.983 136.652C101.893 137.052 99.1157 134.985 96.6611 135.623C94.2066 136.26 93.8208 136.561 94.5572 138.803C95.2936 141.045 93.7577 142.439 90.2091 140.267C86.6605 138.074 88.2735 135.426 79.0443 135.447Z" fill="#673C0E"/>
<path d="M111.276 102.278C110.666 102.026 110.308 101.746 109.642 102.684C107.931 105.087 108.66 108.05 110.589 110.803C113.352 114.733 117.651 111.182 123.443 114.558C129.236 117.935 133.297 121.206 133.22 114.159C133.143 107.112 138.122 106.264 129.783 104.583C121.795 102.964 118.05 105.059 111.276 102.278Z" fill="#B77813"/>
<path d="M134.404 124.19C141.158 126.915 138.647 123.966 138.276 121.192C137.897 118.425 137.532 118.095 135.113 120.771C132.7 123.447 126.865 120.113 123.962 117.815C121.059 115.524 119.6 116.358 115.35 116.428C111.1 116.498 107.369 109.99 103.365 108.316C99.3601 106.642 99.3531 112.757 100.608 116.141C101.864 119.524 106.983 128.694 110.539 124.365C115.483 118.347 127.651 121.465 134.404 124.19Z" fill="#94763D"/>
<path d="M73.923 143.084C70.0799 140.689 68.0741 131.505 73.8739 129.319C79.6737 127.133 89.492 131.442 87.3671 138.167C85.2491 144.885 77.7662 145.48 73.923 143.084Z" fill="#B77813"/>
<path d="M73.3606 118.095C79.2446 117.065 77.9892 113.192 79.4129 108.981C80.8295 104.771 75.3313 99.4121 74.4406 105.079C73.55 110.747 75.2471 111.286 68.2131 109.416C61.179 107.545 55.9052 107.167 55.7018 116.365C55.4984 125.563 67.4767 119.125 73.3606 118.095Z" fill="#A19172"/>
<path d="M82.7663 117.563C85.6907 114.467 85.1086 103.524 84.3512 100.946C82.6821 95.258 85.0876 90.6836 89.7443 86.7326C91.2801 85.4296 92.7529 85.4366 94.6885 86.2842C98.5667 87.9795 104.829 88.2107 107.038 92.3298C109.255 96.4489 109.03 101.773 105.524 104.946C103.153 107.09 101.372 103.104 98.5106 106.663C95.6563 110.221 97.2693 117.255 99.1978 120.4C101.126 123.545 101.989 125.71 97.9846 123.903C93.9801 122.095 91.6658 123.826 87.7175 125.822C83.7691 127.819 79.0634 121.493 82.7663 117.563Z" fill="#A19172"/>
<path d="M134.974 100.512C134.188 101.486 133.066 101.941 134.967 103.223C136.867 104.505 137.66 107.399 136.334 109.514C135.009 111.623 135.787 115.63 138.389 112.316C140.991 109.003 144.68 108.057 148.853 109.78C153.025 111.504 158.538 114.278 160.024 117.878C161.504 121.479 164.976 133.059 167.872 127.539C170.768 122.026 173.511 120.695 163.117 111.826C155.697 105.493 157.423 102.341 163.012 97.2129C167.059 92.5193 166.687 85.9694 160.403 88.8766C154.112 91.7838 142.148 95.7277 139.098 91.2303C136.047 86.7329 135.016 87.9659 135.661 90.733C136.306 93.5071 137.814 97.9694 134.974 100.512Z" fill="#94763D"/>
<path d="M61.3553 103.173C59.9597 105.555 57.5613 106.795 61.1379 106.795C64.7146 106.795 65.1283 106.024 69.3853 107.874C73.6422 109.723 72.0923 106.305 72.8918 103.131C73.6983 99.9578 76.2791 98.1294 74.1892 94.928C73.3196 93.59 71.5874 93.2047 70.2128 92.9876C68.1229 92.6513 66.1593 92.9245 65.3247 94.5708C64.1535 96.8965 62.2951 101.562 61.3553 103.173Z" fill="#94763D"/>
<path d="M89.8512 203.785C79.0582 207.61 73.8685 213.298 64.983 206.889C56.0974 200.479 32.5967 215.225 46.6859 225.761C60.7752 236.304 55.9081 227.344 71.8137 228.01C87.7263 228.675 98.6176 200.682 89.8512 203.785Z" fill="#A19172"/>
<path d="M76.4008 249.641C87.5516 244.863 81.6396 239.904 75.6925 234.65C69.7454 229.403 60.3129 229.326 59.5906 236.835C58.8682 244.345 65.2501 254.425 76.4008 249.641Z" fill="#94763D"/>
<path d="M132.383 188.926C133.638 185.29 138.639 183.42 143.295 182.81C147.279 182.285 128.904 175.014 123.07 180.961C120.012 184.085 119.563 192.057 123.364 195.903C127.165 199.749 129.914 196.078 132.383 188.926Z" fill="#A19172"/>
<path d="M143.199 202.131C133.128 189.795 142.098 188.59 151.285 189.907C160.465 191.231 176.083 197.774 168.79 204.779C161.496 211.785 147.162 209.704 143.199 202.131Z" fill="#673C0E"/>
<path d="M102.118 237.984C110.351 230.776 113.177 225.655 121.818 227.322C130.458 228.99 146.707 246.664 135.795 248.969C124.882 251.273 89.5084 249.018 102.118 237.984Z" fill="#94763D"/>
<path d="M175.094 206.467C174.119 203.826 174.098 201.15 172.457 198.088C169.715 192.974 171.602 188.89 176.441 191.097C183.931 194.516 185.018 199.202 191.315 200.757C197.613 202.312 207.186 204.33 197.978 210.081C189.499 215.377 179.54 218.53 175.094 206.467Z" fill="#A19172"/>
<path d="M199.218 229.551C198.082 224.276 188.593 219.239 194.126 215.897C199.659 212.556 208.145 207.127 212.318 214.826C216.491 222.524 216.259 221.656 214.233 233.558C212.206 245.453 201.77 241.439 199.218 229.551Z" fill="#94763D"/>
<path d="M160.998 252.934C162.148 246.447 151.944 240.696 145.569 240.906C139.195 241.116 140.723 249.144 142.358 250.587C145.548 253.396 159.617 260.717 160.998 252.934Z" fill="#94763D"/>
<path d="M158.558 258.964C163.362 256.911 164.968 256.855 163.152 250.326C161.342 243.798 171.161 250.775 172.374 253.773C173.587 256.771 173.748 257.556 175.586 260.708C178.209 265.213 167.703 273.318 164.842 267.447C162.955 263.559 154.28 260.792 158.558 258.964Z" fill="#673C0E"/>
<path d="M199.415 69.6194C187.886 49.1289 195.768 46.8031 184.337 35.6367C172.899 24.4702 188.405 26.3476 194.871 33.1147C201.337 39.8819 202.255 36.6804 207.333 30.7329C212.41 24.7854 210.937 38.1095 211.751 46.698C212.557 55.2865 210.951 90.1099 199.415 69.6194Z" fill="#94763D"/>
<path d="M184.029 38.2345C185.25 39.0331 190.685 46.809 187.901 47.1662C185.116 47.5165 179.618 34.4937 184.029 38.2345Z" fill="#A19172"/>
<path d="M136.992 234.601C137.14 224.591 142.28 225.431 149.174 224.976C156.068 224.521 177.591 240.913 169.715 244.598C161.847 248.283 162.415 243.148 152.652 239.652C147.701 237.873 136.943 238.062 136.992 234.601Z" fill="#B77813"/>
<path d="M185.614 243.721C188.72 240.436 201.982 232.66 200.846 243.203C199.71 253.739 176.861 251.007 185.614 243.721Z" fill="#A19172"/>
<path d="M162.549 215.784C167.507 218.81 169.337 228.484 163.509 226.81C157.682 225.136 147.744 223.637 147.884 219.314C148.025 214.992 157.59 212.757 162.549 215.784Z" fill="#94763D"/>
<path d="M67.0008 266.677C61.7059 252.807 52.7222 258.488 54.1669 266.558C55.6186 274.635 72.2956 280.548 67.0008 266.677Z" fill="#673C0E"/>
<path d="M202.24 258.581C197.345 263.162 199.414 251.428 201.855 248.507C204.562 245.264 205.403 244.493 210.831 242.721C216.091 241.004 218.027 253.166 211.301 252.661C207.136 252.346 207.143 254.006 202.24 258.581Z" fill="#673C0E"/>
<path d="M234.963 196.899C241.064 192.941 229.822 184.605 224.275 179.386C218.728 174.167 217.956 176.689 211.771 182.209C206.118 187.246 215.565 194.769 220.481 197.635C228.118 202.083 230.804 199.603 234.963 196.899Z" fill="#94763D"/>
<path d="M209.051 207.476C208.574 207.098 200.256 202.292 203.714 199.35C207.171 196.415 212.964 200.464 215.524 203.063C218.084 205.662 227.306 212.576 221.352 212.849C215.391 213.129 213.862 211.301 209.051 207.476Z" fill="#A19172"/>
<path d="M261.438 169.311C269.524 164.05 249.242 140.771 242.398 132.708C235.553 124.638 225.216 135.37 231.331 145.114C237.446 154.859 231.583 153.794 228.182 162.901C225.861 169.128 225.237 172.407 233.989 179.84C240.195 185.115 252.581 175.076 261.438 169.311Z" fill="#A19172"/>
<path d="M219.509 113.766C215.035 112.94 210.736 102.179 224.054 103.7C237.365 105.213 234.111 105.92 237.596 115.791C241.082 125.661 240.17 128.162 232.666 125.339C225.162 122.516 226.326 116.281 219.509 113.766Z" fill="#A19172"/>
<path d="M225.291 225.318C230.572 225.318 230.782 225.724 233.475 228.912C236.175 232.099 239.871 221.584 246.583 222.831C253.294 224.078 252.6 218.558 248.168 215.567C243.735 212.568 238.693 205.696 239.745 200.19C240.797 194.684 229.506 202.271 227.051 205.605C224.597 208.94 231.413 213.472 221.939 216.8C215.739 218.971 216.181 225.318 225.291 225.318Z" fill="#673C0E"/>
<path d="M252.923 231.708C252.25 231.785 251.03 230.405 250.286 229.901C248.063 228.395 250.875 223.722 252.348 222.342C254.627 220.205 262.482 215.974 260.574 221.151C258.821 225.922 255.826 231.379 252.923 231.708Z" fill="#94763D"/>
<path d="M247.509 89.4653C245.187 76.6527 234.808 73.8225 224.604 75.1956C216.595 76.2744 219.043 83.9592 222.016 89.0871C225.207 94.5932 224.52 100.471 232.83 102.453C240.811 104.366 239.093 110.376 241.071 115.686C243.932 123.378 249.837 102.271 247.509 89.4653Z" fill="#94763D"/>
<path d="M258.691 72.5465C272.977 69.9336 252.555 56.4624 242.891 51.3275C233.227 46.1856 227.083 59.6568 224.727 65.8495C221.655 73.9476 244.406 75.1595 258.691 72.5465Z" fill="#94763D"/>
<path d="M250.507 103.615C255.823 95.3975 254.827 94.1435 249.111 83.0681C243.396 71.9858 262.422 80.7003 267.163 85.3308C271.904 89.9613 279.906 101.646 271.616 103.222C263.32 104.792 244.644 114.347 250.507 103.615Z" fill="#A19172"/>
<path d="M279.098 86.1864C276.503 84.8624 274.364 87.0131 276.671 95.2163C279.308 104.589 277.59 107.188 285.346 104.148C292.843 101.206 283.677 88.5262 279.098 86.1864Z" fill="#673C0E"/>
<path d="M221.469 97.4856C220.277 100.533 216.153 103.349 212.836 103.916C209.512 104.484 209.877 100.449 207.037 98.4243C204.196 96.3998 209.379 92.2106 213.531 89.0372C217.682 85.8638 222.662 94.4383 221.469 97.4856Z" fill="#A19172"/>
<path d="M248.332 50.7527C245.695 46.7457 260.458 47.173 265.682 48.3499C278.397 51.2151 288.797 58.3885 279.386 64.1609C273.656 67.6845 250.969 54.7598 248.332 50.7527Z" fill="#A19172"/>
<path d="M259.757 77.1922C256.889 75.2798 258.095 74.9435 262.366 74.4041C266.637 73.8647 265.956 69.3603 265.087 65.1851C264.217 61.01 271.034 66.8314 273.313 68.6457C275.599 70.4601 282.655 83.8052 275.606 84.1695C267.836 84.5688 262.625 79.0976 259.757 77.1922Z" fill="#A19172"/>
<path d="M299.793 75.2301C309.906 71.4613 292.395 50.4734 286.938 48.1266C281.482 45.7798 276.187 45.5416 280.157 50.5715C284.126 55.6013 294.484 63.7344 283.726 66.9498C267.87 71.6854 289.681 78.999 299.793 75.2301Z" fill="#94763D"/>
<path d="M292.281 91.7915C295.935 90.0962 297.695 89.4517 303.972 90.9789C310.248 92.506 315.887 86.9648 315.15 80.0016C314.414 73.0453 306.552 65.9629 305.318 73.3745C304.371 79.0769 292.723 79.5042 286.958 77.8509C282.329 76.5199 278.479 82.4744 282.406 85.3186C286.334 88.1627 287.603 93.9561 292.281 91.7915Z" fill="#94763D"/>
<path d="M257.266 43.2652C256.424 37.1005 258.248 31.1811 264.854 31.7765C271.46 32.372 272.274 36.386 278.614 31.7205C284.953 27.0549 289.189 22.2493 297.156 28.449C305.123 34.6557 303.412 46.4736 295.466 45.7171C287.52 44.9605 282.197 41.3107 277.106 46.8729C274.455 49.7731 274.42 48.3721 271.825 47.8116C268.62 47.1251 266.137 46.0043 263.15 45.8011C260.506 45.626 258.711 45.4789 257.266 43.2652Z" fill="#94763D"/>
<path d="M92.7811 214.026C92.7811 214.026 95.6284 206.257 94.4081 203.546C93.1948 200.835 100.138 198.18 101.056 200.94C101.982 203.7 104.963 209.332 101.702 215.021C98.4406 220.709 85.9504 250.356 82.1914 235.56C78.4324 220.758 84.5197 235.96 92.7811 214.026Z" fill="#94763D"/>
<path d="M152.027 185.48C152.048 185.165 153.507 182.3 150.302 180.745C147.097 179.189 152.953 174.559 156.971 177.445C160.99 180.331 161.319 184.317 166.516 187.042C171.72 189.767 169.384 194.867 164.398 192.247C159.426 189.627 151.676 190.167 152.027 185.48Z" fill="#A19172"/>
<path d="M175.058 240.219C170.984 234.797 165.584 232.731 168.985 227.267C172.386 221.803 166.425 215.89 165.829 214.146C165.233 212.408 167.127 203.428 174.336 210.727C181.538 218.02 182.927 217.368 185.29 218.447C193.166 222.062 196.785 230.496 196.259 233.011C195.515 236.577 192.128 236.149 187.373 238.951C182.731 241.691 179.133 245.642 175.058 240.219Z" fill="#A19172"/>
<path d="M192.298 134.6C192.298 134.6 193.686 131.574 188.09 131.02C182.493 130.467 185.558 124.52 189.485 125.472C193.413 126.425 199.17 129.101 202.396 127.385C205.622 125.668 206.793 128.372 208.203 130.257C210.524 133.353 211.408 135.728 205.945 135.707C202.452 135.7 190.327 139.644 192.298 134.6Z" fill="#94763D"/>
<path d="M223.974 155.602C224.276 160.624 226.464 159.006 228.954 155.98C231.443 152.954 231.128 148.968 228.589 146.06C225.377 142.383 226.022 140.421 226.464 137.171C226.906 133.913 224.746 136.828 222.425 137.808C219.858 138.894 214.332 136.722 217.501 140.491C220.671 144.267 223.673 150.579 223.974 155.602Z" fill="#94763D"/>
<path d="M165.171 97.4008C163.775 96.0488 170.914 91.6425 174.295 91.7826C177.675 91.9157 181.841 95.1311 181.266 96.6793C180.74 98.1013 176.216 96.0698 172.948 96.406C170.325 96.6793 166.061 98.2625 165.171 97.4008Z" fill="#A19172"/>
<path d="M252.967 12.6447C251.018 5.80051 249.11 0.980865 242.616 6.46601C236.122 11.9512 245.576 20.946 249.468 24.2805C253.353 27.615 254.917 19.4889 252.967 12.6447Z" fill="#A19172"/>
<path d="M222.003 5.85706C223.315 2.59259 232.172 3.44023 232.74 5.85706C233.68 9.85708 233.729 14.7047 233.337 16.2739C231.871 22.0953 228.505 20.8274 226.59 19.3983C225.37 18.4946 220.054 10.7047 222.003 5.85706Z" fill="#A19172"/>
<path d="M101.928 196.799C101.928 196.799 104.081 192.274 102.369 188.68C100.658 185.094 106.346 187.573 109.333 186.362C112.321 185.15 114.278 184.926 113.464 188.015C112.651 191.104 112.952 194.011 108.338 197.402C104.579 200.162 100.048 200.386 101.928 196.799Z" fill="#A19172"/>
<path d="M317.389 71.5177C315.593 73.3461 308.622 67.0343 306.883 65.4301C299.365 58.5229 294.681 51.7978 302.409 46.761C311.926 40.5543 321.029 67.8119 317.389 71.5177Z" fill="#A19172"/>
<path d="M199.027 196.128C201.11 197.732 206.461 196.94 204.161 192.898C201.861 188.856 198.67 183.504 195.563 183.553C193.185 183.588 184.454 184.926 199.027 196.128Z" fill="#A19172"/>
<path d="M53.1431 133.172C53.3535 132.058 54.2512 124.87 52.0561 122.986C49.854 121.102 52.5751 119.084 55.2821 121.284C57.9821 123.483 65.8788 122.229 66.8887 121.795C67.8986 121.361 70.3532 121.543 67.022 126.629C63.6837 131.715 66.1383 134.047 63.6837 133.795C61.2292 133.529 52.2034 138.187 53.1431 133.172Z" fill="#94763D"/>
<path d="M168.241 89.9691C164.657 86.6766 163.963 82.0321 168.837 81.4927C175.689 80.7361 182.071 78.3543 181.972 81.4927C181.874 84.6311 178.256 84.9253 174.616 85.1004C170.099 85.3246 171.818 93.2616 168.241 89.9691Z" fill="#A19172"/>
<path d="M286.081 216.148C286.243 215.622 287.372 206.221 293.087 212.589C298.326 218.424 302.359 219.798 304.441 219.16C307.583 218.2 314.414 223.847 310.557 225.605C306.7 227.363 301.173 224.225 295.142 221.752C290.086 219.692 285.254 218.866 286.081 216.148Z" fill="#94763D"/>
<path d="M242.757 193.269C242.757 193.269 249.84 182.382 255.093 187.23C260.346 192.078 237.252 200.722 242.757 193.269Z" fill="#A19172"/>
<path d="M252.28 212.646C250.078 209.249 243.71 202.264 249.187 202.173C252.672 202.117 254.734 201.739 255.653 206.671C256.558 211.518 254.482 216.044 252.28 212.646Z" fill="#94763D"/>
<path d="M254.017 219.119C254.017 219.119 257.278 216.891 259.333 217.318C261.388 217.753 263.373 214.86 261.283 213.97C259.193 213.08 257.51 211.917 256.381 214.222C255.245 216.527 253.737 215.602 252.958 215.539C252.173 215.49 251.815 219.77 254.017 219.119Z" fill="#A19172"/>
<path d="M70.4012 266.153C68.2412 264.57 63.9913 262.573 72.9119 259.498C81.8325 256.423 90.4024 251.652 92.1206 248.45C93.8388 245.249 101.252 246.517 102.886 249.781C104.52 253.046 94.7225 253.361 86.5452 258.258C78.4732 263.113 73.9217 268.731 70.4012 266.153Z" fill="#A19172"/>
</g>
<defs>
<clipPath id="clip0">
<rect width="323" height="275" fill="white"/>
</clipPath>
</defs>
</svg>
