<svg width="317" height="141" viewBox="0 0 317 141" fill="none" xmlns="http://www.w3.org/2000/svg">
<path d="M4.27967 29.4753C4.27967 29.4753 -11.1247 -0.920906 19.8813 5.05074C50.8872 11.0224 61.7546 40.7133 40.4025 42.3571C19.0504 44.0069 35.2258 28.5488 25.9545 30.354C16.6832 32.1593 5.18229 34.3052 4.27967 29.4753Z" fill="#94763D"/>
<path d="M6.41168 43.383C6.41168 43.383 23.1431 24.3682 26.0661 41.9603C28.9892 59.5525 51.9373 38.834 50.7477 49.1753C49.5642 59.5166 50.2157 69.8579 33.9028 68.0766C17.5898 66.2953 30.8661 49.2052 18.5522 53.9933C6.2443 58.7814 -0.857116 52.6663 6.41168 43.383Z" fill="#A19172"/>
<path d="M6.81491 60.8159C6.81491 60.8159 27.0791 49.6258 22.4285 64.8927C17.7779 80.1595 14.006 73.9428 16.1699 79.9264C18.3338 85.91 7.62786 90.2378 6.76111 75.9871C5.88838 61.7365 -8.0395 68.2341 6.81491 60.8159Z" fill="#94763D"/>
<path d="M18.5111 87.194C18.9415 84.1215 22.271 81.0908 22.7373 78.1797C23.61 72.752 24.2616 65.9375 30.287 70.1936C39.5763 76.7451 43.0612 70.0681 40.5267 81.6706C37.9922 93.2732 35.0691 101.773 29.1931 93.9845C24.142 87.2776 17.8058 92.2092 18.5111 87.194Z" fill="#A19172"/>
<path d="M9.67254 92.968C9.72634 89.6563 10.6409 83.9178 17.0788 91.0551C25.6627 100.571 17.4913 101.791 12.8766 108.456C7.15596 116.705 9.64266 94.6417 9.67254 92.968Z" fill="#94763D"/>
<path d="M12.3047 114.387C12.3047 114.387 27.452 95.6886 32.5988 101.732C37.7455 107.781 30.7696 112.025 40.8957 110.902C51.0278 109.778 44.1714 123.096 31.7798 122.576C19.3942 122.056 4.62346 124.638 12.3047 114.387Z" fill="#B77813"/>
<path d="M44.3654 121.965C52.0646 117.894 54.0073 122.455 48.3764 126.251C42.7395 130.047 11.4227 133.478 9.13328 128.403C6.84385 123.322 9.743 123.411 16.0613 124.703C22.3797 125.994 37.3716 126.388 44.3654 121.965Z" fill="#A19172"/>
<path d="M60.2451 127.011C60.2451 127.011 58.404 117.046 51.3325 118.014C44.2609 118.983 50.6749 108.588 55.8276 110.907C60.9804 113.226 75.8228 109.036 77.1618 118.863C78.5127 128.684 63.1861 140.353 60.2451 127.011Z" fill="#673C0E"/>
<path d="M46.2854 129.055C46.8293 128.846 52.4901 127.746 52.8548 123.245C53.2194 118.744 56.0229 121.446 57.2782 123.849C58.5694 126.335 61.4626 128.87 57.2483 130.538C53.0401 132.205 36.7929 132.66 46.2854 129.055Z" fill="#94763D"/>
<path d="M71.5273 110.428C71.5273 110.428 78.2521 110.028 78.9993 118.384C79.8541 127.943 84.2417 123.095 85.3715 119.765C86.5072 116.43 86.298 102.299 93.6027 108.617C100.907 114.935 101.457 105.06 98.6358 99.3038C95.8144 93.5413 86.0111 96.9904 77.0028 98.2158C54.8378 101.235 54.7182 110.972 71.5273 110.428Z" fill="#A19172"/>
<path d="M82.2472 126.928C65.8445 136.08 105.13 136.57 114.449 128.028C123.768 119.48 107.258 119.791 102.732 120.472C100.084 120.873 98.0879 121.088 94.7225 114.776C91.363 108.469 89.5339 113.813 88.4101 119.791C87.2863 125.768 82.2472 126.928 82.2472 126.928Z" fill="#94763D"/>
<path d="M100.185 112.557C97.6086 114.273 97.7341 119.671 105.672 117.405C113.611 115.134 116.91 91.9346 106.127 87.7562C95.3371 83.5778 80.656 75.3705 80.6381 81.8025C80.6142 88.2404 73.0824 95.9037 86.2272 93.429C97.6145 91.289 99.7725 94.212 102.522 100.04C104.931 105.163 102.761 110.848 100.185 112.557Z" fill="#94763D"/>
<path d="M83.3698 74.3221C98.5709 79.983 97.3635 70.4307 91.5472 52.45C88.5166 43.0711 83.328 26.7044 76.2385 48.2836C69.1491 69.8628 83.3698 74.3221 83.3698 74.3221Z" fill="#B77813"/>
<path d="M92.4786 77.9161C102.174 76.5353 97.3264 62.7868 95.4435 56.9347C93.6143 51.2499 82.5975 25.2114 94.6963 37.9796C106.795 50.7478 103.214 52.3379 104.703 63.4503C106.191 74.5627 108.397 79.9485 103.495 81.7478C98.5996 83.5471 84.2952 79.0818 92.4786 77.9161Z" fill="#A19172"/>
<path d="M102.151 41.7748C102.151 41.7748 92.0909 27.3747 81.6181 31.5889C71.1453 35.8031 70.9062 6.84155 80.5421 11.1275C90.178 15.4135 96.3888 16.6987 100.131 27.9784C103.879 39.2522 111.996 52.3851 102.151 41.7748Z" fill="#A19172"/>
<path d="M84.1959 9.87957C84.1959 9.87957 101.758 12.7907 103.916 29.1395C106.074 45.4883 120.803 32.7619 112.584 17.6804C104.358 2.59882 99.3372 1.31363 90.2931 3.23843C81.2549 5.15724 79.9697 8.67209 84.1959 9.87957Z" fill="#94763D"/>
<path d="M114.304 118.025C114.304 118.025 119.893 119.496 119.768 124.481C119.618 130.542 115.332 133.681 123.874 134.595C132.416 135.504 136.415 132.025 134.323 123.614C132.231 115.204 106.862 114.259 114.304 118.025Z" fill="#94763D"/>
<path d="M124.644 115.45C124.644 115.45 111.081 111.349 125.009 110.321C138.937 109.293 140.312 109.084 142.093 117.189C143.874 125.295 151.818 121.75 152.536 124.769C153.259 127.788 156.899 133.49 151.729 133.431C146.558 133.371 139.098 133.771 138.172 128.768C137.239 123.771 140.664 119.383 124.644 115.45Z" fill="#A19172"/>
<path d="M144.268 110.047C144.268 110.047 140.095 120.203 152.756 122.187C165.417 124.172 173.463 115.582 164.909 110.465C156.349 105.348 146.145 103.334 144.268 110.047Z" fill="#673C0E"/>
<path d="M149.687 102.078C149.687 102.078 130.989 93.1598 147.194 91.8985C163.406 90.6372 156.215 93.0223 161.188 99.245C166.161 105.468 176.963 90.3981 176.766 98.0973C176.562 105.796 174.297 112.916 167.303 108.696C160.303 104.469 155.88 105.205 149.687 102.078Z" fill="#A19172"/>
<path d="M157.852 126.514C158.031 126.562 162.598 127.632 159.179 132.796C156.459 136.909 163.764 136.198 167.721 133.675C171.678 131.158 174.721 127.1 173.549 121.935C172.378 116.77 171.355 121.104 164.666 123.22C159.43 124.882 150.631 124.535 157.852 126.514Z" fill="#B77813"/>
<path d="M162.093 94.6831C162.093 94.6831 159.344 85.3639 144.848 89.7934C130.352 94.2228 146.982 71.3584 152.141 74.652C157.299 77.9457 158.854 77.7783 162.954 87.9642C167.055 98.1501 164.568 100.607 162.093 94.6831Z" fill="#94763D"/>
<path d="M161.999 79.7102C162.309 79.9912 166.201 85.646 166.864 92.3708C167.528 99.0957 174.701 93.8174 175.4 91.6475C176.1 89.4717 175.108 70.7677 168.628 66.5236C162.148 62.2795 172.442 75.2449 160.397 69.1657C148.358 63.0864 156.075 74.3722 161.999 79.7102Z" fill="#94763D"/>
<path d="M148.469 69.7628C147.656 68.7705 146.975 67.6766 146.551 66.4691C145.146 62.4342 143.813 55.1116 154.447 58.7221C168.805 63.5998 169.582 64.2036 165.733 56.0919C161.883 47.9743 146.658 40.1675 145.241 49.9828C143.825 59.804 137.542 58.1423 141.99 67.6407C146.066 76.3441 151.129 72.9967 148.469 69.7628Z" fill="#673C0E"/>
<path d="M150.092 68.2212C150.032 68.0897 143.768 54.0362 153.709 60.4742C153.709 60.4742 162.514 64.0667 163.972 66.404C165.431 68.7352 157.277 66.9539 155.526 65.6568C153.78 64.3596 150.863 67.3604 153.236 70.8752C155.616 74.3841 152.77 74.2884 150.092 68.2212Z" fill="#A19172"/>
<path d="M148.228 42.7451C148.228 42.7451 149.639 37.3473 160.805 46.3555C171.971 55.3579 177.058 57.2169 173.28 48.0113C169.502 38.8058 174.165 19.9763 155.521 27.7233C136.876 35.4643 137.63 50.9822 148.228 42.7451Z" fill="#A19172"/>
<path d="M175.384 34.1127C175.384 34.1127 184.177 17.2498 171.684 9.04848C159.185 0.841194 142.627 2.61655 142.926 16.4129C143.219 30.2033 144.474 33.1981 148.276 30.3408C152.078 27.4835 150.141 23.2214 158.641 23.4844C167.147 23.7475 167.99 22.797 170.949 26.3896C173.902 29.9702 172.545 43.6111 175.384 34.1127Z" fill="#94763D"/>
<path d="M206.086 106.24C206.014 106.981 204.084 124.573 217.366 121.351C230.648 118.129 236.166 122.553 228.741 110.054C221.323 97.5603 207.33 93.5075 206.086 106.24Z" fill="#A19172"/>
<path d="M231.053 105.073C231.053 105.073 212.714 86.4648 202.743 100.949C192.772 115.432 198.403 86.0045 203.927 85.2095C209.45 84.4145 217.621 87.3435 228.734 95.491C239.852 103.639 242.064 115.271 231.053 105.073Z" fill="#A19172"/>
<path d="M206.048 80.798C206.048 80.798 207.889 83.3564 222.618 88.3477C237.347 93.339 228.655 70.3371 220.669 67.7249C212.683 65.1187 188.079 69.1954 206.048 80.798Z" fill="#673C0E"/>
<path d="M205.969 60.4198C206.053 60.7725 205.969 70.0079 216.215 55.9724C223.729 45.679 228.571 53.6412 229.515 54.5079C234.429 59.015 239.534 59.9655 234.279 50.4073C229.025 40.849 232.151 34.8355 224.213 37.5912C216.275 40.3469 208.223 42.9591 207.171 47.2092C206.119 51.4593 204.953 56.1637 205.969 60.4198Z" fill="#94763D"/>
<path d="M220.81 64.1194C217.469 60.5806 219.124 47.8244 228.055 56.8207C236.985 65.817 247.817 58.8531 251.26 59.152C254.709 59.4508 247.96 82.0642 240.387 79.3922C232.807 76.7202 224.152 67.6581 220.81 64.1194Z" fill="#B77813"/>
<path d="M199.712 40.8315C199.712 40.8315 199.018 16.7536 209.886 24.6082C211.171 25.5407 215.451 29.6175 218.41 31.1597C227.986 36.157 218.661 37.496 214.339 38.3029C210.011 39.1099 198.546 52.5476 199.712 40.8315Z" fill="#94763D"/>
<path d="M205.692 138.096C205.692 138.096 194.495 120.013 209.768 123.63C225.041 127.246 233.338 120.037 233.338 120.037C233.338 120.037 255.957 124.831 235.125 134.067C214.293 143.302 205.692 138.096 205.692 138.096Z" fill="#94763D"/>
<path d="M243.704 58.8601C243.704 58.8601 240.853 61.1794 239.747 57.551C238.641 53.9285 235.222 45.2072 246.938 47.7537C258.648 50.2941 264.339 50.3181 265.869 56.0984C267.399 61.8788 254.129 61.6576 252.934 58.0352C251.732 54.4067 243.704 58.8601 243.704 58.8601Z" fill="#A19172"/>
<path d="M248.251 78.7303C248.443 78.4195 254.319 69.9611 254.504 65.4241C254.695 60.8871 257.959 63.4156 260.775 63.8042C263.59 64.1927 266.926 62.3696 267.284 58.6335C267.643 54.8975 278.391 53.5585 275.886 62.513C273.381 71.4675 264.738 78.1744 264.738 78.1744C264.738 78.1744 239.124 93.7521 248.251 78.7303Z" fill="#A19172"/>
<path d="M280.419 57.0971C280.419 57.0971 282.225 34.0056 290.007 49.6311C297.79 65.2626 297.474 82.4961 289.129 77.4689C280.796 72.4417 278.829 67.6058 280.419 57.0971Z" fill="#A19172"/>
<path d="M264.997 81.6055C264.997 81.6055 274.849 73.7987 275.464 70.9533C276.08 68.108 279.894 70.9713 279.894 70.9713C279.894 70.9713 286.888 82.1136 290.516 80.5773C294.144 79.0411 297.725 88.7069 288.944 85.8316C280.163 82.9564 269.469 84.5524 269.469 84.5524C269.469 84.5524 256.599 91.5761 264.997 81.6055Z" fill="#94763D"/>
<path d="M285.884 41.2856C286.464 41.7101 290.798 41.5785 295.239 52.6073C299.681 63.636 302.879 68.5855 305.114 55.7216C307.344 42.8578 307.792 45.6194 303.584 34.2261C299.37 22.8327 263.211 24.6559 285.884 41.2856Z" fill="#94763D"/>
<path d="M289.704 88.5936C289.704 88.5936 300.206 92.6464 295.687 79.7586C295.687 79.7586 294.844 73.3506 300.045 77.4632C305.245 81.5758 308.27 90.7635 308.24 99.1262C308.21 107.489 288.675 99.7897 285.37 95.8982C283.242 93.4056 274.383 82.2513 289.704 88.5936Z" fill="#B77813"/>
<path d="M282.216 94.0378C283.28 95.0002 284.798 102.12 290.483 102.64C298.75 103.393 296.652 113.674 291.582 114.32C286.513 114.966 280.984 108.88 280.721 105.634C280.494 102.873 279.197 91.3121 282.216 94.0378Z" fill="#673C0E"/>
<path d="M284.705 113.998C284.705 113.998 289.493 124.046 296.767 114.703C304.042 105.36 309.171 117.621 309.159 119.689C309.147 121.757 305.076 129.157 298.531 127.753C291.985 126.348 279.624 123.891 280.783 120.364C281.937 116.831 279.121 108.72 284.705 113.998Z" fill="#A19172"/>
<path d="M282.719 137.353C282.719 137.353 272.168 122.146 288.571 127.46C304.974 132.774 306.014 130.455 308.1 125.978C310.186 121.5 313.282 123.67 311.268 132.111C309.253 140.551 288.135 142.285 282.719 137.353Z" fill="#94763D"/>
<path d="M301.354 109.376C301.354 109.376 294.055 107.218 300.242 104.737C306.429 102.257 309.872 107.971 309.902 98.8914C309.932 89.8114 315.192 95.9803 314.487 101.492C313.776 107.009 310.081 111.474 301.354 109.376Z" fill="#A19172"/>
<path d="M299.589 73.4568C299.589 73.4568 295.285 60.2104 302.631 65.8832C309.978 71.5559 313.941 71.8727 313.851 74.4551C313.756 77.0434 313.248 86.3446 310.498 84.5274C307.742 82.7102 303.414 80.0203 299.589 73.4568Z" fill="#94763D"/>
<path d="M306.372 59.2488C306.372 59.2488 311.859 50.9937 306.175 33.6227C300.49 16.2517 304.83 24.3096 309.528 27.7706C314.226 31.2376 313.706 39.164 313.126 49.045C312.547 58.926 304.25 74.6352 306.372 59.2488Z" fill="#A19172"/>
<path d="M285.453 17.7641C285.411 17.4233 283.791 -1.77083 294.347 3.17267C304.904 8.11616 309.202 10.2562 314.044 11.7147C318.885 13.1732 313.924 26.1447 308.102 22.313C302.28 18.4814 300.881 20.5138 300.564 22.9706C300.241 25.4274 286.702 28.0037 285.453 17.7641Z" fill="#A19172"/>
<path d="M207.237 21.482C197.021 18.9714 194.248 11.2304 200.1 5.94016C205.952 0.649959 220.394 -1.40634 215.648 4.13492C210.901 9.67618 204.105 7.90082 204.894 13.7828C205.683 19.6588 214.315 21.9363 207.237 21.482Z" fill="#A19172"/>
<path d="M214.053 23.9806C213.193 21.0217 212.918 20.2864 210.162 18.1883C207.406 16.0902 203.951 12.7546 211.537 9.30555C219.122 5.85645 231.574 -0.569495 231.927 10.1603C232.279 20.8842 231.448 38.8649 224.102 32.6721C216.755 26.4733 216.743 30.813 214.053 23.9806Z" fill="#A19172"/>
</svg>
