<svg width="475" height="186" viewBox="0 0 475 186" fill="none" xmlns="http://www.w3.org/2000/svg">
<path d="M239.41 21.4012V48.9905L204.976 38.6068V166.424L174.93 165.883V4.32291C174.93 1.2062 178.783 -0.87691 182.198 0.379316L239.41 21.4012Z" fill="#C5212C"/>
<path d="M302.29 76.7078V132.173C302.29 156.804 295.041 171.036 277.299 170.861C257.993 170.67 248.512 154.117 248.512 125.748V61.6649C248.512 39.2437 257.726 25.0435 277.413 32.4219C295.231 39.1005 302.29 57.4192 302.29 76.7078ZM270.279 65.6085V133.969C270.279 142.047 273.827 146.246 277.299 146.516C280.599 146.754 284.071 143.208 284.071 135.417V69.5044C284.071 62.0784 280.599 57.7372 277.299 56.7195C273.827 55.6382 270.279 57.9121 270.279 65.6085Z" fill="#C5212C"/>
<path d="M327.052 168.619L311.352 168.333V53.4756C311.352 50.8201 314.633 49.0391 317.552 50.1045L333.672 56.0358C341.779 59.0094 350.23 67.4849 350.23 94.7244C350.23 121.073 341.932 126.051 333.672 124.778L327.052 123.761V168.619ZM327.052 103.105L329.723 103.677C333.347 104.456 336.724 101.928 336.724 90.8921C336.724 79.8564 333.672 76.2785 329.456 75.0064L327.052 74.2749V103.105Z" fill="#C5212C"/>
<path d="M383.215 74.243V92.3071L368.869 87.9819V169.35L356.984 169.143V69.7111C356.984 67.3099 359.941 65.7039 362.593 66.6739L383.215 74.243Z" fill="#C5212C"/>
<path d="M411.641 106.954V145.261C411.641 162.276 408.208 172.119 399.985 172.039C391.305 171.96 387.146 161.051 387.146 142.335V100.037C387.146 85.2487 391.191 75.1194 400.043 78.4269C408.303 81.5436 411.641 93.6288 411.641 106.954ZM396.799 101.325V147.265C396.799 152.687 398.402 155.454 399.985 155.581C401.492 155.693 403.095 153.228 403.095 147.933V103.106C403.095 98.0653 401.492 95.3462 399.985 94.8691C398.402 94.3762 396.799 96.1571 396.799 101.325Z" fill="#C5212C"/>
<path d="M423.736 170.333L416.01 170.19V91.5409C416.01 89.0761 419.043 87.4224 421.752 88.4242L427.036 90.3642C431.157 91.8748 435.526 97.3449 435.526 116.983C435.526 135.986 431.252 139.834 427.036 139.182L423.717 138.673V170.333H423.736ZM423.736 124.075L425.071 124.362C426.884 124.759 428.601 122.803 428.601 114.948C428.601 107.093 427.055 104.739 424.938 104.087L423.736 103.721V124.075Z" fill="#C5212C"/>
<path d="M455.023 118.94V150.441C455.023 164.435 452.695 172.529 447.201 172.481C441.459 172.433 438.75 163.624 438.75 148.501V114.329C438.75 102.371 441.402 93.959 447.239 96.1535C452.772 98.2366 455.023 107.984 455.023 118.94ZM445.103 114.965V152.334C445.103 156.754 446.171 158.981 447.22 159.06C448.231 159.14 449.3 157.104 449.3 152.779V116.142C449.3 112.023 448.231 109.877 447.22 109.558C446.152 109.225 445.103 110.751 445.103 114.965Z" fill="#C5212C"/>
<path d="M473.014 107.255V159.094L474.006 159.173V184.25L469.447 184.489V171.131L462.236 171.004V184.87L457.047 185.156V157.758L457.81 157.822C459.432 150.109 459.889 143.097 459.889 121.996V106.269C459.889 104.456 462.121 103.232 464.124 103.963L473.014 107.255ZM468.264 117.941L464.964 116.939V129.501C464.964 142.334 464.62 150.936 463.342 158.283L468.264 158.696V117.941V117.941Z" fill="#C5212C"/>
<path d="M151.586 103.805V0.380767C151.586 0.380767 149.64 -1.54333 142.715 3.25895L97.6362 31.85C95.9955 32.8836 94.87 35.2688 94.87 37.6223V38.799V63.3033V77.2808L73.7899 73.9733L73.9044 70.3V58.1353V14.3742V13.8017C73.9044 11.9253 73.1794 10.4783 72.0539 10.033L54.5984 3.14764C51.5461 2.6865 48.4938 5.40567 48.4938 5.40567L32.6599 23.5494C31.706 24.6466 31.1146 26.3958 31.1146 28.0972V65.7522L21.7096 75.6748C20.8703 76.5653 20.317 78.06 20.2598 79.5866L20.2407 79.6025V79.9364V114.999V130.281L19.7447 130.344L2.42278 128.277C1.08739 128.436 0 130.424 0 132.73V157.791C0 157.997 0.019077 158.188 0.019077 158.379L0 166.441L152.769 165.884L151.586 103.805Z" fill="#C5212C"/>
</svg>
