<svg width="72" height="43" viewBox="0 0 72 43" fill="none" xmlns="http://www.w3.org/2000/svg">
<g clip-path="url(#clip0)">
<path fill-rule="evenodd" clip-rule="evenodd" d="M70.3071 2.98399C70.8409 1.30071 70.3071 0.0765125 67.9432 0.0765125H60.089C58.1063 0.0765125 57.1913 1.14769 56.6575 2.29537C56.6575 2.29537 52.616 12.089 46.9731 18.4395C45.143 20.2758 44.3042 20.8879 43.3129 20.8879C42.7791 20.8879 42.0928 20.2758 42.0928 18.5925V2.90747C42.0928 0.91815 41.4827 0 39.8051 0H27.4518C26.2317 0 25.4692 0.91815 25.4692 1.8363C25.4692 3.74911 28.2906 4.20819 28.5956 9.56406V21.194C28.5956 23.7189 28.1381 24.1779 27.1468 24.1779C24.4779 24.1779 17.9962 14.3078 14.1072 3.0605C13.3446 0.841637 12.5821 0 10.5995 0H2.66893C0.381275 0 0 1.07117 0 2.21886C0 4.2847 2.66893 14.6904 12.4296 28.4626C18.9112 37.8737 28.1381 42.9235 36.4499 42.9235C41.4827 42.9235 42.0928 41.7758 42.0928 39.863V32.7473C42.0928 30.452 42.5503 30.0694 44.1517 30.0694C45.2955 30.0694 47.3544 30.6815 52.0059 35.1957C57.3438 40.5516 58.2589 43 61.2328 43H69.0871C71.3747 43 72.4423 41.8523 71.8322 39.6335C71.146 37.4146 68.5533 34.2011 65.1981 30.3754C63.3679 28.2331 60.6228 25.8612 59.784 24.7135C58.6401 23.1833 58.9451 22.5712 59.784 21.194C59.7077 21.194 69.3158 7.57473 70.3071 2.98399Z" fill="white"/>
</g>
<defs>
<clipPath id="clip0">
<rect width="72" height="43" fill="white"/>
</clipPath>
</defs>
</svg>
